<?xml version="1.0" encoding="utf-8"?>
<svg width="344pt" height="89pt" viewBox="0 0 344 89" version="1.1" xmlns="http://www.w3.org/2000/svg" xmlns:bx="https://boxy-svg.com">
  <defs>
    <bx:guide x="56.722" y="73.168" angle="90"/>
    <bx:guide x="68.12" y="34.948" angle="90"/>
    <bx:guide x="153.682" y="48.991" angle="90"/>
    <bx:guide x="150.655" y="42.614" angle="90"/>
    <bx:guide x="154.365" y="63.403" angle="90"/>
    <bx:guide x="158.666" y="33.554" angle="90"/>
    <bx:guide x="157.595" y="23.487" angle="90"/>
    <bx:guide x="306.47" y="5.915" angle="90"/>
    <bx:guide x="307.728" y="60.378" angle="90"/>
    <bx:guide x="305.582" y="45.638" angle="90"/>
    <bx:guide x="35.405" y="78.715" angle="90"/>
    <bx:guide x="94.854" y="76.916" angle="90"/>
    <bx:guide x="144.061" y="42.228" angle="0"/>
    <bx:guide x="159.739" y="34.52" angle="0"/>
    <bx:guide x="180.043" y="47.796" angle="0"/>
    <bx:guide x="192.398" y="54.844" angle="0"/>
    <bx:guide x="191.268" y="41.974" angle="0"/>
    <bx:guide x="194.535" y="53.734" angle="90"/>
    <bx:guide x="198.181" y="61.748" angle="0"/>
    <bx:guide x="212.823" y="52.391" angle="0"/>
    <bx:guide x="228.997" y="54.841" angle="90"/>
    <bx:guide x="250.862" y="28.007" angle="0"/>
    <bx:guide x="327.617" y="54.413" angle="0"/>
    <bx:guide x="320.38" y="31.905" angle="90"/>
    <bx:guide x="269.092" y="29.122" angle="0"/>
    <bx:guide x="288.856" y="25.569" angle="90"/>
    <bx:guide x="301.861" y="20.115" angle="90"/>
    <bx:guide x="315.654" y="27.145" angle="90"/>
    <bx:guide x="309.461" y="54.221" angle="0"/>
    <bx:guide x="204.082" y="69.812" angle="0"/>
    <bx:guide x="141.331" y="59.074" angle="90"/>
    <bx:guide x="185.294" y="44.076" angle="90"/>
    <bx:guide x="138.973" y="38.499" angle="90"/>
  </defs>
  <g style="">
    <title>M</title>
    <path style="fill: none; stroke: rgb(0, 0, 0);" d="M 4.985 73.168 L 22.333 73.168 L 44.152 34.948 L 53.414 34.948 L 31.651 73.168 L 49.148 73.168 L 70.354 34.948 L 71.86 34.948 L 71.669 73.168 L 86.191 73.168 L 86.352 23.487 C 86.352 23.487 69.11 23.487 61.609 23.487 C 59.695 23.487 57.664 26.884 57.664 26.884 C 57.664 26.884 57.518 23.487 56.341 23.487 C 51.107 23.487 43.221 23.487 36.844 23.487 C 35.828 23.487 34.613 23.875 34.06 24.727 C 24.369 39.649 4.985 73.168 4.985 73.168 Z"/>
    <line style="fill: rgb(216, 216, 216); stroke: rgb(0, 0, 0);" x1="19.305" y1="48.991" x2="36.178" y2="48.991"/>
    <line style="fill: rgb(216, 216, 216); stroke: rgb(0, 0, 0);" x1="45.773" y1="48.991" x2="62.623" y2="48.991"/>
    <line style="fill: rgb(216, 216, 216); stroke: rgb(0, 0, 0);" x1="71.881" y1="48.991" x2="86.215" y2="48.991"/>
    <path style="stroke-width: 1; stroke: rgb(0, 0, 0);" d="M 94.425 27.257 L 94.398 35.659 L 91.6 39.222 L 91.849 73.181 L 94.276 73.181 L 94.264 76.938 L 79.742 76.938 L 79.761 73.181 L 86.206 73.181 L 86.355 27.257 C 90.905 27.257 94.425 27.257 94.425 27.257 Z M 57.221 76.938 L 39.724 76.938 L 41.863 73.181 L 49.163 73.181 L 70.369 34.961 L 71.875 34.961 L 71.797 50.668 Z M 30.406 76.938 L 13.058 76.938 C 13.058 76.938 13.868 75.537 15.24 73.181 L 22.348 73.181 L 44.167 34.961 L 53.429 34.961 L 31.666 73.181 L 32.551 73.181 Z"/>
  </g>
  <g style="">
    <title>E</title>
    <polygon style="stroke: rgb(0, 0, 0); fill: rgb(224, 52, 52); fill-opacity: 0;" points="103.924 23.487 91.58 39.209 91.829 73.168 138.609 73.168 138.66 63.403 107.138 63.403 107.182 53.734 133.02 53.734 137.944 42.614 106.978 42.614 113.992 33.554 139.345 33.554 139.549 23.487"/>
    <line style="fill: rgb(216, 216, 216); stroke: rgb(0, 0, 0);" x1="91.669" y1="48.991" x2="135.238" y2="48.991"/>
    <path d="M 147.151 27.145 L 147.042 35.703 L 144.793 38.499 L 120.688 38.499 L 117.852 42.614 L 106.998 42.627 L 114.012 33.567 L 139.365 33.567 L 139.475 27.145 L 147.151 27.145 Z M 140.121 59.074 L 114.408 59.074 L 114.35 63.416 L 107.158 63.416 L 107.62 53.734 L 133.171 53.734 L 136.315 46.362 L 144.114 46.362 L 144.118 48.66 L 140.121 59.074 Z M 145.798 76.916 L 99.018 76.916 L 98.991 73.181 L 138.629 73.181 L 138.66 67.151 L 144.156 67.151 L 144.168 73.092 C 144.168 73.092 144.764 73.093 145.818 73.096 L 145.798 76.916 Z" style="stroke-width: 1; stroke: rgb(0, 0, 0);"/>
  </g>
  <g style="">
    <title>G</title>
    <path style="stroke: rgb(0, 0, 0); fill: none;" d="M 144.129 73.079 L 144.061 39.637 L 156.344 23.487 L 191.268 23.487 L 191.268 33.554 L 166.472 33.554 L 159.739 42.614 L 159.739 63.403 L 180.043 63.403 L 180.043 53.734 L 165.24 53.734 L 175.933 44.076 L 192.398 44.076 C 192.398 44.076 192.398 60.378 192.398 67.411 C 192.398 70.056 191.268 73.168 186.934 73.168 C 180.043 73.168 144.129 73.079 144.129 73.079 Z"/>
    <path style="stroke-width: 1; stroke: rgb(0, 0, 0);" d="M 150.448 76.827 L 150.44 73.107 C 161.053 73.133 181.895 73.181 186.973 73.181 C 191.307 73.181 192.437 70.069 192.437 67.424 C 192.437 62.623 192.437 54.229 192.437 49.386 L 198.2 49.386 L 198.2 73.181 L 199.55 73.179 C 199.028 75.168 197.579 76.916 194.331 76.916 C 187.44 76.916 150.448 76.827 150.448 76.827 Z M 197.587 27.235 L 198.181 38.328 L 173.385 38.328 L 166.678 46.42 L 166.678 63.474 L 159.778 63.416 L 159.778 42.627 L 166.511 33.567 L 191.307 33.567 L 191.307 27.235 L 197.587 27.235 Z M 173.37 58.447 L 177.249 53.734 L 180.043 53.734 L 180.043 58.447 L 173.37 58.447 Z"/>
    <line style="fill: rgb(216, 216, 216); stroke: rgb(0, 0, 0);" x1="144.246" y1="48.918" x2="159.739" y2="48.991"/>
    <line style="fill: rgb(216, 216, 216); stroke: rgb(0, 0, 0);" x1="170.58" y1="48.991" x2="192.398" y2="48.991"/>
  </g>
  <g style="">
    <title>A</title>
    <path style="stroke: rgb(0, 0, 0); fill: none;" d="M 212.871 73.042 L 212.823 34.948 C 216.503 35.007 219.017 39.415 221.373 44.273 C 223.865 49.412 223.496 49.649 225.365 53.734 L 213.841 53.734 L 217.049 63.403 L 230.713 63.403 L 235.665 73.168 L 253.283 73.168 C 253.283 73.168 238.276 45.638 230.415 31.675 C 228.273 27.87 226.133 23.487 219.708 23.487 C 212.823 23.487 198.181 23.487 198.181 23.487 L 198.181 73.168 L 212.871 73.042 Z"/>
    <path style="stroke-width: 1; stroke: rgb(0, 0, 0);" d="M 204.082 76.916 L 204.082 73.168 L 212.89 73.055 L 212.842 34.961 C 215.854 35.009 218.084 37.97 220.087 41.707 L 220.103 53.734 L 213.96 53.734 L 217.068 63.416 L 220.114 63.416 L 220.131 76.79 L 204.082 76.916 Z M 239.225 35.423 C 242.84 41.844 246.379 48.307 250.862 56.47 L 250.9 59.377 C 250.862 64.658 255.03 68.759 258.56 70.63 C 260.976 74.919 262.093 76.916 262.093 76.916 L 242.925 76.916 L 241.031 73.181 L 253.302 73.181 C 253.302 73.181 238.295 45.651 230.434 31.688 C 229.596 30.199 228.758 28.621 227.663 27.253 C 233.551 27.558 237.162 31.759 239.225 35.423 Z M 224.673 69.351 L 222.439 63.403 L 230.732 63.416 L 233.504 69.364 L 224.673 69.351 Z"/>
    <line style="fill: rgb(216, 216, 216); stroke: rgb(0, 0, 0);" x1="223.689" y1="48.991" x2="240.002" y2="48.991"/>
    <line style="fill: rgb(216, 216, 216); stroke: rgb(0, 0, 0);" x1="198.181" y1="48.991" x2="212.823" y2="48.991"/>
  </g>
  <g>
    <title>6</title>
    <path style="stroke: rgb(0, 0, 0); fill: none;" d="M 327.617 20.714 L 327.617 27.145 L 311.421 27.145 C 311.35 25.063 309.04 20.115 304.592 20.115 L 277.466 20.115 C 270.903 20.115 269.092 26.2 269.092 28.481 L 269.092 38.815 C 269.092 34.948 276.874 31.905 280.281 31.905 L 313.873 31.905 C 320.293 31.905 327.617 37.252 327.617 42.614 L 327.617 61.479 C 327.617 67.682 320.881 73.168 315.059 73.168 L 267.549 73.168 C 259.031 73.168 250.862 65.723 250.862 59.392 L 250.862 25.075 C 250.862 15.584 261.224 5.915 273.907 5.915 L 309.287 6.088 C 318.629 5.915 327.617 13.709 327.617 20.714 Z M 276.503 60.221 L 303.18 60.378 C 305.934 60.378 309.461 57.644 309.461 54.841 L 309.461 51.202 C 309.461 49.401 306.998 45.638 303.067 45.638 L 274.4 45.638 C 271.512 45.638 269.092 48.518 269.092 50.222 L 269.092 54.841 C 269.092 57.682 273.086 60.378 276.503 60.221 Z"/>
    <path style="stroke-width: 1; stroke: rgb(0, 0, 0);" d="M 335.879 24.462 L 335.879 30.893 L 314.792 30.893 C 314.761 29.973 314.292 28.495 313.396 27.13 L 327.655 27.13 L 327.655 20.699 C 327.655 16.984 325.126 13.046 321.358 10.193 C 329.191 11.79 335.879 18.42 335.879 24.462 Z M 285.602 25.569 C 279.039 25.569 280.305 29.241 280.305 31.522 L 277.354 32.364 C 273.688 33.364 269.13 35.841 269.13 38.8 L 269.13 28.466 C 269.13 26.185 270.941 20.1 277.504 20.1 L 304.63 20.1 C 307.35 20.1 309.762 23.656 310.86 25.569 L 285.602 25.569 Z M 335.879 46.362 L 335.879 65.227 C 335.879 71.43 329.143 76.916 323.321 76.916 L 272.887 76.916 C 268.906 76.916 267.363 75.225 264.333 72.847 C 265.22 73.004 266.683 73.153 267.587 73.153 L 315.097 73.153 C 320.919 73.153 327.655 67.667 327.655 61.464 L 327.655 42.599 C 327.655 40.153 326.131 37.71 323.863 35.776 C 329.8 36.604 335.879 41.477 335.879 46.362 Z M 282.662 50.292 C 279.774 50.292 277.354 53.172 277.354 54.876 L 277.354 58.589 C 277.354 59.143 277.506 59.691 277.775 60.213 L 276.541 60.206 C 273.124 60.363 269.13 57.667 269.13 54.826 L 269.13 50.207 C 269.13 48.503 271.55 45.623 274.438 45.623 L 303.105 45.623 C 305.961 45.623 308.042 48.515 308.967 50.292 L 282.662 50.292 Z"/>
    <line style="fill: rgb(216, 216, 216); stroke: rgb(0, 0, 0);" x1="250.862" y1="48.991" x2="269.717" y2="48.991"/>
    <line style="fill: rgb(216, 216, 216); stroke: rgb(0, 0, 0);" x1="308.818" y1="48.991" x2="327.617" y2="48.991"/>
  </g>
</svg>