G04 #@! TF.GenerationSoftware,KiCad,Pcbnew,9.0.5*
G04 #@! TF.CreationDate,2025-10-21T18:02:58+01:00*
G04 #@! TF.ProjectId,md-dumper-mega-tech-adapter,6d642d64-756d-4706-9572-2d6d6567612d,rev?*
G04 #@! TF.SameCoordinates,Original*
G04 #@! TF.FileFunction,Copper,L1,Top*
G04 #@! TF.FilePolarity,Positive*
%FSLAX46Y46*%
G04 Gerber Fmt 4.6, Leading zero omitted, Abs format (unit mm)*
G04 Created by KiCad (PCBNEW 9.0.5) date 2025-10-21 18:02:58*
%MOMM*%
%LPD*%
G01*
G04 APERTURE LIST*
G04 Aperture macros list*
%AMRoundRect*
0 Rectangle with rounded corners*
0 $1 Rounding radius*
0 $2 $3 $4 $5 $6 $7 $8 $9 X,Y pos of 4 corners*
0 Add a 4 corners polygon primitive as box body*
4,1,4,$2,$3,$4,$5,$6,$7,$8,$9,$2,$3,0*
0 Add four circle primitives for the rounded corners*
1,1,$1+$1,$2,$3*
1,1,$1+$1,$4,$5*
1,1,$1+$1,$6,$7*
1,1,$1+$1,$8,$9*
0 Add four rect primitives between the rounded corners*
20,1,$1+$1,$2,$3,$4,$5,0*
20,1,$1+$1,$4,$5,$6,$7,0*
20,1,$1+$1,$6,$7,$8,$9,0*
20,1,$1+$1,$8,$9,$2,$3,0*%
G04 Aperture macros list end*
G04 #@! TA.AperFunction,ComponentPad*
%ADD10C,1.700000*%
G04 #@! TD*
G04 #@! TA.AperFunction,ComponentPad*
%ADD11RoundRect,0.250000X0.600000X-0.600000X0.600000X0.600000X-0.600000X0.600000X-0.600000X-0.600000X0*%
G04 #@! TD*
G04 #@! TA.AperFunction,ComponentPad*
%ADD12C,5.000000*%
G04 #@! TD*
G04 #@! TA.AperFunction,SMDPad,CuDef*
%ADD13R,1.778000X6.985000*%
G04 #@! TD*
G04 #@! TA.AperFunction,ComponentPad*
%ADD14C,1.200000*%
G04 #@! TD*
G04 #@! TA.AperFunction,ComponentPad*
%ADD15C,3.290000*%
G04 #@! TD*
G04 #@! TA.AperFunction,ViaPad*
%ADD16C,0.711200*%
G04 #@! TD*
G04 #@! TA.AperFunction,Conductor*
%ADD17C,0.203200*%
G04 #@! TD*
G04 APERTURE END LIST*
D10*
X106670000Y-95675000D03*
X109210000Y-95675000D03*
X111750000Y-95675000D03*
X114290000Y-95675000D03*
X116830000Y-95675000D03*
X119370000Y-95675000D03*
X121910000Y-95675000D03*
X124450000Y-95675000D03*
X126990000Y-95675000D03*
X129530000Y-95675000D03*
X132070000Y-95675000D03*
X134610000Y-95675000D03*
X137150000Y-95675000D03*
X139690000Y-95675000D03*
X142230000Y-95675000D03*
X144770000Y-95675000D03*
X147310000Y-95675000D03*
X149850000Y-95675000D03*
X152390000Y-95675000D03*
X154930000Y-95675000D03*
X157470000Y-95675000D03*
X160010000Y-95675000D03*
X162550000Y-95675000D03*
X165090000Y-95675000D03*
X167630000Y-95675000D03*
X170170000Y-95675000D03*
X172710000Y-95675000D03*
X175250000Y-95675000D03*
X177790000Y-95675000D03*
X180330000Y-95675000D03*
X182870000Y-95675000D03*
X185410000Y-95675000D03*
D11*
X106670000Y-100675000D03*
D10*
X109210000Y-100675000D03*
X111750000Y-100675000D03*
X114290000Y-100675000D03*
X116830000Y-100675000D03*
X119370000Y-100675000D03*
X121910000Y-100675000D03*
X124450000Y-100675000D03*
X126990000Y-100675000D03*
X129530000Y-100675000D03*
X132070000Y-100675000D03*
X134610000Y-100675000D03*
X137150000Y-100675000D03*
X139690000Y-100675000D03*
X142230000Y-100675000D03*
X144770000Y-100675000D03*
X147310000Y-100675000D03*
X149850000Y-100675000D03*
X152390000Y-100675000D03*
X154930000Y-100675000D03*
X157470000Y-100675000D03*
X160010000Y-100675000D03*
X162550000Y-100675000D03*
X165090000Y-100675000D03*
X167630000Y-100675000D03*
X170170000Y-100675000D03*
X172710000Y-100675000D03*
X175250000Y-100675000D03*
X177790000Y-100675000D03*
X180330000Y-100675000D03*
X182870000Y-100675000D03*
X185410000Y-100675000D03*
D12*
X97730000Y-98175000D03*
X194295000Y-98140000D03*
D13*
X106680000Y-126492000D03*
X109220000Y-126492000D03*
X111760000Y-126492000D03*
X114300000Y-126492000D03*
X116840000Y-126492000D03*
X119380000Y-126492000D03*
X121920000Y-126492000D03*
X124460000Y-126492000D03*
X127000000Y-126492000D03*
X129540000Y-126492000D03*
X132080000Y-126492000D03*
X134620000Y-126492000D03*
X137160000Y-126492000D03*
X139700000Y-126492000D03*
X142240000Y-126492000D03*
X144780000Y-126492000D03*
X147320000Y-126492000D03*
X149860000Y-126492000D03*
X152400000Y-126492000D03*
X154940000Y-126492000D03*
X157480000Y-126492000D03*
X160020000Y-126492000D03*
X162560000Y-126492000D03*
X165100000Y-126492000D03*
X167640000Y-126492000D03*
X170180000Y-126492000D03*
X172720000Y-126492000D03*
X175260000Y-126492000D03*
X177800000Y-126492000D03*
X180340000Y-126492000D03*
X182880000Y-126492000D03*
X185420000Y-126492000D03*
D14*
X148600000Y-83750000D03*
X146600000Y-83750000D03*
X144600000Y-83750000D03*
X148600000Y-86250000D03*
X146600000Y-86250000D03*
X144600000Y-86250000D03*
D15*
X153500000Y-85000000D03*
X139700000Y-85000000D03*
D16*
X141240000Y-93975000D03*
X173890000Y-121450000D03*
X174440000Y-104425000D03*
X173390000Y-102600000D03*
X175740000Y-97325000D03*
X175715000Y-98925000D03*
X171440000Y-103650000D03*
X169465000Y-101975000D03*
X168565000Y-103650000D03*
X168840000Y-121475000D03*
X171440000Y-121475000D03*
X171415000Y-102225000D03*
X159315000Y-103700000D03*
X173140000Y-99175000D03*
X173140000Y-97175000D03*
X177390000Y-97425000D03*
X180140000Y-97425000D03*
X182890000Y-97675000D03*
X174390000Y-93675000D03*
X181390000Y-103675000D03*
X178890000Y-103675000D03*
X176640000Y-103675000D03*
X181640000Y-121425000D03*
X179140000Y-121425000D03*
X176640000Y-121425000D03*
X182140000Y-99425000D03*
X179890000Y-98925000D03*
X177140000Y-98925000D03*
X162390000Y-98675000D03*
X165140000Y-98675000D03*
X150640000Y-87425000D03*
X150640000Y-85175000D03*
X143140000Y-82175000D03*
X143140000Y-85175000D03*
X172640000Y-98175000D03*
X175040000Y-98175000D03*
X135890000Y-103675000D03*
X153890000Y-103675000D03*
X133390000Y-103675000D03*
X148640000Y-103675000D03*
X113140000Y-103675000D03*
X166640000Y-103675000D03*
X161640000Y-103675000D03*
X118390000Y-103675000D03*
X130890000Y-103675000D03*
X151140000Y-103675000D03*
X128390000Y-103675000D03*
X123390000Y-103675000D03*
X143390000Y-103675000D03*
X108140000Y-103675000D03*
X138640000Y-103675000D03*
X146140000Y-103675000D03*
X110640000Y-103675000D03*
X156140000Y-103675000D03*
X120890000Y-103675000D03*
X141140000Y-103675000D03*
X164140000Y-103675000D03*
X125890000Y-103675000D03*
X115890000Y-103675000D03*
X141250000Y-91500000D03*
X143500000Y-121500000D03*
X184000000Y-106500000D03*
X184250000Y-121500000D03*
X166250000Y-121500000D03*
X138250000Y-121500000D03*
X158750000Y-121500000D03*
X163750000Y-121500000D03*
X159250000Y-113250000D03*
X128250000Y-121500000D03*
X117000000Y-91500000D03*
X161250000Y-121500000D03*
X120750000Y-121500000D03*
X156250000Y-121500000D03*
X117000000Y-88750000D03*
X135750000Y-121500000D03*
X108000000Y-121500000D03*
X113000000Y-121500000D03*
X148500000Y-121500000D03*
X123250000Y-121500000D03*
X141000000Y-121500000D03*
X153750000Y-121500000D03*
X118250000Y-121500000D03*
X146000000Y-121500000D03*
X131000000Y-121500000D03*
X147000000Y-88500000D03*
X161500000Y-94250000D03*
X133250000Y-121500000D03*
X110500000Y-121500000D03*
X115750000Y-121500000D03*
X151000000Y-121500000D03*
X125750000Y-121500000D03*
D17*
X139690000Y-100675000D02*
X139690000Y-97920000D01*
X140965000Y-94250000D02*
X141240000Y-93975000D01*
X139690000Y-97920000D02*
X140965000Y-96645000D01*
X140965000Y-96645000D02*
X140965000Y-94250000D01*
X109360000Y-95230000D02*
X109360000Y-94027919D01*
X109360000Y-94027919D02*
X115987919Y-87400000D01*
X115987919Y-87400000D02*
X143450000Y-87400000D01*
X143450000Y-87400000D02*
X144600000Y-86250000D01*
X172720000Y-126492000D02*
X172720000Y-105005000D01*
X172720000Y-105005000D02*
X174090000Y-103635000D01*
X174090000Y-103635000D02*
X174090000Y-95427636D01*
X174090000Y-95427636D02*
X173990000Y-95327636D01*
X171337364Y-92675000D02*
X112640000Y-92675000D01*
X112640000Y-92675000D02*
X110599280Y-94715720D01*
X110599280Y-94715720D02*
X110599280Y-96745720D01*
X173990000Y-95327636D02*
X171337364Y-92675000D01*
X110599280Y-96745720D02*
X106670000Y-100675000D01*
X185420000Y-106350000D02*
X185420000Y-126492000D01*
X181997364Y-98175000D02*
X184020720Y-100198356D01*
X184020720Y-104950720D02*
X185420000Y-106350000D01*
X175040000Y-98175000D02*
X181997364Y-98175000D01*
X184020720Y-100198356D02*
X184020720Y-104950720D01*
X147320000Y-123888500D02*
X158640000Y-112568500D01*
X158640000Y-112568500D02*
X158640000Y-100175000D01*
X168790000Y-102600000D02*
X169140000Y-102950000D01*
X158640000Y-100175000D02*
X160890000Y-97925000D01*
X147320000Y-126492000D02*
X147320000Y-123888500D01*
X169140000Y-102950000D02*
X172465000Y-102950000D01*
X172710000Y-102705000D02*
X172710000Y-100675000D01*
X160890000Y-97925000D02*
X166507364Y-97925000D01*
X166507364Y-97925000D02*
X168790000Y-100207636D01*
X168790000Y-100207636D02*
X168790000Y-102600000D01*
X172465000Y-102950000D02*
X172710000Y-102705000D01*
X182870000Y-95675000D02*
X179370000Y-92175000D01*
X140390000Y-90460000D02*
X144600000Y-86250000D01*
X179370000Y-92175000D02*
X140640000Y-92175000D01*
X140390000Y-91925000D02*
X140390000Y-90460000D01*
X140640000Y-92175000D02*
X140390000Y-91925000D01*
X172640000Y-98175000D02*
X172640000Y-98205000D01*
X172640000Y-98205000D02*
X170170000Y-100675000D01*
X185410000Y-100675000D02*
X184259280Y-99524280D01*
X184259280Y-99524280D02*
X184259280Y-93259280D01*
X184259280Y-93259280D02*
X182250000Y-91250000D01*
X182880000Y-126492000D02*
X182880000Y-100685000D01*
X182880000Y-100685000D02*
X182870000Y-100675000D01*
X180340000Y-126492000D02*
X180340000Y-100685000D01*
X180340000Y-100685000D02*
X180330000Y-100675000D01*
X175260000Y-126492000D02*
X175260000Y-100685000D01*
X175260000Y-100685000D02*
X175250000Y-100675000D01*
X167640000Y-126492000D02*
X167640000Y-100685000D01*
X167640000Y-100685000D02*
X167630000Y-100675000D01*
X165100000Y-126492000D02*
X165100000Y-100685000D01*
X165100000Y-100685000D02*
X165090000Y-100675000D01*
X162560000Y-126492000D02*
X162560000Y-100685000D01*
X162560000Y-100685000D02*
X162550000Y-100675000D01*
X160020000Y-126492000D02*
X160020000Y-100685000D01*
X160020000Y-100685000D02*
X160010000Y-100675000D01*
X132080000Y-126492000D02*
X132080000Y-100685000D01*
X132080000Y-100685000D02*
X132070000Y-100675000D01*
X129540000Y-126492000D02*
X129540000Y-100685000D01*
X129540000Y-100685000D02*
X129530000Y-100675000D01*
X127000000Y-126492000D02*
X127000000Y-100685000D01*
X127000000Y-100685000D02*
X126990000Y-100675000D01*
X124460000Y-126492000D02*
X124460000Y-100685000D01*
X124460000Y-100685000D02*
X124450000Y-100675000D01*
X121920000Y-126492000D02*
X121920000Y-100685000D01*
X121920000Y-100685000D02*
X121910000Y-100675000D01*
X119380000Y-126492000D02*
X119380000Y-100685000D01*
X119380000Y-100685000D02*
X119370000Y-100675000D01*
X116840000Y-126492000D02*
X116840000Y-100685000D01*
X116840000Y-100685000D02*
X116830000Y-100675000D01*
X114300000Y-126492000D02*
X114300000Y-100685000D01*
X114300000Y-100685000D02*
X114290000Y-100675000D01*
X119380000Y-100715000D02*
X119340000Y-100675000D01*
X116840000Y-100715000D02*
X116800000Y-100675000D01*
X114300000Y-100715000D02*
X114260000Y-100675000D01*
X122060000Y-126352000D02*
X121920000Y-126492000D01*
X119520000Y-126352000D02*
X119380000Y-126492000D01*
X116980000Y-126352000D02*
X116840000Y-126492000D01*
X162700000Y-126352000D02*
X162560000Y-126492000D01*
X124600000Y-126352000D02*
X124460000Y-126492000D01*
X165240000Y-126352000D02*
X165100000Y-126492000D01*
X160160000Y-126352000D02*
X160020000Y-126492000D01*
X167780000Y-126352000D02*
X167640000Y-126492000D01*
X129680000Y-126352000D02*
X129540000Y-126492000D01*
X180480000Y-126352000D02*
X180340000Y-126492000D01*
X183020000Y-126352000D02*
X182880000Y-126492000D01*
X175400000Y-126352000D02*
X175260000Y-126492000D01*
X127140000Y-126352000D02*
X127000000Y-126492000D01*
X132220000Y-126352000D02*
X132080000Y-126492000D01*
X146523149Y-85053040D02*
X148570771Y-85053040D01*
X149500720Y-84123091D02*
X149500720Y-83376909D01*
X149500720Y-83376909D02*
X148973091Y-82849280D01*
X145699280Y-85876909D02*
X146523149Y-85053040D01*
X147500720Y-82849280D02*
X146600000Y-83750000D01*
X141250000Y-91500000D02*
X145699280Y-87050720D01*
X148973091Y-82849280D02*
X147500720Y-82849280D01*
X145699280Y-87050720D02*
X145699280Y-85876909D01*
X148570771Y-85053040D02*
X149500720Y-84123091D01*
X182250000Y-91250000D02*
X151600000Y-91250000D01*
X151600000Y-91250000D02*
X146600000Y-86250000D01*
X148600000Y-83750000D02*
X147699280Y-84650720D01*
X147699280Y-84650720D02*
X146199280Y-84650720D01*
X146199280Y-84650720D02*
X144600000Y-86250000D01*
X114260000Y-126452000D02*
X114300000Y-126492000D01*
G04 #@! TA.AperFunction,Conductor*
G36*
X199732539Y-80120185D02*
G01*
X199778294Y-80172989D01*
X199789500Y-80224500D01*
X199789500Y-104525500D01*
X199769815Y-104592539D01*
X199717011Y-104638294D01*
X199665500Y-104649500D01*
X187940007Y-104649500D01*
X187903071Y-104664799D01*
X187874799Y-104693071D01*
X187859500Y-104730007D01*
X187859500Y-122626000D01*
X187839815Y-122693039D01*
X187787011Y-122738794D01*
X187735500Y-122750000D01*
X185844220Y-122750000D01*
X185777181Y-122730315D01*
X185731426Y-122677511D01*
X185720220Y-122626000D01*
X185720220Y-106407247D01*
X185720220Y-106389528D01*
X185720221Y-106389525D01*
X185720221Y-106310476D01*
X185699761Y-106234120D01*
X185699761Y-106234119D01*
X185660236Y-106165660D01*
X185604340Y-106109764D01*
X185604339Y-106109763D01*
X185600009Y-106105433D01*
X185599998Y-106105423D01*
X184357259Y-104862684D01*
X184323774Y-104801361D01*
X184320940Y-104775003D01*
X184320940Y-101341346D01*
X184340625Y-101274307D01*
X184393429Y-101228552D01*
X184462587Y-101218608D01*
X184526143Y-101247633D01*
X184548042Y-101272455D01*
X184595483Y-101343455D01*
X184595486Y-101343459D01*
X184741540Y-101489513D01*
X184741544Y-101489516D01*
X184913285Y-101604271D01*
X184913298Y-101604278D01*
X185104124Y-101683320D01*
X185104129Y-101683322D01*
X185306715Y-101723619D01*
X185306718Y-101723620D01*
X185306720Y-101723620D01*
X185513282Y-101723620D01*
X185513283Y-101723619D01*
X185715871Y-101683322D01*
X185906708Y-101604275D01*
X186078456Y-101489516D01*
X186224516Y-101343456D01*
X186339275Y-101171708D01*
X186418322Y-100980871D01*
X186458620Y-100778280D01*
X186458620Y-100571720D01*
X186458620Y-100571717D01*
X186458619Y-100571715D01*
X186418323Y-100369136D01*
X186418322Y-100369129D01*
X186367803Y-100247164D01*
X186339278Y-100178298D01*
X186339271Y-100178285D01*
X186224516Y-100006544D01*
X186224513Y-100006540D01*
X186078459Y-99860486D01*
X186078455Y-99860483D01*
X185906714Y-99745728D01*
X185906701Y-99745721D01*
X185715875Y-99666679D01*
X185715863Y-99666676D01*
X185513283Y-99626380D01*
X185513280Y-99626380D01*
X185306720Y-99626380D01*
X185306717Y-99626380D01*
X185104136Y-99666676D01*
X185104124Y-99666679D01*
X184984187Y-99716359D01*
X184914718Y-99723828D01*
X184852239Y-99692553D01*
X184849054Y-99689479D01*
X184595819Y-99436244D01*
X184562334Y-99374921D01*
X184559500Y-99348563D01*
X184559500Y-97988444D01*
X191596380Y-97988444D01*
X191596380Y-98291555D01*
X191630315Y-98592735D01*
X191630317Y-98592751D01*
X191697762Y-98888250D01*
X191697766Y-98888262D01*
X191797869Y-99174337D01*
X191797878Y-99174359D01*
X191929379Y-99447424D01*
X191950444Y-99480949D01*
X192090643Y-99704074D01*
X192214540Y-99859436D01*
X192274613Y-99934766D01*
X192279625Y-99941050D01*
X192493950Y-100155375D01*
X192730926Y-100344357D01*
X192987570Y-100505617D01*
X192987575Y-100505620D01*
X193260640Y-100637121D01*
X193260649Y-100637124D01*
X193260656Y-100637128D01*
X193260662Y-100637130D01*
X193546737Y-100737233D01*
X193546749Y-100737237D01*
X193842252Y-100804683D01*
X194143445Y-100838619D01*
X194143446Y-100838620D01*
X194143449Y-100838620D01*
X194446554Y-100838620D01*
X194446554Y-100838619D01*
X194747748Y-100804683D01*
X195043251Y-100737237D01*
X195329344Y-100637128D01*
X195465166Y-100571720D01*
X195602424Y-100505620D01*
X195602424Y-100505619D01*
X195602430Y-100505617D01*
X195859074Y-100344357D01*
X196096050Y-100155375D01*
X196310375Y-99941050D01*
X196499357Y-99704074D01*
X196660617Y-99447430D01*
X196674007Y-99419626D01*
X196792121Y-99174359D01*
X196792122Y-99174355D01*
X196792128Y-99174344D01*
X196892237Y-98888251D01*
X196959683Y-98592748D01*
X196993620Y-98291551D01*
X196993620Y-97988449D01*
X196959683Y-97687252D01*
X196892237Y-97391749D01*
X196792128Y-97105656D01*
X196792124Y-97105649D01*
X196792121Y-97105640D01*
X196660620Y-96832575D01*
X196634038Y-96790270D01*
X196499357Y-96575926D01*
X196310375Y-96338950D01*
X196096050Y-96124625D01*
X196047604Y-96085991D01*
X196017330Y-96061848D01*
X195859074Y-95935643D01*
X195656635Y-95808442D01*
X195602424Y-95774379D01*
X195329359Y-95642878D01*
X195329337Y-95642869D01*
X195043262Y-95542766D01*
X195043250Y-95542762D01*
X194747751Y-95475317D01*
X194747735Y-95475315D01*
X194446555Y-95441380D01*
X194446551Y-95441380D01*
X194143449Y-95441380D01*
X194143444Y-95441380D01*
X193842264Y-95475315D01*
X193842248Y-95475317D01*
X193546749Y-95542762D01*
X193546737Y-95542766D01*
X193260662Y-95642869D01*
X193260640Y-95642878D01*
X192987575Y-95774379D01*
X192730927Y-95935642D01*
X192493950Y-96124624D01*
X192279624Y-96338950D01*
X192090642Y-96575927D01*
X191929379Y-96832575D01*
X191797878Y-97105640D01*
X191797869Y-97105662D01*
X191697766Y-97391737D01*
X191697762Y-97391749D01*
X191630317Y-97687248D01*
X191630315Y-97687264D01*
X191596380Y-97988444D01*
X184559500Y-97988444D01*
X184559500Y-96959138D01*
X184579185Y-96892099D01*
X184631989Y-96846344D01*
X184701147Y-96836400D01*
X184739795Y-96848653D01*
X184891782Y-96926095D01*
X185093870Y-96991757D01*
X185303754Y-97025000D01*
X185516246Y-97025000D01*
X185726127Y-96991757D01*
X185726130Y-96991757D01*
X185928217Y-96926095D01*
X186117554Y-96829622D01*
X186171716Y-96790270D01*
X186171717Y-96790270D01*
X185539409Y-96157962D01*
X185602993Y-96140925D01*
X185717007Y-96075099D01*
X185810099Y-95982007D01*
X185875925Y-95867993D01*
X185892962Y-95804409D01*
X186525270Y-96436717D01*
X186525270Y-96436716D01*
X186564622Y-96382554D01*
X186661095Y-96193217D01*
X186726757Y-95991130D01*
X186726757Y-95991127D01*
X186760000Y-95781246D01*
X186760000Y-95568753D01*
X186726757Y-95358872D01*
X186726757Y-95358869D01*
X186661095Y-95156782D01*
X186564624Y-94967449D01*
X186525270Y-94913282D01*
X186525269Y-94913282D01*
X185892962Y-95545590D01*
X185875925Y-95482007D01*
X185810099Y-95367993D01*
X185717007Y-95274901D01*
X185602993Y-95209075D01*
X185539407Y-95192036D01*
X186171716Y-94559728D01*
X186117550Y-94520375D01*
X185928217Y-94423904D01*
X185726129Y-94358242D01*
X185516246Y-94325000D01*
X185303754Y-94325000D01*
X185093872Y-94358242D01*
X185093869Y-94358242D01*
X184891782Y-94423904D01*
X184739795Y-94501346D01*
X184671126Y-94514242D01*
X184606385Y-94487966D01*
X184566128Y-94430859D01*
X184559500Y-94390861D01*
X184559500Y-93308806D01*
X184559501Y-93308793D01*
X184559501Y-93219758D01*
X184559501Y-93219756D01*
X184539041Y-93143399D01*
X184499516Y-93074940D01*
X184443620Y-93019044D01*
X184443619Y-93019043D01*
X184439289Y-93014713D01*
X184439278Y-93014703D01*
X182497306Y-91072731D01*
X182497304Y-91072728D01*
X182434342Y-91009766D01*
X182434340Y-91009764D01*
X182365881Y-90970239D01*
X182289524Y-90949779D01*
X182210476Y-90949779D01*
X182202880Y-90949779D01*
X182202864Y-90949780D01*
X151775717Y-90949780D01*
X151708678Y-90930095D01*
X151688036Y-90913461D01*
X148321250Y-87546675D01*
X148287765Y-87485352D01*
X148292749Y-87415660D01*
X148334621Y-87359727D01*
X148400085Y-87335310D01*
X148428330Y-87336521D01*
X148513430Y-87350000D01*
X148686571Y-87350000D01*
X148857584Y-87322914D01*
X149022257Y-87269408D01*
X149176525Y-87190803D01*
X149182736Y-87186289D01*
X148596446Y-86600000D01*
X148646078Y-86600000D01*
X148735095Y-86576148D01*
X148814905Y-86530070D01*
X148880070Y-86464905D01*
X148926148Y-86385095D01*
X148950000Y-86296078D01*
X148950000Y-86249999D01*
X148953553Y-86249999D01*
X148953553Y-86250000D01*
X149536289Y-86832736D01*
X149540803Y-86826525D01*
X149619408Y-86672257D01*
X149672914Y-86507584D01*
X149700000Y-86336571D01*
X149700000Y-86163428D01*
X149672914Y-85992415D01*
X149619408Y-85827742D01*
X149540801Y-85673471D01*
X149536290Y-85667262D01*
X149536289Y-85667261D01*
X148953553Y-86249999D01*
X148950000Y-86249999D01*
X148950000Y-86203922D01*
X148926148Y-86114905D01*
X148880070Y-86035095D01*
X148814905Y-85969930D01*
X148735095Y-85923852D01*
X148646078Y-85900000D01*
X148553922Y-85900000D01*
X148464905Y-85923852D01*
X148385095Y-85969930D01*
X148319930Y-86035095D01*
X148273852Y-86114905D01*
X148250000Y-86203922D01*
X148250000Y-86253553D01*
X147663709Y-85667261D01*
X147663708Y-85667261D01*
X147659203Y-85673463D01*
X147659193Y-85673480D01*
X147580593Y-85827738D01*
X147556501Y-85901885D01*
X147517062Y-85959560D01*
X147452703Y-85986757D01*
X147383857Y-85974842D01*
X147332382Y-85927597D01*
X147324009Y-85911017D01*
X147307731Y-85871718D01*
X147307724Y-85871705D01*
X147220329Y-85740910D01*
X147220326Y-85740906D01*
X147109093Y-85629673D01*
X147109089Y-85629670D01*
X147035295Y-85580362D01*
X146990490Y-85526750D01*
X146981783Y-85457425D01*
X147011938Y-85394397D01*
X147071381Y-85357678D01*
X147104186Y-85353260D01*
X148005451Y-85353260D01*
X148072490Y-85372945D01*
X148093132Y-85389579D01*
X148600000Y-85896446D01*
X148600001Y-85896446D01*
X149182737Y-85313709D01*
X149176522Y-85309194D01*
X149038876Y-85239059D01*
X148988080Y-85191085D01*
X148971285Y-85123264D01*
X148993823Y-85057129D01*
X149007482Y-85040902D01*
X149169216Y-84879169D01*
X151656380Y-84879169D01*
X151656380Y-85120830D01*
X151656381Y-85120846D01*
X151687560Y-85357678D01*
X151687925Y-85360444D01*
X151736646Y-85542275D01*
X151750476Y-85593886D01*
X151750480Y-85593899D01*
X151842954Y-85817153D01*
X151842959Y-85817162D01*
X151963797Y-86026458D01*
X151963802Y-86026464D01*
X151963803Y-86026466D01*
X152110917Y-86218190D01*
X152110923Y-86218197D01*
X152281802Y-86389076D01*
X152281809Y-86389082D01*
X152418328Y-86493836D01*
X152473542Y-86536203D01*
X152682838Y-86657041D01*
X152682841Y-86657042D01*
X152682846Y-86657045D01*
X152906100Y-86749519D01*
X152906105Y-86749520D01*
X152906116Y-86749525D01*
X153139556Y-86812075D01*
X153379163Y-86843620D01*
X153379170Y-86843620D01*
X153620830Y-86843620D01*
X153620837Y-86843620D01*
X153860444Y-86812075D01*
X154093884Y-86749525D01*
X154093896Y-86749519D01*
X154093899Y-86749519D01*
X154317153Y-86657045D01*
X154317154Y-86657043D01*
X154317162Y-86657041D01*
X154526458Y-86536203D01*
X154718192Y-86389081D01*
X154889081Y-86218192D01*
X155036203Y-86026458D01*
X155157041Y-85817162D01*
X155188626Y-85740910D01*
X155249519Y-85593899D01*
X155249519Y-85593896D01*
X155249525Y-85593884D01*
X155312075Y-85360444D01*
X155343620Y-85120837D01*
X155343620Y-84879163D01*
X155312075Y-84639556D01*
X155249525Y-84406116D01*
X155249520Y-84406105D01*
X155249519Y-84406100D01*
X155157045Y-84182846D01*
X155157040Y-84182837D01*
X155150933Y-84172259D01*
X155036203Y-83973542D01*
X154889081Y-83781808D01*
X154889076Y-83781802D01*
X154718197Y-83610923D01*
X154718190Y-83610917D01*
X154526466Y-83463803D01*
X154526464Y-83463802D01*
X154526458Y-83463797D01*
X154317162Y-83342959D01*
X154317153Y-83342954D01*
X154093899Y-83250480D01*
X154093886Y-83250476D01*
X154093887Y-83250476D01*
X154093884Y-83250475D01*
X153860444Y-83187925D01*
X153860443Y-83187924D01*
X153860440Y-83187924D01*
X153620846Y-83156381D01*
X153620843Y-83156380D01*
X153620837Y-83156380D01*
X153379163Y-83156380D01*
X153379157Y-83156380D01*
X153379153Y-83156381D01*
X153139559Y-83187924D01*
X153122213Y-83192572D01*
X152906116Y-83250475D01*
X152906114Y-83250475D01*
X152906113Y-83250476D01*
X152906100Y-83250480D01*
X152682846Y-83342954D01*
X152682837Y-83342959D01*
X152473542Y-83463797D01*
X152473533Y-83463803D01*
X152281809Y-83610917D01*
X152281802Y-83610923D01*
X152110923Y-83781802D01*
X152110917Y-83781809D01*
X151963803Y-83973533D01*
X151963797Y-83973542D01*
X151842959Y-84182837D01*
X151842954Y-84182846D01*
X151750480Y-84406100D01*
X151750476Y-84406113D01*
X151750475Y-84406116D01*
X151720515Y-84517929D01*
X151687924Y-84639559D01*
X151656381Y-84879153D01*
X151656380Y-84879169D01*
X149169216Y-84879169D01*
X149740956Y-84307431D01*
X149780481Y-84238972D01*
X149800940Y-84162616D01*
X149800940Y-84083567D01*
X149800940Y-83426435D01*
X149800941Y-83426422D01*
X149800941Y-83337385D01*
X149793751Y-83310553D01*
X149780481Y-83261028D01*
X149768866Y-83240910D01*
X149740956Y-83192569D01*
X149685060Y-83136673D01*
X149685059Y-83136672D01*
X149680729Y-83132342D01*
X149680718Y-83132332D01*
X149220397Y-82672011D01*
X149220395Y-82672008D01*
X149157433Y-82609046D01*
X149157431Y-82609044D01*
X149088972Y-82569519D01*
X149012615Y-82549059D01*
X148933567Y-82549059D01*
X148925971Y-82549059D01*
X148925955Y-82549060D01*
X147461195Y-82549060D01*
X147384838Y-82569519D01*
X147384836Y-82569520D01*
X147316383Y-82609042D01*
X147316377Y-82609046D01*
X146969602Y-82955820D01*
X146908279Y-82989305D01*
X146838587Y-82984321D01*
X146834491Y-82982709D01*
X146832949Y-82982071D01*
X146832946Y-82982070D01*
X146832942Y-82982069D01*
X146678659Y-82951380D01*
X146678657Y-82951380D01*
X146521343Y-82951380D01*
X146521341Y-82951380D01*
X146367056Y-82982069D01*
X146367046Y-82982072D01*
X146221718Y-83042268D01*
X146221705Y-83042275D01*
X146090910Y-83129670D01*
X146090906Y-83129673D01*
X145979673Y-83240906D01*
X145979670Y-83240910D01*
X145892275Y-83371705D01*
X145892267Y-83371720D01*
X145875989Y-83411019D01*
X145832148Y-83465422D01*
X145765853Y-83487486D01*
X145698154Y-83470206D01*
X145650544Y-83419068D01*
X145643498Y-83401883D01*
X145619408Y-83327744D01*
X145540801Y-83173471D01*
X145536290Y-83167262D01*
X145536289Y-83167261D01*
X144953553Y-83749999D01*
X144953553Y-83750000D01*
X145536289Y-84332736D01*
X145540803Y-84326525D01*
X145619408Y-84172255D01*
X145643498Y-84098116D01*
X145682935Y-84040441D01*
X145747294Y-84013242D01*
X145816140Y-84025156D01*
X145867616Y-84072400D01*
X145875990Y-84088981D01*
X145892270Y-84128284D01*
X145892275Y-84128294D01*
X145966230Y-84238974D01*
X145979671Y-84259090D01*
X145985318Y-84264737D01*
X146018805Y-84326057D01*
X146013824Y-84395749D01*
X145985321Y-84440102D01*
X144969603Y-85455820D01*
X144908280Y-85489305D01*
X144838588Y-85484321D01*
X144834472Y-85482701D01*
X144832954Y-85482072D01*
X144832947Y-85482070D01*
X144678659Y-85451380D01*
X144678657Y-85451380D01*
X144521343Y-85451380D01*
X144521341Y-85451380D01*
X144367056Y-85482069D01*
X144367046Y-85482072D01*
X144221718Y-85542268D01*
X144221705Y-85542275D01*
X144090910Y-85629670D01*
X144090906Y-85629673D01*
X143979673Y-85740906D01*
X143979670Y-85740910D01*
X143892275Y-85871705D01*
X143892268Y-85871718D01*
X143832072Y-86017046D01*
X143832069Y-86017056D01*
X143801380Y-86171340D01*
X143801380Y-86171343D01*
X143801380Y-86328657D01*
X143801380Y-86328659D01*
X143801379Y-86328659D01*
X143832070Y-86482947D01*
X143832072Y-86482954D01*
X143832701Y-86484472D01*
X143832793Y-86485331D01*
X143833840Y-86488782D01*
X143833185Y-86488980D01*
X143840168Y-86553942D01*
X143808892Y-86616420D01*
X143805820Y-86619603D01*
X143361964Y-87063461D01*
X143300641Y-87096946D01*
X143274283Y-87099780D01*
X116035055Y-87099780D01*
X116035039Y-87099779D01*
X116027443Y-87099779D01*
X115948395Y-87099779D01*
X115872038Y-87120239D01*
X115872036Y-87120239D01*
X115872036Y-87120240D01*
X115803579Y-87159764D01*
X115803576Y-87159766D01*
X109119763Y-93843579D01*
X109113457Y-93854501D01*
X109110792Y-93859119D01*
X109080239Y-93912038D01*
X109059779Y-93988395D01*
X109059779Y-93988397D01*
X109059779Y-94077432D01*
X109059780Y-94077445D01*
X109059780Y-94533952D01*
X109040095Y-94600991D01*
X108987291Y-94646746D01*
X108959973Y-94655569D01*
X108904133Y-94666676D01*
X108904124Y-94666679D01*
X108713298Y-94745721D01*
X108713285Y-94745728D01*
X108541544Y-94860483D01*
X108541540Y-94860486D01*
X108395486Y-95006540D01*
X108395483Y-95006544D01*
X108280728Y-95178285D01*
X108280723Y-95178295D01*
X108211729Y-95344862D01*
X108167888Y-95399265D01*
X108101594Y-95421330D01*
X108033894Y-95404051D01*
X107986284Y-95352913D01*
X107979237Y-95335726D01*
X107921096Y-95156784D01*
X107824624Y-94967449D01*
X107785270Y-94913282D01*
X107785269Y-94913282D01*
X107152962Y-95545590D01*
X107135925Y-95482007D01*
X107070099Y-95367993D01*
X106977007Y-95274901D01*
X106862993Y-95209075D01*
X106799409Y-95192037D01*
X107431716Y-94559728D01*
X107377550Y-94520375D01*
X107188217Y-94423904D01*
X106986129Y-94358242D01*
X106776246Y-94325000D01*
X106563754Y-94325000D01*
X106353872Y-94358242D01*
X106353869Y-94358242D01*
X106151782Y-94423904D01*
X105962439Y-94520380D01*
X105908282Y-94559727D01*
X105908282Y-94559728D01*
X106540591Y-95192037D01*
X106477007Y-95209075D01*
X106362993Y-95274901D01*
X106269901Y-95367993D01*
X106204075Y-95482007D01*
X106187037Y-95545591D01*
X105554728Y-94913282D01*
X105554727Y-94913282D01*
X105515380Y-94967439D01*
X105418904Y-95156782D01*
X105353242Y-95358869D01*
X105353242Y-95358872D01*
X105320000Y-95568753D01*
X105320000Y-95781246D01*
X105353242Y-95991127D01*
X105353242Y-95991130D01*
X105418904Y-96193217D01*
X105515375Y-96382550D01*
X105554728Y-96436716D01*
X106187037Y-95804408D01*
X106204075Y-95867993D01*
X106269901Y-95982007D01*
X106362993Y-96075099D01*
X106477007Y-96140925D01*
X106540590Y-96157962D01*
X105908282Y-96790269D01*
X105908282Y-96790270D01*
X105962449Y-96829624D01*
X106151782Y-96926095D01*
X106353870Y-96991757D01*
X106563754Y-97025000D01*
X106776246Y-97025000D01*
X106986127Y-96991757D01*
X106986130Y-96991757D01*
X107188217Y-96926095D01*
X107377554Y-96829622D01*
X107431716Y-96790270D01*
X107431717Y-96790270D01*
X106799408Y-96157962D01*
X106862993Y-96140925D01*
X106977007Y-96075099D01*
X107070099Y-95982007D01*
X107135925Y-95867993D01*
X107152962Y-95804409D01*
X107785270Y-96436717D01*
X107785270Y-96436716D01*
X107824622Y-96382554D01*
X107921096Y-96193215D01*
X107979237Y-96014273D01*
X108018674Y-95956597D01*
X108083032Y-95929398D01*
X108151879Y-95941312D01*
X108203355Y-95988556D01*
X108211729Y-96005137D01*
X108280723Y-96171705D01*
X108280728Y-96171714D01*
X108395483Y-96343455D01*
X108395486Y-96343459D01*
X108541540Y-96489513D01*
X108541544Y-96489516D01*
X108713285Y-96604271D01*
X108713298Y-96604278D01*
X108904124Y-96683320D01*
X108904129Y-96683322D01*
X109106715Y-96723619D01*
X109106718Y-96723620D01*
X109106720Y-96723620D01*
X109313282Y-96723620D01*
X109313283Y-96723619D01*
X109515871Y-96683322D01*
X109706708Y-96604275D01*
X109878456Y-96489516D01*
X110024516Y-96343456D01*
X110071958Y-96272455D01*
X110125570Y-96227650D01*
X110194895Y-96218943D01*
X110257923Y-96249098D01*
X110294642Y-96308541D01*
X110299060Y-96341346D01*
X110299060Y-96570002D01*
X110279375Y-96637041D01*
X110262741Y-96657683D01*
X107330362Y-99590061D01*
X107269039Y-99623546D01*
X107242681Y-99626380D01*
X106015965Y-99626380D01*
X105985654Y-99629221D01*
X105858007Y-99673887D01*
X105749194Y-99754194D01*
X105668887Y-99863007D01*
X105624223Y-99990646D01*
X105624221Y-99990658D01*
X105621380Y-100020958D01*
X105621380Y-101329034D01*
X105624221Y-101359345D01*
X105665001Y-101475886D01*
X105668888Y-101486994D01*
X105671522Y-101490563D01*
X105749194Y-101595805D01*
X105760675Y-101604278D01*
X105858006Y-101676112D01*
X105896869Y-101689711D01*
X105985646Y-101720776D01*
X105985650Y-101720776D01*
X105985654Y-101720778D01*
X106015963Y-101723620D01*
X107324036Y-101723619D01*
X107354346Y-101720778D01*
X107481994Y-101676112D01*
X107590805Y-101595805D01*
X107671112Y-101486994D01*
X107715778Y-101359346D01*
X107718620Y-101329037D01*
X107718619Y-100571715D01*
X108161380Y-100571715D01*
X108161380Y-100778284D01*
X108201676Y-100980863D01*
X108201679Y-100980875D01*
X108280721Y-101171701D01*
X108280728Y-101171714D01*
X108395483Y-101343455D01*
X108395486Y-101343459D01*
X108541540Y-101489513D01*
X108541544Y-101489516D01*
X108713285Y-101604271D01*
X108713298Y-101604278D01*
X108904124Y-101683320D01*
X108904129Y-101683322D01*
X109106715Y-101723619D01*
X109106718Y-101723620D01*
X109106720Y-101723620D01*
X109313282Y-101723620D01*
X109313283Y-101723619D01*
X109515871Y-101683322D01*
X109706708Y-101604275D01*
X109878456Y-101489516D01*
X110024516Y-101343456D01*
X110139275Y-101171708D01*
X110218322Y-100980871D01*
X110258620Y-100778280D01*
X110258620Y-100571720D01*
X110258620Y-100571717D01*
X110258619Y-100571715D01*
X110701380Y-100571715D01*
X110701380Y-100778284D01*
X110741676Y-100980863D01*
X110741679Y-100980875D01*
X110820721Y-101171701D01*
X110820728Y-101171714D01*
X110935483Y-101343455D01*
X110935486Y-101343459D01*
X111081540Y-101489513D01*
X111081544Y-101489516D01*
X111253285Y-101604271D01*
X111253298Y-101604278D01*
X111444124Y-101683320D01*
X111444129Y-101683322D01*
X111646715Y-101723619D01*
X111646718Y-101723620D01*
X111646720Y-101723620D01*
X111853282Y-101723620D01*
X111853283Y-101723619D01*
X112055871Y-101683322D01*
X112246708Y-101604275D01*
X112418456Y-101489516D01*
X112564516Y-101343456D01*
X112679275Y-101171708D01*
X112758322Y-100980871D01*
X112798620Y-100778280D01*
X112798620Y-100571720D01*
X112798620Y-100571717D01*
X112798619Y-100571715D01*
X112758323Y-100369136D01*
X112758322Y-100369129D01*
X112707803Y-100247164D01*
X112679278Y-100178298D01*
X112679271Y-100178285D01*
X112564516Y-100006544D01*
X112564513Y-100006540D01*
X112418459Y-99860486D01*
X112418455Y-99860483D01*
X112246714Y-99745728D01*
X112246701Y-99745721D01*
X112055875Y-99666679D01*
X112055863Y-99666676D01*
X111853283Y-99626380D01*
X111853280Y-99626380D01*
X111646720Y-99626380D01*
X111646717Y-99626380D01*
X111444136Y-99666676D01*
X111444124Y-99666679D01*
X111253298Y-99745721D01*
X111253285Y-99745728D01*
X111081544Y-99860483D01*
X111081540Y-99860486D01*
X110935486Y-100006540D01*
X110935483Y-100006544D01*
X110820728Y-100178285D01*
X110820721Y-100178298D01*
X110741679Y-100369124D01*
X110741676Y-100369136D01*
X110701380Y-100571715D01*
X110258619Y-100571715D01*
X110218323Y-100369136D01*
X110218322Y-100369129D01*
X110167803Y-100247164D01*
X110139278Y-100178298D01*
X110139271Y-100178285D01*
X110024516Y-100006544D01*
X110024513Y-100006540D01*
X109878459Y-99860486D01*
X109878455Y-99860483D01*
X109706714Y-99745728D01*
X109706701Y-99745721D01*
X109515875Y-99666679D01*
X109515863Y-99666676D01*
X109313283Y-99626380D01*
X109313280Y-99626380D01*
X109106720Y-99626380D01*
X109106717Y-99626380D01*
X108904136Y-99666676D01*
X108904124Y-99666679D01*
X108713298Y-99745721D01*
X108713285Y-99745728D01*
X108541544Y-99860483D01*
X108541540Y-99860486D01*
X108395486Y-100006540D01*
X108395483Y-100006544D01*
X108280728Y-100178285D01*
X108280721Y-100178298D01*
X108201679Y-100369124D01*
X108201676Y-100369136D01*
X108161380Y-100571715D01*
X107718619Y-100571715D01*
X107718619Y-100102315D01*
X107738304Y-100035277D01*
X107754933Y-100014640D01*
X110773410Y-96996164D01*
X110773415Y-96996160D01*
X110783618Y-96985956D01*
X110783620Y-96985956D01*
X110839516Y-96930060D01*
X110879041Y-96861601D01*
X110887685Y-96829340D01*
X110899501Y-96785244D01*
X110899501Y-96706196D01*
X110899500Y-96706192D01*
X110899500Y-96599866D01*
X110919185Y-96532827D01*
X110971989Y-96487072D01*
X111041147Y-96477128D01*
X111092391Y-96496764D01*
X111253285Y-96604271D01*
X111253298Y-96604278D01*
X111444124Y-96683320D01*
X111444129Y-96683322D01*
X111646715Y-96723619D01*
X111646718Y-96723620D01*
X111646720Y-96723620D01*
X111853282Y-96723620D01*
X111853283Y-96723619D01*
X112055871Y-96683322D01*
X112246708Y-96604275D01*
X112418456Y-96489516D01*
X112564516Y-96343456D01*
X112679275Y-96171708D01*
X112758322Y-95980871D01*
X112798620Y-95778280D01*
X112798620Y-95571720D01*
X112798620Y-95571717D01*
X112798619Y-95571715D01*
X113241380Y-95571715D01*
X113241380Y-95778284D01*
X113281676Y-95980863D01*
X113281679Y-95980875D01*
X113360721Y-96171701D01*
X113360728Y-96171714D01*
X113475483Y-96343455D01*
X113475486Y-96343459D01*
X113621540Y-96489513D01*
X113621544Y-96489516D01*
X113793285Y-96604271D01*
X113793298Y-96604278D01*
X113984124Y-96683320D01*
X113984129Y-96683322D01*
X114186715Y-96723619D01*
X114186718Y-96723620D01*
X114186720Y-96723620D01*
X114393282Y-96723620D01*
X114393283Y-96723619D01*
X114595871Y-96683322D01*
X114786708Y-96604275D01*
X114958456Y-96489516D01*
X115104516Y-96343456D01*
X115219275Y-96171708D01*
X115298322Y-95980871D01*
X115338620Y-95778280D01*
X115338620Y-95571720D01*
X115338620Y-95571717D01*
X115338619Y-95571715D01*
X115781380Y-95571715D01*
X115781380Y-95778284D01*
X115821676Y-95980863D01*
X115821679Y-95980875D01*
X115900721Y-96171701D01*
X115900728Y-96171714D01*
X116015483Y-96343455D01*
X116015486Y-96343459D01*
X116161540Y-96489513D01*
X116161544Y-96489516D01*
X116333285Y-96604271D01*
X116333298Y-96604278D01*
X116524124Y-96683320D01*
X116524129Y-96683322D01*
X116726715Y-96723619D01*
X116726718Y-96723620D01*
X116726720Y-96723620D01*
X116933282Y-96723620D01*
X116933283Y-96723619D01*
X117135871Y-96683322D01*
X117326708Y-96604275D01*
X117498456Y-96489516D01*
X117644516Y-96343456D01*
X117759275Y-96171708D01*
X117838322Y-95980871D01*
X117878620Y-95778280D01*
X117878620Y-95571720D01*
X117878620Y-95571717D01*
X117878619Y-95571715D01*
X118321380Y-95571715D01*
X118321380Y-95778284D01*
X118361676Y-95980863D01*
X118361679Y-95980875D01*
X118440721Y-96171701D01*
X118440728Y-96171714D01*
X118555483Y-96343455D01*
X118555486Y-96343459D01*
X118701540Y-96489513D01*
X118701544Y-96489516D01*
X118873285Y-96604271D01*
X118873298Y-96604278D01*
X119064124Y-96683320D01*
X119064129Y-96683322D01*
X119266715Y-96723619D01*
X119266718Y-96723620D01*
X119266720Y-96723620D01*
X119473282Y-96723620D01*
X119473283Y-96723619D01*
X119675871Y-96683322D01*
X119866708Y-96604275D01*
X120038456Y-96489516D01*
X120184516Y-96343456D01*
X120299275Y-96171708D01*
X120378322Y-95980871D01*
X120418620Y-95778280D01*
X120418620Y-95571720D01*
X120418620Y-95571717D01*
X120418619Y-95571715D01*
X120861380Y-95571715D01*
X120861380Y-95778284D01*
X120901676Y-95980863D01*
X120901679Y-95980875D01*
X120980721Y-96171701D01*
X120980728Y-96171714D01*
X121095483Y-96343455D01*
X121095486Y-96343459D01*
X121241540Y-96489513D01*
X121241544Y-96489516D01*
X121413285Y-96604271D01*
X121413298Y-96604278D01*
X121604124Y-96683320D01*
X121604129Y-96683322D01*
X121806715Y-96723619D01*
X121806718Y-96723620D01*
X121806720Y-96723620D01*
X122013282Y-96723620D01*
X122013283Y-96723619D01*
X122215871Y-96683322D01*
X122406708Y-96604275D01*
X122578456Y-96489516D01*
X122724516Y-96343456D01*
X122839275Y-96171708D01*
X122918322Y-95980871D01*
X122958620Y-95778280D01*
X122958620Y-95571720D01*
X122958620Y-95571717D01*
X122958619Y-95571715D01*
X123401380Y-95571715D01*
X123401380Y-95778284D01*
X123441676Y-95980863D01*
X123441679Y-95980875D01*
X123520721Y-96171701D01*
X123520728Y-96171714D01*
X123635483Y-96343455D01*
X123635486Y-96343459D01*
X123781540Y-96489513D01*
X123781544Y-96489516D01*
X123953285Y-96604271D01*
X123953298Y-96604278D01*
X124144124Y-96683320D01*
X124144129Y-96683322D01*
X124346715Y-96723619D01*
X124346718Y-96723620D01*
X124346720Y-96723620D01*
X124553282Y-96723620D01*
X124553283Y-96723619D01*
X124755871Y-96683322D01*
X124946708Y-96604275D01*
X125118456Y-96489516D01*
X125264516Y-96343456D01*
X125379275Y-96171708D01*
X125458322Y-95980871D01*
X125498620Y-95778280D01*
X125498620Y-95571720D01*
X125498620Y-95571717D01*
X125498619Y-95571715D01*
X125941380Y-95571715D01*
X125941380Y-95778284D01*
X125981676Y-95980863D01*
X125981679Y-95980875D01*
X126060721Y-96171701D01*
X126060728Y-96171714D01*
X126175483Y-96343455D01*
X126175486Y-96343459D01*
X126321540Y-96489513D01*
X126321544Y-96489516D01*
X126493285Y-96604271D01*
X126493298Y-96604278D01*
X126684124Y-96683320D01*
X126684129Y-96683322D01*
X126886715Y-96723619D01*
X126886718Y-96723620D01*
X126886720Y-96723620D01*
X127093282Y-96723620D01*
X127093283Y-96723619D01*
X127295871Y-96683322D01*
X127486708Y-96604275D01*
X127658456Y-96489516D01*
X127804516Y-96343456D01*
X127919275Y-96171708D01*
X127998322Y-95980871D01*
X128038620Y-95778280D01*
X128038620Y-95571720D01*
X128038620Y-95571717D01*
X128038619Y-95571715D01*
X128481380Y-95571715D01*
X128481380Y-95778284D01*
X128521676Y-95980863D01*
X128521679Y-95980875D01*
X128600721Y-96171701D01*
X128600728Y-96171714D01*
X128715483Y-96343455D01*
X128715486Y-96343459D01*
X128861540Y-96489513D01*
X128861544Y-96489516D01*
X129033285Y-96604271D01*
X129033298Y-96604278D01*
X129224124Y-96683320D01*
X129224129Y-96683322D01*
X129426715Y-96723619D01*
X129426718Y-96723620D01*
X129426720Y-96723620D01*
X129633282Y-96723620D01*
X129633283Y-96723619D01*
X129835871Y-96683322D01*
X130026708Y-96604275D01*
X130198456Y-96489516D01*
X130344516Y-96343456D01*
X130459275Y-96171708D01*
X130538322Y-95980871D01*
X130578620Y-95778280D01*
X130578620Y-95571720D01*
X130578620Y-95571717D01*
X130578619Y-95571715D01*
X131021380Y-95571715D01*
X131021380Y-95778284D01*
X131061676Y-95980863D01*
X131061679Y-95980875D01*
X131140721Y-96171701D01*
X131140728Y-96171714D01*
X131255483Y-96343455D01*
X131255486Y-96343459D01*
X131401540Y-96489513D01*
X131401544Y-96489516D01*
X131573285Y-96604271D01*
X131573298Y-96604278D01*
X131764124Y-96683320D01*
X131764129Y-96683322D01*
X131966715Y-96723619D01*
X131966718Y-96723620D01*
X131966720Y-96723620D01*
X132173282Y-96723620D01*
X132173283Y-96723619D01*
X132375871Y-96683322D01*
X132566708Y-96604275D01*
X132738456Y-96489516D01*
X132884516Y-96343456D01*
X132999275Y-96171708D01*
X133078322Y-95980871D01*
X133118620Y-95778280D01*
X133118620Y-95571720D01*
X133118620Y-95571717D01*
X133118619Y-95571715D01*
X133561380Y-95571715D01*
X133561380Y-95778284D01*
X133601676Y-95980863D01*
X133601679Y-95980875D01*
X133680721Y-96171701D01*
X133680728Y-96171714D01*
X133795483Y-96343455D01*
X133795486Y-96343459D01*
X133941540Y-96489513D01*
X133941544Y-96489516D01*
X134113285Y-96604271D01*
X134113298Y-96604278D01*
X134304124Y-96683320D01*
X134304129Y-96683322D01*
X134506715Y-96723619D01*
X134506718Y-96723620D01*
X134506720Y-96723620D01*
X134713282Y-96723620D01*
X134713283Y-96723619D01*
X134915871Y-96683322D01*
X135106708Y-96604275D01*
X135278456Y-96489516D01*
X135424516Y-96343456D01*
X135539275Y-96171708D01*
X135618322Y-95980871D01*
X135658620Y-95778280D01*
X135658620Y-95571720D01*
X135658620Y-95571717D01*
X135658619Y-95571715D01*
X136101380Y-95571715D01*
X136101380Y-95778284D01*
X136141676Y-95980863D01*
X136141679Y-95980875D01*
X136220721Y-96171701D01*
X136220728Y-96171714D01*
X136335483Y-96343455D01*
X136335486Y-96343459D01*
X136481540Y-96489513D01*
X136481544Y-96489516D01*
X136653285Y-96604271D01*
X136653298Y-96604278D01*
X136844124Y-96683320D01*
X136844129Y-96683322D01*
X137046715Y-96723619D01*
X137046718Y-96723620D01*
X137046720Y-96723620D01*
X137253282Y-96723620D01*
X137253283Y-96723619D01*
X137455871Y-96683322D01*
X137646708Y-96604275D01*
X137818456Y-96489516D01*
X137964516Y-96343456D01*
X138079275Y-96171708D01*
X138158322Y-95980871D01*
X138198620Y-95778280D01*
X138198620Y-95571720D01*
X138198620Y-95571717D01*
X138198619Y-95571715D01*
X138641380Y-95571715D01*
X138641380Y-95778284D01*
X138681676Y-95980863D01*
X138681679Y-95980875D01*
X138760721Y-96171701D01*
X138760728Y-96171714D01*
X138875483Y-96343455D01*
X138875486Y-96343459D01*
X139021540Y-96489513D01*
X139021544Y-96489516D01*
X139193285Y-96604271D01*
X139193298Y-96604278D01*
X139384124Y-96683320D01*
X139384129Y-96683322D01*
X139586715Y-96723619D01*
X139586718Y-96723620D01*
X139586720Y-96723620D01*
X139793282Y-96723620D01*
X139793283Y-96723619D01*
X139995871Y-96683322D01*
X140186708Y-96604275D01*
X140328612Y-96509456D01*
X140395289Y-96488579D01*
X140462669Y-96507063D01*
X140509360Y-96559042D01*
X140520536Y-96628012D01*
X140492651Y-96692075D01*
X140485184Y-96700240D01*
X139449766Y-97735657D01*
X139449762Y-97735663D01*
X139423965Y-97780343D01*
X139423964Y-97780346D01*
X139412873Y-97799557D01*
X139410239Y-97804119D01*
X139389779Y-97880476D01*
X139389779Y-97959524D01*
X139389780Y-97959527D01*
X139389780Y-97980059D01*
X139389780Y-99581483D01*
X139370095Y-99648522D01*
X139317291Y-99694277D01*
X139313232Y-99696044D01*
X139193298Y-99745721D01*
X139193285Y-99745728D01*
X139021544Y-99860483D01*
X139021540Y-99860486D01*
X138875486Y-100006540D01*
X138875483Y-100006544D01*
X138760728Y-100178285D01*
X138760721Y-100178298D01*
X138681679Y-100369124D01*
X138681676Y-100369136D01*
X138641380Y-100571715D01*
X138641380Y-100778284D01*
X138681676Y-100980863D01*
X138681679Y-100980875D01*
X138760721Y-101171701D01*
X138760728Y-101171714D01*
X138875483Y-101343455D01*
X138875486Y-101343459D01*
X139021540Y-101489513D01*
X139021544Y-101489516D01*
X139193285Y-101604271D01*
X139193298Y-101604278D01*
X139384124Y-101683320D01*
X139384129Y-101683322D01*
X139586715Y-101723619D01*
X139586718Y-101723620D01*
X139586720Y-101723620D01*
X139793282Y-101723620D01*
X139793283Y-101723619D01*
X139995871Y-101683322D01*
X140186708Y-101604275D01*
X140358456Y-101489516D01*
X140504516Y-101343456D01*
X140619275Y-101171708D01*
X140698322Y-100980871D01*
X140738620Y-100778280D01*
X140738620Y-100571720D01*
X140738620Y-100571717D01*
X140738619Y-100571715D01*
X141181380Y-100571715D01*
X141181380Y-100778284D01*
X141221676Y-100980863D01*
X141221679Y-100980875D01*
X141300721Y-101171701D01*
X141300728Y-101171714D01*
X141415483Y-101343455D01*
X141415486Y-101343459D01*
X141561540Y-101489513D01*
X141561544Y-101489516D01*
X141733285Y-101604271D01*
X141733298Y-101604278D01*
X141924124Y-101683320D01*
X141924129Y-101683322D01*
X142126715Y-101723619D01*
X142126718Y-101723620D01*
X142126720Y-101723620D01*
X142333282Y-101723620D01*
X142333283Y-101723619D01*
X142535871Y-101683322D01*
X142726708Y-101604275D01*
X142898456Y-101489516D01*
X143044516Y-101343456D01*
X143159275Y-101171708D01*
X143238322Y-100980871D01*
X143278620Y-100778280D01*
X143278620Y-100571720D01*
X143278620Y-100571717D01*
X143278619Y-100571715D01*
X143721380Y-100571715D01*
X143721380Y-100778284D01*
X143761676Y-100980863D01*
X143761679Y-100980875D01*
X143840721Y-101171701D01*
X143840728Y-101171714D01*
X143955483Y-101343455D01*
X143955486Y-101343459D01*
X144101540Y-101489513D01*
X144101544Y-101489516D01*
X144273285Y-101604271D01*
X144273298Y-101604278D01*
X144464124Y-101683320D01*
X144464129Y-101683322D01*
X144666715Y-101723619D01*
X144666718Y-101723620D01*
X144666720Y-101723620D01*
X144873282Y-101723620D01*
X144873283Y-101723619D01*
X145075871Y-101683322D01*
X145266708Y-101604275D01*
X145438456Y-101489516D01*
X145584516Y-101343456D01*
X145699275Y-101171708D01*
X145778322Y-100980871D01*
X145818620Y-100778280D01*
X145818620Y-100571720D01*
X145818620Y-100571717D01*
X145818619Y-100571715D01*
X146261380Y-100571715D01*
X146261380Y-100778284D01*
X146301676Y-100980863D01*
X146301679Y-100980875D01*
X146380721Y-101171701D01*
X146380728Y-101171714D01*
X146495483Y-101343455D01*
X146495486Y-101343459D01*
X146641540Y-101489513D01*
X146641544Y-101489516D01*
X146813285Y-101604271D01*
X146813298Y-101604278D01*
X147004124Y-101683320D01*
X147004129Y-101683322D01*
X147206715Y-101723619D01*
X147206718Y-101723620D01*
X147206720Y-101723620D01*
X147413282Y-101723620D01*
X147413283Y-101723619D01*
X147615871Y-101683322D01*
X147806708Y-101604275D01*
X147978456Y-101489516D01*
X148124516Y-101343456D01*
X148239275Y-101171708D01*
X148318322Y-100980871D01*
X148358620Y-100778280D01*
X148358620Y-100571720D01*
X148358620Y-100571717D01*
X148358619Y-100571715D01*
X148801380Y-100571715D01*
X148801380Y-100778284D01*
X148841676Y-100980863D01*
X148841679Y-100980875D01*
X148920721Y-101171701D01*
X148920728Y-101171714D01*
X149035483Y-101343455D01*
X149035486Y-101343459D01*
X149181540Y-101489513D01*
X149181544Y-101489516D01*
X149353285Y-101604271D01*
X149353298Y-101604278D01*
X149544124Y-101683320D01*
X149544129Y-101683322D01*
X149746715Y-101723619D01*
X149746718Y-101723620D01*
X149746720Y-101723620D01*
X149953282Y-101723620D01*
X149953283Y-101723619D01*
X150155871Y-101683322D01*
X150346708Y-101604275D01*
X150518456Y-101489516D01*
X150664516Y-101343456D01*
X150779275Y-101171708D01*
X150858322Y-100980871D01*
X150898620Y-100778280D01*
X150898620Y-100571720D01*
X150898620Y-100571717D01*
X150898619Y-100571715D01*
X151341380Y-100571715D01*
X151341380Y-100778284D01*
X151381676Y-100980863D01*
X151381679Y-100980875D01*
X151460721Y-101171701D01*
X151460728Y-101171714D01*
X151575483Y-101343455D01*
X151575486Y-101343459D01*
X151721540Y-101489513D01*
X151721544Y-101489516D01*
X151893285Y-101604271D01*
X151893298Y-101604278D01*
X152084124Y-101683320D01*
X152084129Y-101683322D01*
X152286715Y-101723619D01*
X152286718Y-101723620D01*
X152286720Y-101723620D01*
X152493282Y-101723620D01*
X152493283Y-101723619D01*
X152695871Y-101683322D01*
X152886708Y-101604275D01*
X153058456Y-101489516D01*
X153204516Y-101343456D01*
X153319275Y-101171708D01*
X153398322Y-100980871D01*
X153438620Y-100778280D01*
X153438620Y-100571720D01*
X153438620Y-100571717D01*
X153438619Y-100571715D01*
X153881380Y-100571715D01*
X153881380Y-100778284D01*
X153921676Y-100980863D01*
X153921679Y-100980875D01*
X154000721Y-101171701D01*
X154000728Y-101171714D01*
X154115483Y-101343455D01*
X154115486Y-101343459D01*
X154261540Y-101489513D01*
X154261544Y-101489516D01*
X154433285Y-101604271D01*
X154433298Y-101604278D01*
X154624124Y-101683320D01*
X154624129Y-101683322D01*
X154826715Y-101723619D01*
X154826718Y-101723620D01*
X154826720Y-101723620D01*
X155033282Y-101723620D01*
X155033283Y-101723619D01*
X155235871Y-101683322D01*
X155426708Y-101604275D01*
X155598456Y-101489516D01*
X155744516Y-101343456D01*
X155859275Y-101171708D01*
X155938322Y-100980871D01*
X155978620Y-100778280D01*
X155978620Y-100571720D01*
X155978620Y-100571717D01*
X155978619Y-100571715D01*
X155938323Y-100369136D01*
X155938322Y-100369129D01*
X155887803Y-100247164D01*
X155859278Y-100178298D01*
X155859271Y-100178285D01*
X155744516Y-100006544D01*
X155744513Y-100006540D01*
X155598459Y-99860486D01*
X155598455Y-99860483D01*
X155426714Y-99745728D01*
X155426701Y-99745721D01*
X155235875Y-99666679D01*
X155235863Y-99666676D01*
X155033283Y-99626380D01*
X155033280Y-99626380D01*
X154826720Y-99626380D01*
X154826717Y-99626380D01*
X154624136Y-99666676D01*
X154624124Y-99666679D01*
X154433298Y-99745721D01*
X154433285Y-99745728D01*
X154261544Y-99860483D01*
X154261540Y-99860486D01*
X154115486Y-100006540D01*
X154115483Y-100006544D01*
X154000728Y-100178285D01*
X154000721Y-100178298D01*
X153921679Y-100369124D01*
X153921676Y-100369136D01*
X153881380Y-100571715D01*
X153438619Y-100571715D01*
X153398323Y-100369136D01*
X153398322Y-100369129D01*
X153347803Y-100247164D01*
X153319278Y-100178298D01*
X153319271Y-100178285D01*
X153204516Y-100006544D01*
X153204513Y-100006540D01*
X153058459Y-99860486D01*
X153058455Y-99860483D01*
X152886714Y-99745728D01*
X152886701Y-99745721D01*
X152695875Y-99666679D01*
X152695863Y-99666676D01*
X152493283Y-99626380D01*
X152493280Y-99626380D01*
X152286720Y-99626380D01*
X152286717Y-99626380D01*
X152084136Y-99666676D01*
X152084124Y-99666679D01*
X151893298Y-99745721D01*
X151893285Y-99745728D01*
X151721544Y-99860483D01*
X151721540Y-99860486D01*
X151575486Y-100006540D01*
X151575483Y-100006544D01*
X151460728Y-100178285D01*
X151460721Y-100178298D01*
X151381679Y-100369124D01*
X151381676Y-100369136D01*
X151341380Y-100571715D01*
X150898619Y-100571715D01*
X150858323Y-100369136D01*
X150858322Y-100369129D01*
X150807803Y-100247164D01*
X150779278Y-100178298D01*
X150779271Y-100178285D01*
X150664516Y-100006544D01*
X150664513Y-100006540D01*
X150518459Y-99860486D01*
X150518455Y-99860483D01*
X150346714Y-99745728D01*
X150346701Y-99745721D01*
X150155875Y-99666679D01*
X150155863Y-99666676D01*
X149953283Y-99626380D01*
X149953280Y-99626380D01*
X149746720Y-99626380D01*
X149746717Y-99626380D01*
X149544136Y-99666676D01*
X149544124Y-99666679D01*
X149353298Y-99745721D01*
X149353285Y-99745728D01*
X149181544Y-99860483D01*
X149181540Y-99860486D01*
X149035486Y-100006540D01*
X149035483Y-100006544D01*
X148920728Y-100178285D01*
X148920721Y-100178298D01*
X148841679Y-100369124D01*
X148841676Y-100369136D01*
X148801380Y-100571715D01*
X148358619Y-100571715D01*
X148318323Y-100369136D01*
X148318322Y-100369129D01*
X148267803Y-100247164D01*
X148239278Y-100178298D01*
X148239271Y-100178285D01*
X148124516Y-100006544D01*
X148124513Y-100006540D01*
X147978459Y-99860486D01*
X147978455Y-99860483D01*
X147806714Y-99745728D01*
X147806701Y-99745721D01*
X147615875Y-99666679D01*
X147615863Y-99666676D01*
X147413283Y-99626380D01*
X147413280Y-99626380D01*
X147206720Y-99626380D01*
X147206717Y-99626380D01*
X147004136Y-99666676D01*
X147004124Y-99666679D01*
X146813298Y-99745721D01*
X146813285Y-99745728D01*
X146641544Y-99860483D01*
X146641540Y-99860486D01*
X146495486Y-100006540D01*
X146495483Y-100006544D01*
X146380728Y-100178285D01*
X146380721Y-100178298D01*
X146301679Y-100369124D01*
X146301676Y-100369136D01*
X146261380Y-100571715D01*
X145818619Y-100571715D01*
X145778323Y-100369136D01*
X145778322Y-100369129D01*
X145727803Y-100247164D01*
X145699278Y-100178298D01*
X145699271Y-100178285D01*
X145584516Y-100006544D01*
X145584513Y-100006540D01*
X145438459Y-99860486D01*
X145438455Y-99860483D01*
X145266714Y-99745728D01*
X145266701Y-99745721D01*
X145075875Y-99666679D01*
X145075863Y-99666676D01*
X144873283Y-99626380D01*
X144873280Y-99626380D01*
X144666720Y-99626380D01*
X144666717Y-99626380D01*
X144464136Y-99666676D01*
X144464124Y-99666679D01*
X144273298Y-99745721D01*
X144273285Y-99745728D01*
X144101544Y-99860483D01*
X144101540Y-99860486D01*
X143955486Y-100006540D01*
X143955483Y-100006544D01*
X143840728Y-100178285D01*
X143840721Y-100178298D01*
X143761679Y-100369124D01*
X143761676Y-100369136D01*
X143721380Y-100571715D01*
X143278619Y-100571715D01*
X143238323Y-100369136D01*
X143238322Y-100369129D01*
X143187803Y-100247164D01*
X143159278Y-100178298D01*
X143159271Y-100178285D01*
X143044516Y-100006544D01*
X143044513Y-100006540D01*
X142898459Y-99860486D01*
X142898455Y-99860483D01*
X142726714Y-99745728D01*
X142726701Y-99745721D01*
X142535875Y-99666679D01*
X142535863Y-99666676D01*
X142333283Y-99626380D01*
X142333280Y-99626380D01*
X142126720Y-99626380D01*
X142126717Y-99626380D01*
X141924136Y-99666676D01*
X141924124Y-99666679D01*
X141733298Y-99745721D01*
X141733285Y-99745728D01*
X141561544Y-99860483D01*
X141561540Y-99860486D01*
X141415486Y-100006540D01*
X141415483Y-100006544D01*
X141300728Y-100178285D01*
X141300721Y-100178298D01*
X141221679Y-100369124D01*
X141221676Y-100369136D01*
X141181380Y-100571715D01*
X140738619Y-100571715D01*
X140698323Y-100369136D01*
X140698322Y-100369129D01*
X140647803Y-100247164D01*
X140619278Y-100178298D01*
X140619271Y-100178285D01*
X140504516Y-100006544D01*
X140504513Y-100006540D01*
X140358459Y-99860486D01*
X140358455Y-99860483D01*
X140186714Y-99745728D01*
X140186701Y-99745721D01*
X140066768Y-99696044D01*
X140012364Y-99652203D01*
X139990299Y-99585909D01*
X139990220Y-99581483D01*
X139990220Y-98095716D01*
X140009905Y-98028677D01*
X140026534Y-98008039D01*
X141139130Y-96895443D01*
X141139135Y-96895440D01*
X141149338Y-96885236D01*
X141149340Y-96885236D01*
X141205236Y-96829340D01*
X141244761Y-96760881D01*
X141265220Y-96684525D01*
X141265220Y-96492555D01*
X141284905Y-96425516D01*
X141337709Y-96379761D01*
X141406867Y-96369817D01*
X141470423Y-96398842D01*
X141476901Y-96404874D01*
X141561540Y-96489513D01*
X141561544Y-96489516D01*
X141733285Y-96604271D01*
X141733298Y-96604278D01*
X141924124Y-96683320D01*
X141924129Y-96683322D01*
X142126715Y-96723619D01*
X142126718Y-96723620D01*
X142126720Y-96723620D01*
X142333282Y-96723620D01*
X142333283Y-96723619D01*
X142535871Y-96683322D01*
X142726708Y-96604275D01*
X142898456Y-96489516D01*
X143044516Y-96343456D01*
X143159275Y-96171708D01*
X143238322Y-95980871D01*
X143278620Y-95778280D01*
X143278620Y-95571720D01*
X143278620Y-95571717D01*
X143278619Y-95571715D01*
X143721380Y-95571715D01*
X143721380Y-95778284D01*
X143761676Y-95980863D01*
X143761679Y-95980875D01*
X143840721Y-96171701D01*
X143840728Y-96171714D01*
X143955483Y-96343455D01*
X143955486Y-96343459D01*
X144101540Y-96489513D01*
X144101544Y-96489516D01*
X144273285Y-96604271D01*
X144273298Y-96604278D01*
X144464124Y-96683320D01*
X144464129Y-96683322D01*
X144666715Y-96723619D01*
X144666718Y-96723620D01*
X144666720Y-96723620D01*
X144873282Y-96723620D01*
X144873283Y-96723619D01*
X145075871Y-96683322D01*
X145266708Y-96604275D01*
X145438456Y-96489516D01*
X145584516Y-96343456D01*
X145699275Y-96171708D01*
X145778322Y-95980871D01*
X145818620Y-95778280D01*
X145818620Y-95571720D01*
X145818620Y-95571717D01*
X145818619Y-95571715D01*
X146261380Y-95571715D01*
X146261380Y-95778284D01*
X146301676Y-95980863D01*
X146301679Y-95980875D01*
X146380721Y-96171701D01*
X146380728Y-96171714D01*
X146495483Y-96343455D01*
X146495486Y-96343459D01*
X146641540Y-96489513D01*
X146641544Y-96489516D01*
X146813285Y-96604271D01*
X146813298Y-96604278D01*
X147004124Y-96683320D01*
X147004129Y-96683322D01*
X147206715Y-96723619D01*
X147206718Y-96723620D01*
X147206720Y-96723620D01*
X147413282Y-96723620D01*
X147413283Y-96723619D01*
X147615871Y-96683322D01*
X147806708Y-96604275D01*
X147978456Y-96489516D01*
X148124516Y-96343456D01*
X148239275Y-96171708D01*
X148308270Y-96005137D01*
X148352110Y-95950734D01*
X148418404Y-95928669D01*
X148486104Y-95945948D01*
X148533715Y-95997085D01*
X148540762Y-96014272D01*
X148598904Y-96193217D01*
X148695375Y-96382550D01*
X148734728Y-96436716D01*
X149367037Y-95804408D01*
X149384075Y-95867993D01*
X149449901Y-95982007D01*
X149542993Y-96075099D01*
X149657007Y-96140925D01*
X149720590Y-96157962D01*
X149088282Y-96790269D01*
X149088282Y-96790270D01*
X149142449Y-96829624D01*
X149331782Y-96926095D01*
X149533870Y-96991757D01*
X149743754Y-97025000D01*
X149956246Y-97025000D01*
X150166127Y-96991757D01*
X150166130Y-96991757D01*
X150368217Y-96926095D01*
X150557554Y-96829622D01*
X150611716Y-96790270D01*
X150611717Y-96790270D01*
X149979408Y-96157962D01*
X150042993Y-96140925D01*
X150157007Y-96075099D01*
X150250099Y-95982007D01*
X150315925Y-95867993D01*
X150332962Y-95804408D01*
X150965270Y-96436717D01*
X150965270Y-96436716D01*
X151004622Y-96382554D01*
X151101096Y-96193215D01*
X151159237Y-96014273D01*
X151198674Y-95956597D01*
X151263032Y-95929398D01*
X151331879Y-95941312D01*
X151383355Y-95988556D01*
X151391729Y-96005137D01*
X151460723Y-96171705D01*
X151460728Y-96171714D01*
X151575483Y-96343455D01*
X151575486Y-96343459D01*
X151721540Y-96489513D01*
X151721544Y-96489516D01*
X151893285Y-96604271D01*
X151893298Y-96604278D01*
X152084124Y-96683320D01*
X152084129Y-96683322D01*
X152286715Y-96723619D01*
X152286718Y-96723620D01*
X152286720Y-96723620D01*
X152493282Y-96723620D01*
X152493283Y-96723619D01*
X152695871Y-96683322D01*
X152886708Y-96604275D01*
X153058456Y-96489516D01*
X153204516Y-96343456D01*
X153319275Y-96171708D01*
X153398322Y-95980871D01*
X153438620Y-95778280D01*
X153438620Y-95571720D01*
X153438620Y-95571717D01*
X153438619Y-95571715D01*
X153881380Y-95571715D01*
X153881380Y-95778284D01*
X153921676Y-95980863D01*
X153921679Y-95980875D01*
X154000721Y-96171701D01*
X154000728Y-96171714D01*
X154115483Y-96343455D01*
X154115486Y-96343459D01*
X154261540Y-96489513D01*
X154261544Y-96489516D01*
X154433285Y-96604271D01*
X154433298Y-96604278D01*
X154624124Y-96683320D01*
X154624129Y-96683322D01*
X154826715Y-96723619D01*
X154826718Y-96723620D01*
X154826720Y-96723620D01*
X155033282Y-96723620D01*
X155033283Y-96723619D01*
X155235871Y-96683322D01*
X155426708Y-96604275D01*
X155598456Y-96489516D01*
X155744516Y-96343456D01*
X155859275Y-96171708D01*
X155938322Y-95980871D01*
X155978620Y-95778280D01*
X155978620Y-95571720D01*
X155978620Y-95571717D01*
X155978619Y-95571715D01*
X156421380Y-95571715D01*
X156421380Y-95778284D01*
X156461676Y-95980863D01*
X156461679Y-95980875D01*
X156540721Y-96171701D01*
X156540728Y-96171714D01*
X156655483Y-96343455D01*
X156655486Y-96343459D01*
X156801540Y-96489513D01*
X156801544Y-96489516D01*
X156973285Y-96604271D01*
X156973298Y-96604278D01*
X157164124Y-96683320D01*
X157164129Y-96683322D01*
X157366715Y-96723619D01*
X157366718Y-96723620D01*
X157366720Y-96723620D01*
X157573282Y-96723620D01*
X157573283Y-96723619D01*
X157775871Y-96683322D01*
X157966708Y-96604275D01*
X158138456Y-96489516D01*
X158284516Y-96343456D01*
X158399275Y-96171708D01*
X158478322Y-95980871D01*
X158518620Y-95778280D01*
X158518620Y-95571720D01*
X158518620Y-95571717D01*
X158518619Y-95571715D01*
X158961380Y-95571715D01*
X158961380Y-95778284D01*
X159001676Y-95980863D01*
X159001679Y-95980875D01*
X159080721Y-96171701D01*
X159080728Y-96171714D01*
X159195483Y-96343455D01*
X159195486Y-96343459D01*
X159341540Y-96489513D01*
X159341544Y-96489516D01*
X159513285Y-96604271D01*
X159513298Y-96604278D01*
X159704124Y-96683320D01*
X159704129Y-96683322D01*
X159906715Y-96723619D01*
X159906718Y-96723620D01*
X159906720Y-96723620D01*
X160113282Y-96723620D01*
X160113283Y-96723619D01*
X160315871Y-96683322D01*
X160506708Y-96604275D01*
X160678456Y-96489516D01*
X160824516Y-96343456D01*
X160939275Y-96171708D01*
X161018322Y-95980871D01*
X161058620Y-95778280D01*
X161058620Y-95571720D01*
X161058620Y-95571717D01*
X161058619Y-95571715D01*
X161501380Y-95571715D01*
X161501380Y-95778284D01*
X161541676Y-95980863D01*
X161541679Y-95980875D01*
X161620721Y-96171701D01*
X161620728Y-96171714D01*
X161735483Y-96343455D01*
X161735486Y-96343459D01*
X161881540Y-96489513D01*
X161881544Y-96489516D01*
X162053285Y-96604271D01*
X162053298Y-96604278D01*
X162244124Y-96683320D01*
X162244129Y-96683322D01*
X162446715Y-96723619D01*
X162446718Y-96723620D01*
X162446720Y-96723620D01*
X162653282Y-96723620D01*
X162653283Y-96723619D01*
X162855871Y-96683322D01*
X163046708Y-96604275D01*
X163218456Y-96489516D01*
X163364516Y-96343456D01*
X163479275Y-96171708D01*
X163558322Y-95980871D01*
X163598620Y-95778280D01*
X163598620Y-95571720D01*
X163598620Y-95571717D01*
X163598619Y-95571715D01*
X164041380Y-95571715D01*
X164041380Y-95778284D01*
X164081676Y-95980863D01*
X164081679Y-95980875D01*
X164160721Y-96171701D01*
X164160728Y-96171714D01*
X164275483Y-96343455D01*
X164275486Y-96343459D01*
X164421540Y-96489513D01*
X164421544Y-96489516D01*
X164593285Y-96604271D01*
X164593298Y-96604278D01*
X164784124Y-96683320D01*
X164784129Y-96683322D01*
X164986715Y-96723619D01*
X164986718Y-96723620D01*
X164986720Y-96723620D01*
X165193282Y-96723620D01*
X165193283Y-96723619D01*
X165395871Y-96683322D01*
X165586708Y-96604275D01*
X165758456Y-96489516D01*
X165904516Y-96343456D01*
X166019275Y-96171708D01*
X166098322Y-95980871D01*
X166138620Y-95778280D01*
X166138620Y-95571720D01*
X166138620Y-95571717D01*
X166138619Y-95571715D01*
X166581380Y-95571715D01*
X166581380Y-95778284D01*
X166621676Y-95980863D01*
X166621679Y-95980875D01*
X166700721Y-96171701D01*
X166700728Y-96171714D01*
X166815483Y-96343455D01*
X166815486Y-96343459D01*
X166961540Y-96489513D01*
X166961544Y-96489516D01*
X167133285Y-96604271D01*
X167133298Y-96604278D01*
X167324124Y-96683320D01*
X167324129Y-96683322D01*
X167526715Y-96723619D01*
X167526718Y-96723620D01*
X167526720Y-96723620D01*
X167733282Y-96723620D01*
X167733283Y-96723619D01*
X167935871Y-96683322D01*
X168126708Y-96604275D01*
X168298456Y-96489516D01*
X168444516Y-96343456D01*
X168559275Y-96171708D01*
X168638322Y-95980871D01*
X168678620Y-95778280D01*
X168678620Y-95571720D01*
X168678620Y-95571717D01*
X168678619Y-95571715D01*
X169121380Y-95571715D01*
X169121380Y-95778284D01*
X169161676Y-95980863D01*
X169161679Y-95980875D01*
X169240721Y-96171701D01*
X169240728Y-96171714D01*
X169355483Y-96343455D01*
X169355486Y-96343459D01*
X169501540Y-96489513D01*
X169501544Y-96489516D01*
X169673285Y-96604271D01*
X169673298Y-96604278D01*
X169864124Y-96683320D01*
X169864129Y-96683322D01*
X170066715Y-96723619D01*
X170066718Y-96723620D01*
X170066720Y-96723620D01*
X170273282Y-96723620D01*
X170273283Y-96723619D01*
X170475871Y-96683322D01*
X170666708Y-96604275D01*
X170838456Y-96489516D01*
X170984516Y-96343456D01*
X171099275Y-96171708D01*
X171178322Y-95980871D01*
X171218620Y-95778280D01*
X171218620Y-95571720D01*
X171218620Y-95571717D01*
X171218619Y-95571715D01*
X171200775Y-95482007D01*
X171178322Y-95369129D01*
X171178320Y-95369124D01*
X171099278Y-95178298D01*
X171099271Y-95178285D01*
X170984516Y-95006544D01*
X170984513Y-95006540D01*
X170838459Y-94860486D01*
X170838455Y-94860483D01*
X170666714Y-94745728D01*
X170666701Y-94745721D01*
X170475875Y-94666679D01*
X170475863Y-94666676D01*
X170273283Y-94626380D01*
X170273280Y-94626380D01*
X170066720Y-94626380D01*
X170066717Y-94626380D01*
X169864136Y-94666676D01*
X169864124Y-94666679D01*
X169673298Y-94745721D01*
X169673285Y-94745728D01*
X169501544Y-94860483D01*
X169501540Y-94860486D01*
X169355486Y-95006540D01*
X169355483Y-95006544D01*
X169240728Y-95178285D01*
X169240721Y-95178298D01*
X169161679Y-95369124D01*
X169161676Y-95369136D01*
X169121380Y-95571715D01*
X168678619Y-95571715D01*
X168660775Y-95482007D01*
X168638322Y-95369129D01*
X168638320Y-95369124D01*
X168559278Y-95178298D01*
X168559271Y-95178285D01*
X168444516Y-95006544D01*
X168444513Y-95006540D01*
X168298459Y-94860486D01*
X168298455Y-94860483D01*
X168126714Y-94745728D01*
X168126701Y-94745721D01*
X167935875Y-94666679D01*
X167935863Y-94666676D01*
X167733283Y-94626380D01*
X167733280Y-94626380D01*
X167526720Y-94626380D01*
X167526717Y-94626380D01*
X167324136Y-94666676D01*
X167324124Y-94666679D01*
X167133298Y-94745721D01*
X167133285Y-94745728D01*
X166961544Y-94860483D01*
X166961540Y-94860486D01*
X166815486Y-95006540D01*
X166815483Y-95006544D01*
X166700728Y-95178285D01*
X166700721Y-95178298D01*
X166621679Y-95369124D01*
X166621676Y-95369136D01*
X166581380Y-95571715D01*
X166138619Y-95571715D01*
X166120775Y-95482007D01*
X166098322Y-95369129D01*
X166098320Y-95369124D01*
X166019278Y-95178298D01*
X166019271Y-95178285D01*
X165904516Y-95006544D01*
X165904513Y-95006540D01*
X165758459Y-94860486D01*
X165758455Y-94860483D01*
X165586714Y-94745728D01*
X165586701Y-94745721D01*
X165395875Y-94666679D01*
X165395863Y-94666676D01*
X165193283Y-94626380D01*
X165193280Y-94626380D01*
X164986720Y-94626380D01*
X164986717Y-94626380D01*
X164784136Y-94666676D01*
X164784124Y-94666679D01*
X164593298Y-94745721D01*
X164593285Y-94745728D01*
X164421544Y-94860483D01*
X164421540Y-94860486D01*
X164275486Y-95006540D01*
X164275483Y-95006544D01*
X164160728Y-95178285D01*
X164160721Y-95178298D01*
X164081679Y-95369124D01*
X164081676Y-95369136D01*
X164041380Y-95571715D01*
X163598619Y-95571715D01*
X163580775Y-95482007D01*
X163558322Y-95369129D01*
X163558320Y-95369124D01*
X163479278Y-95178298D01*
X163479271Y-95178285D01*
X163364516Y-95006544D01*
X163364513Y-95006540D01*
X163218459Y-94860486D01*
X163218455Y-94860483D01*
X163046714Y-94745728D01*
X163046701Y-94745721D01*
X162855875Y-94666679D01*
X162855863Y-94666676D01*
X162653283Y-94626380D01*
X162653280Y-94626380D01*
X162446720Y-94626380D01*
X162446717Y-94626380D01*
X162244136Y-94666676D01*
X162244124Y-94666679D01*
X162053298Y-94745721D01*
X162053285Y-94745728D01*
X161881544Y-94860483D01*
X161881540Y-94860486D01*
X161735486Y-95006540D01*
X161735483Y-95006544D01*
X161620728Y-95178285D01*
X161620721Y-95178298D01*
X161541679Y-95369124D01*
X161541676Y-95369136D01*
X161501380Y-95571715D01*
X161058619Y-95571715D01*
X161040775Y-95482007D01*
X161018322Y-95369129D01*
X161018320Y-95369124D01*
X160939278Y-95178298D01*
X160939271Y-95178285D01*
X160824516Y-95006544D01*
X160824513Y-95006540D01*
X160678459Y-94860486D01*
X160678455Y-94860483D01*
X160506714Y-94745728D01*
X160506701Y-94745721D01*
X160315875Y-94666679D01*
X160315863Y-94666676D01*
X160113283Y-94626380D01*
X160113280Y-94626380D01*
X159906720Y-94626380D01*
X159906717Y-94626380D01*
X159704136Y-94666676D01*
X159704124Y-94666679D01*
X159513298Y-94745721D01*
X159513285Y-94745728D01*
X159341544Y-94860483D01*
X159341540Y-94860486D01*
X159195486Y-95006540D01*
X159195483Y-95006544D01*
X159080728Y-95178285D01*
X159080721Y-95178298D01*
X159001679Y-95369124D01*
X159001676Y-95369136D01*
X158961380Y-95571715D01*
X158518619Y-95571715D01*
X158500775Y-95482007D01*
X158478322Y-95369129D01*
X158478320Y-95369124D01*
X158399278Y-95178298D01*
X158399271Y-95178285D01*
X158284516Y-95006544D01*
X158284513Y-95006540D01*
X158138459Y-94860486D01*
X158138455Y-94860483D01*
X157966714Y-94745728D01*
X157966701Y-94745721D01*
X157775875Y-94666679D01*
X157775863Y-94666676D01*
X157573283Y-94626380D01*
X157573280Y-94626380D01*
X157366720Y-94626380D01*
X157366717Y-94626380D01*
X157164136Y-94666676D01*
X157164124Y-94666679D01*
X156973298Y-94745721D01*
X156973285Y-94745728D01*
X156801544Y-94860483D01*
X156801540Y-94860486D01*
X156655486Y-95006540D01*
X156655483Y-95006544D01*
X156540728Y-95178285D01*
X156540721Y-95178298D01*
X156461679Y-95369124D01*
X156461676Y-95369136D01*
X156421380Y-95571715D01*
X155978619Y-95571715D01*
X155960775Y-95482007D01*
X155938322Y-95369129D01*
X155938320Y-95369124D01*
X155859278Y-95178298D01*
X155859271Y-95178285D01*
X155744516Y-95006544D01*
X155744513Y-95006540D01*
X155598459Y-94860486D01*
X155598455Y-94860483D01*
X155426714Y-94745728D01*
X155426701Y-94745721D01*
X155235875Y-94666679D01*
X155235863Y-94666676D01*
X155033283Y-94626380D01*
X155033280Y-94626380D01*
X154826720Y-94626380D01*
X154826717Y-94626380D01*
X154624136Y-94666676D01*
X154624124Y-94666679D01*
X154433298Y-94745721D01*
X154433285Y-94745728D01*
X154261544Y-94860483D01*
X154261540Y-94860486D01*
X154115486Y-95006540D01*
X154115483Y-95006544D01*
X154000728Y-95178285D01*
X154000721Y-95178298D01*
X153921679Y-95369124D01*
X153921676Y-95369136D01*
X153881380Y-95571715D01*
X153438619Y-95571715D01*
X153420775Y-95482007D01*
X153398322Y-95369129D01*
X153398320Y-95369124D01*
X153319278Y-95178298D01*
X153319271Y-95178285D01*
X153204516Y-95006544D01*
X153204513Y-95006540D01*
X153058459Y-94860486D01*
X153058455Y-94860483D01*
X152886714Y-94745728D01*
X152886701Y-94745721D01*
X152695875Y-94666679D01*
X152695863Y-94666676D01*
X152493283Y-94626380D01*
X152493280Y-94626380D01*
X152286720Y-94626380D01*
X152286717Y-94626380D01*
X152084136Y-94666676D01*
X152084124Y-94666679D01*
X151893298Y-94745721D01*
X151893285Y-94745728D01*
X151721544Y-94860483D01*
X151721540Y-94860486D01*
X151575486Y-95006540D01*
X151575483Y-95006544D01*
X151460728Y-95178285D01*
X151460723Y-95178295D01*
X151391729Y-95344862D01*
X151347888Y-95399265D01*
X151281594Y-95421330D01*
X151213894Y-95404051D01*
X151166284Y-95352913D01*
X151159237Y-95335726D01*
X151101096Y-95156784D01*
X151004624Y-94967449D01*
X150965270Y-94913282D01*
X150965269Y-94913282D01*
X150332962Y-95545590D01*
X150315925Y-95482007D01*
X150250099Y-95367993D01*
X150157007Y-95274901D01*
X150042993Y-95209075D01*
X149979409Y-95192037D01*
X150611716Y-94559728D01*
X150557550Y-94520375D01*
X150368217Y-94423904D01*
X150166129Y-94358242D01*
X149956246Y-94325000D01*
X149743754Y-94325000D01*
X149533872Y-94358242D01*
X149533869Y-94358242D01*
X149331782Y-94423904D01*
X149142439Y-94520380D01*
X149088282Y-94559727D01*
X149088282Y-94559728D01*
X149720591Y-95192037D01*
X149657007Y-95209075D01*
X149542993Y-95274901D01*
X149449901Y-95367993D01*
X149384075Y-95482007D01*
X149367037Y-95545591D01*
X148734728Y-94913282D01*
X148734727Y-94913282D01*
X148695380Y-94967439D01*
X148598904Y-95156783D01*
X148540762Y-95335727D01*
X148501325Y-95393403D01*
X148436966Y-95420601D01*
X148368120Y-95408686D01*
X148316644Y-95361442D01*
X148308270Y-95344861D01*
X148239278Y-95178298D01*
X148239271Y-95178285D01*
X148124516Y-95006544D01*
X148124513Y-95006540D01*
X147978459Y-94860486D01*
X147978455Y-94860483D01*
X147806714Y-94745728D01*
X147806705Y-94745723D01*
X147748340Y-94721548D01*
X147748338Y-94721547D01*
X147615875Y-94666679D01*
X147615863Y-94666676D01*
X147413283Y-94626380D01*
X147413280Y-94626380D01*
X147206720Y-94626380D01*
X147206717Y-94626380D01*
X147004136Y-94666676D01*
X147004124Y-94666679D01*
X146813298Y-94745721D01*
X146813285Y-94745728D01*
X146641544Y-94860483D01*
X146641540Y-94860486D01*
X146495486Y-95006540D01*
X146495483Y-95006544D01*
X146380728Y-95178285D01*
X146380721Y-95178298D01*
X146301679Y-95369124D01*
X146301676Y-95369136D01*
X146261380Y-95571715D01*
X145818619Y-95571715D01*
X145800775Y-95482007D01*
X145778322Y-95369129D01*
X145778320Y-95369124D01*
X145699278Y-95178298D01*
X145699271Y-95178285D01*
X145584516Y-95006544D01*
X145584513Y-95006540D01*
X145438459Y-94860486D01*
X145438455Y-94860483D01*
X145266714Y-94745728D01*
X145266701Y-94745721D01*
X145075875Y-94666679D01*
X145075863Y-94666676D01*
X144873283Y-94626380D01*
X144873280Y-94626380D01*
X144666720Y-94626380D01*
X144666717Y-94626380D01*
X144464136Y-94666676D01*
X144464124Y-94666679D01*
X144273298Y-94745721D01*
X144273285Y-94745728D01*
X144101544Y-94860483D01*
X144101540Y-94860486D01*
X143955486Y-95006540D01*
X143955483Y-95006544D01*
X143840728Y-95178285D01*
X143840721Y-95178298D01*
X143761679Y-95369124D01*
X143761676Y-95369136D01*
X143721380Y-95571715D01*
X143278619Y-95571715D01*
X143260775Y-95482007D01*
X143238322Y-95369129D01*
X143238320Y-95369124D01*
X143159278Y-95178298D01*
X143159271Y-95178285D01*
X143044516Y-95006544D01*
X143044513Y-95006540D01*
X142898459Y-94860486D01*
X142898455Y-94860483D01*
X142726714Y-94745728D01*
X142726701Y-94745721D01*
X142535875Y-94666679D01*
X142535863Y-94666676D01*
X142333283Y-94626380D01*
X142333280Y-94626380D01*
X142126720Y-94626380D01*
X142126717Y-94626380D01*
X141924136Y-94666676D01*
X141924124Y-94666679D01*
X141733298Y-94745721D01*
X141733285Y-94745728D01*
X141561544Y-94860483D01*
X141561540Y-94860486D01*
X141476901Y-94945126D01*
X141457464Y-94955738D01*
X141440731Y-94970239D01*
X141427399Y-94972155D01*
X141415578Y-94978611D01*
X141393491Y-94977031D01*
X141371573Y-94980183D01*
X141359321Y-94974587D01*
X141345886Y-94973627D01*
X141328159Y-94960356D01*
X141308017Y-94951158D01*
X141300734Y-94939826D01*
X141289953Y-94931755D01*
X141282215Y-94911009D01*
X141270243Y-94892380D01*
X141267091Y-94870461D01*
X141265536Y-94866291D01*
X141265220Y-94857445D01*
X141265220Y-94637161D01*
X141284905Y-94570122D01*
X141337709Y-94524367D01*
X141357119Y-94517388D01*
X141453921Y-94491451D01*
X141580299Y-94418486D01*
X141683486Y-94315299D01*
X141756451Y-94188921D01*
X141794220Y-94047964D01*
X141794220Y-93902036D01*
X141756451Y-93761079D01*
X141683486Y-93634701D01*
X141580299Y-93531514D01*
X141517110Y-93495031D01*
X141453922Y-93458549D01*
X141366023Y-93434997D01*
X141312964Y-93420780D01*
X141167036Y-93420780D01*
X141026077Y-93458549D01*
X140899701Y-93531514D01*
X140899698Y-93531516D01*
X140796516Y-93634698D01*
X140796514Y-93634701D01*
X140723549Y-93761077D01*
X140685780Y-93902036D01*
X140685780Y-94047963D01*
X140685781Y-94047971D01*
X140688690Y-94058829D01*
X140691802Y-94107494D01*
X140689117Y-94127401D01*
X140687320Y-94130514D01*
X140685239Y-94134119D01*
X140664779Y-94210476D01*
X140664779Y-94289524D01*
X140664780Y-94289527D01*
X140664780Y-94307847D01*
X140664780Y-94867445D01*
X140645095Y-94934484D01*
X140592291Y-94980239D01*
X140523133Y-94990183D01*
X140459577Y-94961158D01*
X140453099Y-94955126D01*
X140358459Y-94860486D01*
X140358455Y-94860483D01*
X140186714Y-94745728D01*
X140186701Y-94745721D01*
X139995875Y-94666679D01*
X139995863Y-94666676D01*
X139793283Y-94626380D01*
X139793280Y-94626380D01*
X139586720Y-94626380D01*
X139586717Y-94626380D01*
X139384136Y-94666676D01*
X139384124Y-94666679D01*
X139193298Y-94745721D01*
X139193285Y-94745728D01*
X139021544Y-94860483D01*
X139021540Y-94860486D01*
X138875486Y-95006540D01*
X138875483Y-95006544D01*
X138760728Y-95178285D01*
X138760721Y-95178298D01*
X138681679Y-95369124D01*
X138681676Y-95369136D01*
X138641380Y-95571715D01*
X138198619Y-95571715D01*
X138180775Y-95482007D01*
X138158322Y-95369129D01*
X138158320Y-95369124D01*
X138079278Y-95178298D01*
X138079271Y-95178285D01*
X137964516Y-95006544D01*
X137964513Y-95006540D01*
X137818459Y-94860486D01*
X137818455Y-94860483D01*
X137646714Y-94745728D01*
X137646701Y-94745721D01*
X137455875Y-94666679D01*
X137455863Y-94666676D01*
X137253283Y-94626380D01*
X137253280Y-94626380D01*
X137046720Y-94626380D01*
X137046717Y-94626380D01*
X136844136Y-94666676D01*
X136844124Y-94666679D01*
X136653298Y-94745721D01*
X136653285Y-94745728D01*
X136481544Y-94860483D01*
X136481540Y-94860486D01*
X136335486Y-95006540D01*
X136335483Y-95006544D01*
X136220728Y-95178285D01*
X136220721Y-95178298D01*
X136141679Y-95369124D01*
X136141676Y-95369136D01*
X136101380Y-95571715D01*
X135658619Y-95571715D01*
X135640775Y-95482007D01*
X135618322Y-95369129D01*
X135618320Y-95369124D01*
X135539278Y-95178298D01*
X135539271Y-95178285D01*
X135424516Y-95006544D01*
X135424513Y-95006540D01*
X135278459Y-94860486D01*
X135278455Y-94860483D01*
X135106714Y-94745728D01*
X135106701Y-94745721D01*
X134915875Y-94666679D01*
X134915863Y-94666676D01*
X134713283Y-94626380D01*
X134713280Y-94626380D01*
X134506720Y-94626380D01*
X134506717Y-94626380D01*
X134304136Y-94666676D01*
X134304124Y-94666679D01*
X134113298Y-94745721D01*
X134113285Y-94745728D01*
X133941544Y-94860483D01*
X133941540Y-94860486D01*
X133795486Y-95006540D01*
X133795483Y-95006544D01*
X133680728Y-95178285D01*
X133680721Y-95178298D01*
X133601679Y-95369124D01*
X133601676Y-95369136D01*
X133561380Y-95571715D01*
X133118619Y-95571715D01*
X133100775Y-95482007D01*
X133078322Y-95369129D01*
X133078320Y-95369124D01*
X132999278Y-95178298D01*
X132999271Y-95178285D01*
X132884516Y-95006544D01*
X132884513Y-95006540D01*
X132738459Y-94860486D01*
X132738455Y-94860483D01*
X132566714Y-94745728D01*
X132566701Y-94745721D01*
X132375875Y-94666679D01*
X132375863Y-94666676D01*
X132173283Y-94626380D01*
X132173280Y-94626380D01*
X131966720Y-94626380D01*
X131966717Y-94626380D01*
X131764136Y-94666676D01*
X131764124Y-94666679D01*
X131573298Y-94745721D01*
X131573285Y-94745728D01*
X131401544Y-94860483D01*
X131401540Y-94860486D01*
X131255486Y-95006540D01*
X131255483Y-95006544D01*
X131140728Y-95178285D01*
X131140721Y-95178298D01*
X131061679Y-95369124D01*
X131061676Y-95369136D01*
X131021380Y-95571715D01*
X130578619Y-95571715D01*
X130560775Y-95482007D01*
X130538322Y-95369129D01*
X130538320Y-95369124D01*
X130459278Y-95178298D01*
X130459271Y-95178285D01*
X130344516Y-95006544D01*
X130344513Y-95006540D01*
X130198459Y-94860486D01*
X130198455Y-94860483D01*
X130026714Y-94745728D01*
X130026701Y-94745721D01*
X129835875Y-94666679D01*
X129835863Y-94666676D01*
X129633283Y-94626380D01*
X129633280Y-94626380D01*
X129426720Y-94626380D01*
X129426717Y-94626380D01*
X129224136Y-94666676D01*
X129224124Y-94666679D01*
X129033298Y-94745721D01*
X129033285Y-94745728D01*
X128861544Y-94860483D01*
X128861540Y-94860486D01*
X128715486Y-95006540D01*
X128715483Y-95006544D01*
X128600728Y-95178285D01*
X128600721Y-95178298D01*
X128521679Y-95369124D01*
X128521676Y-95369136D01*
X128481380Y-95571715D01*
X128038619Y-95571715D01*
X128020775Y-95482007D01*
X127998322Y-95369129D01*
X127998320Y-95369124D01*
X127919278Y-95178298D01*
X127919271Y-95178285D01*
X127804516Y-95006544D01*
X127804513Y-95006540D01*
X127658459Y-94860486D01*
X127658455Y-94860483D01*
X127486714Y-94745728D01*
X127486701Y-94745721D01*
X127295875Y-94666679D01*
X127295863Y-94666676D01*
X127093283Y-94626380D01*
X127093280Y-94626380D01*
X126886720Y-94626380D01*
X126886717Y-94626380D01*
X126684136Y-94666676D01*
X126684124Y-94666679D01*
X126493298Y-94745721D01*
X126493285Y-94745728D01*
X126321544Y-94860483D01*
X126321540Y-94860486D01*
X126175486Y-95006540D01*
X126175483Y-95006544D01*
X126060728Y-95178285D01*
X126060721Y-95178298D01*
X125981679Y-95369124D01*
X125981676Y-95369136D01*
X125941380Y-95571715D01*
X125498619Y-95571715D01*
X125480775Y-95482007D01*
X125458322Y-95369129D01*
X125458320Y-95369124D01*
X125379278Y-95178298D01*
X125379271Y-95178285D01*
X125264516Y-95006544D01*
X125264513Y-95006540D01*
X125118459Y-94860486D01*
X125118455Y-94860483D01*
X124946714Y-94745728D01*
X124946701Y-94745721D01*
X124755875Y-94666679D01*
X124755863Y-94666676D01*
X124553283Y-94626380D01*
X124553280Y-94626380D01*
X124346720Y-94626380D01*
X124346717Y-94626380D01*
X124144136Y-94666676D01*
X124144124Y-94666679D01*
X123953298Y-94745721D01*
X123953285Y-94745728D01*
X123781544Y-94860483D01*
X123781540Y-94860486D01*
X123635486Y-95006540D01*
X123635483Y-95006544D01*
X123520728Y-95178285D01*
X123520721Y-95178298D01*
X123441679Y-95369124D01*
X123441676Y-95369136D01*
X123401380Y-95571715D01*
X122958619Y-95571715D01*
X122940775Y-95482007D01*
X122918322Y-95369129D01*
X122918320Y-95369124D01*
X122839278Y-95178298D01*
X122839271Y-95178285D01*
X122724516Y-95006544D01*
X122724513Y-95006540D01*
X122578459Y-94860486D01*
X122578455Y-94860483D01*
X122406714Y-94745728D01*
X122406701Y-94745721D01*
X122215875Y-94666679D01*
X122215863Y-94666676D01*
X122013283Y-94626380D01*
X122013280Y-94626380D01*
X121806720Y-94626380D01*
X121806717Y-94626380D01*
X121604136Y-94666676D01*
X121604124Y-94666679D01*
X121413298Y-94745721D01*
X121413285Y-94745728D01*
X121241544Y-94860483D01*
X121241540Y-94860486D01*
X121095486Y-95006540D01*
X121095483Y-95006544D01*
X120980728Y-95178285D01*
X120980721Y-95178298D01*
X120901679Y-95369124D01*
X120901676Y-95369136D01*
X120861380Y-95571715D01*
X120418619Y-95571715D01*
X120400775Y-95482007D01*
X120378322Y-95369129D01*
X120378320Y-95369124D01*
X120299278Y-95178298D01*
X120299271Y-95178285D01*
X120184516Y-95006544D01*
X120184513Y-95006540D01*
X120038459Y-94860486D01*
X120038455Y-94860483D01*
X119866714Y-94745728D01*
X119866701Y-94745721D01*
X119675875Y-94666679D01*
X119675863Y-94666676D01*
X119473283Y-94626380D01*
X119473280Y-94626380D01*
X119266720Y-94626380D01*
X119266717Y-94626380D01*
X119064136Y-94666676D01*
X119064124Y-94666679D01*
X118873298Y-94745721D01*
X118873285Y-94745728D01*
X118701544Y-94860483D01*
X118701540Y-94860486D01*
X118555486Y-95006540D01*
X118555483Y-95006544D01*
X118440728Y-95178285D01*
X118440721Y-95178298D01*
X118361679Y-95369124D01*
X118361676Y-95369136D01*
X118321380Y-95571715D01*
X117878619Y-95571715D01*
X117860775Y-95482007D01*
X117838322Y-95369129D01*
X117838320Y-95369124D01*
X117759278Y-95178298D01*
X117759271Y-95178285D01*
X117644516Y-95006544D01*
X117644513Y-95006540D01*
X117498459Y-94860486D01*
X117498455Y-94860483D01*
X117326714Y-94745728D01*
X117326701Y-94745721D01*
X117135875Y-94666679D01*
X117135863Y-94666676D01*
X116933283Y-94626380D01*
X116933280Y-94626380D01*
X116726720Y-94626380D01*
X116726717Y-94626380D01*
X116524136Y-94666676D01*
X116524124Y-94666679D01*
X116333298Y-94745721D01*
X116333285Y-94745728D01*
X116161544Y-94860483D01*
X116161540Y-94860486D01*
X116015486Y-95006540D01*
X116015483Y-95006544D01*
X115900728Y-95178285D01*
X115900721Y-95178298D01*
X115821679Y-95369124D01*
X115821676Y-95369136D01*
X115781380Y-95571715D01*
X115338619Y-95571715D01*
X115320775Y-95482007D01*
X115298322Y-95369129D01*
X115298320Y-95369124D01*
X115219278Y-95178298D01*
X115219271Y-95178285D01*
X115104516Y-95006544D01*
X115104513Y-95006540D01*
X114958459Y-94860486D01*
X114958455Y-94860483D01*
X114786714Y-94745728D01*
X114786701Y-94745721D01*
X114595875Y-94666679D01*
X114595863Y-94666676D01*
X114393283Y-94626380D01*
X114393280Y-94626380D01*
X114186720Y-94626380D01*
X114186717Y-94626380D01*
X113984136Y-94666676D01*
X113984124Y-94666679D01*
X113793298Y-94745721D01*
X113793285Y-94745728D01*
X113621544Y-94860483D01*
X113621540Y-94860486D01*
X113475486Y-95006540D01*
X113475483Y-95006544D01*
X113360728Y-95178285D01*
X113360721Y-95178298D01*
X113281679Y-95369124D01*
X113281676Y-95369136D01*
X113241380Y-95571715D01*
X112798619Y-95571715D01*
X112780775Y-95482007D01*
X112758322Y-95369129D01*
X112758320Y-95369124D01*
X112679278Y-95178298D01*
X112679271Y-95178285D01*
X112564516Y-95006544D01*
X112564513Y-95006540D01*
X112418459Y-94860486D01*
X112418455Y-94860483D01*
X112246714Y-94745728D01*
X112246701Y-94745721D01*
X112055875Y-94666679D01*
X112055863Y-94666676D01*
X111853283Y-94626380D01*
X111853280Y-94626380D01*
X111646720Y-94626380D01*
X111646717Y-94626380D01*
X111444136Y-94666676D01*
X111444129Y-94666678D01*
X111386331Y-94690618D01*
X111316862Y-94698085D01*
X111254383Y-94666810D01*
X111218731Y-94606720D01*
X111221226Y-94536895D01*
X111251197Y-94488377D01*
X112728036Y-93011539D01*
X112789359Y-92978054D01*
X112815717Y-92975220D01*
X171161647Y-92975220D01*
X171228686Y-92994905D01*
X171249328Y-93011539D01*
X172657415Y-94419626D01*
X172690900Y-94480949D01*
X172685916Y-94550641D01*
X172644044Y-94606574D01*
X172593926Y-94628924D01*
X172404134Y-94666676D01*
X172404124Y-94666679D01*
X172213298Y-94745721D01*
X172213285Y-94745728D01*
X172041544Y-94860483D01*
X172041540Y-94860486D01*
X171895486Y-95006540D01*
X171895483Y-95006544D01*
X171780728Y-95178285D01*
X171780721Y-95178298D01*
X171701679Y-95369124D01*
X171701676Y-95369136D01*
X171661380Y-95571715D01*
X171661380Y-95778284D01*
X171701676Y-95980863D01*
X171701679Y-95980875D01*
X171780721Y-96171701D01*
X171780728Y-96171714D01*
X171895483Y-96343455D01*
X171895486Y-96343459D01*
X172041540Y-96489513D01*
X172041544Y-96489516D01*
X172213285Y-96604271D01*
X172213298Y-96604278D01*
X172404124Y-96683320D01*
X172404129Y-96683322D01*
X172606715Y-96723619D01*
X172606718Y-96723620D01*
X172606720Y-96723620D01*
X172813282Y-96723620D01*
X172813283Y-96723619D01*
X173015871Y-96683322D01*
X173206708Y-96604275D01*
X173378456Y-96489516D01*
X173524516Y-96343456D01*
X173562678Y-96286343D01*
X173616290Y-96241538D01*
X173685615Y-96232831D01*
X173748642Y-96262985D01*
X173785362Y-96322428D01*
X173789780Y-96355234D01*
X173789780Y-99994765D01*
X173770095Y-100061804D01*
X173717291Y-100107559D01*
X173648133Y-100117503D01*
X173584577Y-100088478D01*
X173562678Y-100063656D01*
X173524516Y-100006544D01*
X173524513Y-100006540D01*
X173378459Y-99860486D01*
X173378455Y-99860483D01*
X173206714Y-99745728D01*
X173206701Y-99745721D01*
X173015875Y-99666679D01*
X173015863Y-99666676D01*
X172813283Y-99626380D01*
X172813280Y-99626380D01*
X172606720Y-99626380D01*
X172606717Y-99626380D01*
X172404136Y-99666676D01*
X172404124Y-99666679D01*
X172213298Y-99745721D01*
X172213285Y-99745728D01*
X172041544Y-99860483D01*
X172041540Y-99860486D01*
X171895486Y-100006540D01*
X171895483Y-100006544D01*
X171780728Y-100178285D01*
X171780721Y-100178298D01*
X171701679Y-100369124D01*
X171701676Y-100369136D01*
X171661380Y-100571715D01*
X171661380Y-100778284D01*
X171701676Y-100980863D01*
X171701679Y-100980875D01*
X171780721Y-101171701D01*
X171780728Y-101171714D01*
X171895483Y-101343455D01*
X171895486Y-101343459D01*
X172041540Y-101489513D01*
X172041544Y-101489516D01*
X172213285Y-101604271D01*
X172213289Y-101604273D01*
X172213292Y-101604275D01*
X172333236Y-101653957D01*
X172387636Y-101697795D01*
X172409701Y-101764089D01*
X172409780Y-101768516D01*
X172409780Y-102525780D01*
X172390095Y-102592819D01*
X172337291Y-102638574D01*
X172285780Y-102649780D01*
X169315717Y-102649780D01*
X169286276Y-102641135D01*
X169256290Y-102634612D01*
X169251274Y-102630857D01*
X169248678Y-102630095D01*
X169228036Y-102613461D01*
X169126539Y-102511964D01*
X169093054Y-102450641D01*
X169090220Y-102424283D01*
X169090220Y-101355234D01*
X169109905Y-101288195D01*
X169162709Y-101242440D01*
X169231867Y-101232496D01*
X169295423Y-101261521D01*
X169317322Y-101286343D01*
X169355483Y-101343455D01*
X169355486Y-101343459D01*
X169501540Y-101489513D01*
X169501544Y-101489516D01*
X169673285Y-101604271D01*
X169673298Y-101604278D01*
X169864124Y-101683320D01*
X169864129Y-101683322D01*
X170066715Y-101723619D01*
X170066718Y-101723620D01*
X170066720Y-101723620D01*
X170273282Y-101723620D01*
X170273283Y-101723619D01*
X170475871Y-101683322D01*
X170666708Y-101604275D01*
X170838456Y-101489516D01*
X170984516Y-101343456D01*
X171099275Y-101171708D01*
X171178322Y-100980871D01*
X171218620Y-100778280D01*
X171218620Y-100571720D01*
X171218620Y-100571717D01*
X171218619Y-100571715D01*
X171178323Y-100369136D01*
X171178322Y-100369129D01*
X171128639Y-100249185D01*
X171121171Y-100179718D01*
X171152446Y-100117238D01*
X171155491Y-100114082D01*
X172504036Y-98765539D01*
X172565359Y-98732054D01*
X172591717Y-98729220D01*
X172712962Y-98729220D01*
X172712964Y-98729220D01*
X172853921Y-98691451D01*
X172980299Y-98618486D01*
X173083486Y-98515299D01*
X173156451Y-98388921D01*
X173194220Y-98247964D01*
X173194220Y-98102036D01*
X173156451Y-97961079D01*
X173083486Y-97834701D01*
X172980299Y-97731514D01*
X172917110Y-97695031D01*
X172853922Y-97658549D01*
X172727892Y-97624780D01*
X172712964Y-97620780D01*
X172567036Y-97620780D01*
X172426077Y-97658549D01*
X172299701Y-97731514D01*
X172299698Y-97731516D01*
X172196516Y-97834698D01*
X172196514Y-97834701D01*
X172123549Y-97961077D01*
X172115622Y-97990662D01*
X172085780Y-98102036D01*
X172085780Y-98247964D01*
X172085781Y-98247967D01*
X172086841Y-98256018D01*
X172085355Y-98256213D01*
X172083900Y-98317039D01*
X172053474Y-98366948D01*
X170730945Y-99689478D01*
X170669622Y-99722963D01*
X170599930Y-99717979D01*
X170595812Y-99716358D01*
X170475875Y-99666679D01*
X170475863Y-99666676D01*
X170273283Y-99626380D01*
X170273280Y-99626380D01*
X170066720Y-99626380D01*
X170066717Y-99626380D01*
X169864136Y-99666676D01*
X169864124Y-99666679D01*
X169673298Y-99745721D01*
X169673285Y-99745728D01*
X169501544Y-99860483D01*
X169501540Y-99860486D01*
X169355486Y-100006540D01*
X169286198Y-100110236D01*
X169283401Y-100112573D01*
X169282117Y-100115982D01*
X169256801Y-100134802D01*
X169232585Y-100155040D01*
X169228969Y-100155494D01*
X169226045Y-100157668D01*
X169194570Y-100159814D01*
X169163260Y-100163747D01*
X169159972Y-100162174D01*
X169156337Y-100162422D01*
X169128692Y-100147208D01*
X169100233Y-100133592D01*
X169097382Y-100129977D01*
X169095125Y-100128735D01*
X169088198Y-100118330D01*
X169074068Y-100100411D01*
X169070135Y-100093151D01*
X169069761Y-100091755D01*
X169064403Y-100082475D01*
X169030236Y-100023296D01*
X168974340Y-99967400D01*
X168974339Y-99967399D01*
X168970009Y-99963069D01*
X168969998Y-99963059D01*
X166754670Y-97747731D01*
X166754668Y-97747728D01*
X166691706Y-97684766D01*
X166691704Y-97684764D01*
X166623245Y-97645239D01*
X166546888Y-97624779D01*
X166467840Y-97624779D01*
X166460244Y-97624779D01*
X166460228Y-97624780D01*
X160937137Y-97624780D01*
X160937121Y-97624779D01*
X160929525Y-97624779D01*
X160850476Y-97624779D01*
X160850474Y-97624779D01*
X160794580Y-97639755D01*
X160794579Y-97639756D01*
X160785932Y-97642073D01*
X160774120Y-97645238D01*
X160774114Y-97645241D01*
X160705663Y-97684762D01*
X160705657Y-97684766D01*
X158455661Y-99934762D01*
X158455660Y-99934764D01*
X158432305Y-99958119D01*
X158421878Y-99968546D01*
X158360554Y-100002030D01*
X158290863Y-99997044D01*
X158246517Y-99968544D01*
X158138459Y-99860486D01*
X158138455Y-99860483D01*
X157966714Y-99745728D01*
X157966701Y-99745721D01*
X157775875Y-99666679D01*
X157775863Y-99666676D01*
X157573283Y-99626380D01*
X157573280Y-99626380D01*
X157366720Y-99626380D01*
X157366717Y-99626380D01*
X157164136Y-99666676D01*
X157164124Y-99666679D01*
X156973298Y-99745721D01*
X156973285Y-99745728D01*
X156801544Y-99860483D01*
X156801540Y-99860486D01*
X156655486Y-100006540D01*
X156655483Y-100006544D01*
X156540728Y-100178285D01*
X156540721Y-100178298D01*
X156461679Y-100369124D01*
X156461676Y-100369136D01*
X156421380Y-100571715D01*
X156421380Y-100778284D01*
X156461676Y-100980863D01*
X156461679Y-100980875D01*
X156540721Y-101171701D01*
X156540728Y-101171714D01*
X156655483Y-101343455D01*
X156655486Y-101343459D01*
X156801540Y-101489513D01*
X156801544Y-101489516D01*
X156973285Y-101604271D01*
X156973298Y-101604278D01*
X157164124Y-101683320D01*
X157164129Y-101683322D01*
X157366715Y-101723619D01*
X157366718Y-101723620D01*
X157366720Y-101723620D01*
X157573282Y-101723620D01*
X157573283Y-101723619D01*
X157775871Y-101683322D01*
X157966708Y-101604275D01*
X157971407Y-101601135D01*
X158143521Y-101486132D01*
X158144439Y-101487505D01*
X158201426Y-101463304D01*
X158270294Y-101475096D01*
X158321853Y-101522248D01*
X158339780Y-101586470D01*
X158339780Y-112392783D01*
X158320095Y-112459822D01*
X158303461Y-112480464D01*
X148070244Y-122713681D01*
X148008921Y-122747166D01*
X147982563Y-122750000D01*
X132504220Y-122750000D01*
X132437181Y-122730315D01*
X132391426Y-122677511D01*
X132380220Y-122626000D01*
X132380220Y-101764374D01*
X132399905Y-101697335D01*
X132452709Y-101651580D01*
X132456768Y-101649813D01*
X132566708Y-101604275D01*
X132738456Y-101489516D01*
X132884516Y-101343456D01*
X132999275Y-101171708D01*
X133078322Y-100980871D01*
X133118620Y-100778280D01*
X133118620Y-100571720D01*
X133118620Y-100571717D01*
X133118619Y-100571715D01*
X133561380Y-100571715D01*
X133561380Y-100778284D01*
X133601676Y-100980863D01*
X133601679Y-100980875D01*
X133680721Y-101171701D01*
X133680728Y-101171714D01*
X133795483Y-101343455D01*
X133795486Y-101343459D01*
X133941540Y-101489513D01*
X133941544Y-101489516D01*
X134113285Y-101604271D01*
X134113298Y-101604278D01*
X134304124Y-101683320D01*
X134304129Y-101683322D01*
X134506715Y-101723619D01*
X134506718Y-101723620D01*
X134506720Y-101723620D01*
X134713282Y-101723620D01*
X134713283Y-101723619D01*
X134915871Y-101683322D01*
X135106708Y-101604275D01*
X135278456Y-101489516D01*
X135424516Y-101343456D01*
X135539275Y-101171708D01*
X135618322Y-100980871D01*
X135658620Y-100778280D01*
X135658620Y-100571720D01*
X135658620Y-100571717D01*
X135658619Y-100571715D01*
X136101380Y-100571715D01*
X136101380Y-100778284D01*
X136141676Y-100980863D01*
X136141679Y-100980875D01*
X136220721Y-101171701D01*
X136220728Y-101171714D01*
X136335483Y-101343455D01*
X136335486Y-101343459D01*
X136481540Y-101489513D01*
X136481544Y-101489516D01*
X136653285Y-101604271D01*
X136653298Y-101604278D01*
X136844124Y-101683320D01*
X136844129Y-101683322D01*
X137046715Y-101723619D01*
X137046718Y-101723620D01*
X137046720Y-101723620D01*
X137253282Y-101723620D01*
X137253283Y-101723619D01*
X137455871Y-101683322D01*
X137646708Y-101604275D01*
X137818456Y-101489516D01*
X137964516Y-101343456D01*
X138079275Y-101171708D01*
X138158322Y-100980871D01*
X138198620Y-100778280D01*
X138198620Y-100571720D01*
X138198620Y-100571717D01*
X138198619Y-100571715D01*
X138158323Y-100369136D01*
X138158322Y-100369129D01*
X138107803Y-100247164D01*
X138079278Y-100178298D01*
X138079271Y-100178285D01*
X137964516Y-100006544D01*
X137964513Y-100006540D01*
X137818459Y-99860486D01*
X137818455Y-99860483D01*
X137646714Y-99745728D01*
X137646701Y-99745721D01*
X137455875Y-99666679D01*
X137455863Y-99666676D01*
X137253283Y-99626380D01*
X137253280Y-99626380D01*
X137046720Y-99626380D01*
X137046717Y-99626380D01*
X136844136Y-99666676D01*
X136844124Y-99666679D01*
X136653298Y-99745721D01*
X136653285Y-99745728D01*
X136481544Y-99860483D01*
X136481540Y-99860486D01*
X136335486Y-100006540D01*
X136335483Y-100006544D01*
X136220728Y-100178285D01*
X136220721Y-100178298D01*
X136141679Y-100369124D01*
X136141676Y-100369136D01*
X136101380Y-100571715D01*
X135658619Y-100571715D01*
X135618323Y-100369136D01*
X135618322Y-100369129D01*
X135567803Y-100247164D01*
X135539278Y-100178298D01*
X135539271Y-100178285D01*
X135424516Y-100006544D01*
X135424513Y-100006540D01*
X135278459Y-99860486D01*
X135278455Y-99860483D01*
X135106714Y-99745728D01*
X135106701Y-99745721D01*
X134915875Y-99666679D01*
X134915863Y-99666676D01*
X134713283Y-99626380D01*
X134713280Y-99626380D01*
X134506720Y-99626380D01*
X134506717Y-99626380D01*
X134304136Y-99666676D01*
X134304124Y-99666679D01*
X134113298Y-99745721D01*
X134113285Y-99745728D01*
X133941544Y-99860483D01*
X133941540Y-99860486D01*
X133795486Y-100006540D01*
X133795483Y-100006544D01*
X133680728Y-100178285D01*
X133680721Y-100178298D01*
X133601679Y-100369124D01*
X133601676Y-100369136D01*
X133561380Y-100571715D01*
X133118619Y-100571715D01*
X133078323Y-100369136D01*
X133078322Y-100369129D01*
X133027803Y-100247164D01*
X132999278Y-100178298D01*
X132999271Y-100178285D01*
X132884516Y-100006544D01*
X132884513Y-100006540D01*
X132738459Y-99860486D01*
X132738455Y-99860483D01*
X132566714Y-99745728D01*
X132566701Y-99745721D01*
X132375875Y-99666679D01*
X132375863Y-99666676D01*
X132173283Y-99626380D01*
X132173280Y-99626380D01*
X131966720Y-99626380D01*
X131966717Y-99626380D01*
X131764136Y-99666676D01*
X131764124Y-99666679D01*
X131573298Y-99745721D01*
X131573285Y-99745728D01*
X131401544Y-99860483D01*
X131401540Y-99860486D01*
X131255486Y-100006540D01*
X131255483Y-100006544D01*
X131140728Y-100178285D01*
X131140721Y-100178298D01*
X131061679Y-100369124D01*
X131061676Y-100369136D01*
X131021380Y-100571715D01*
X131021380Y-100778284D01*
X131061676Y-100980863D01*
X131061679Y-100980875D01*
X131140721Y-101171701D01*
X131140728Y-101171714D01*
X131255483Y-101343455D01*
X131255486Y-101343459D01*
X131401540Y-101489513D01*
X131401544Y-101489516D01*
X131573285Y-101604271D01*
X131573289Y-101604273D01*
X131573292Y-101604275D01*
X131703236Y-101658099D01*
X131757636Y-101701937D01*
X131779701Y-101768231D01*
X131779780Y-101772658D01*
X131779780Y-122626000D01*
X131760095Y-122693039D01*
X131707291Y-122738794D01*
X131655780Y-122750000D01*
X129964220Y-122750000D01*
X129897181Y-122730315D01*
X129851426Y-122677511D01*
X129840220Y-122626000D01*
X129840220Y-101764374D01*
X129859905Y-101697335D01*
X129912709Y-101651580D01*
X129916768Y-101649813D01*
X130026708Y-101604275D01*
X130198456Y-101489516D01*
X130344516Y-101343456D01*
X130459275Y-101171708D01*
X130538322Y-100980871D01*
X130578620Y-100778280D01*
X130578620Y-100571720D01*
X130578620Y-100571717D01*
X130578619Y-100571715D01*
X130538323Y-100369136D01*
X130538322Y-100369129D01*
X130487803Y-100247164D01*
X130459278Y-100178298D01*
X130459271Y-100178285D01*
X130344516Y-100006544D01*
X130344513Y-100006540D01*
X130198459Y-99860486D01*
X130198455Y-99860483D01*
X130026714Y-99745728D01*
X130026701Y-99745721D01*
X129835875Y-99666679D01*
X129835863Y-99666676D01*
X129633283Y-99626380D01*
X129633280Y-99626380D01*
X129426720Y-99626380D01*
X129426717Y-99626380D01*
X129224136Y-99666676D01*
X129224124Y-99666679D01*
X129033298Y-99745721D01*
X129033285Y-99745728D01*
X128861544Y-99860483D01*
X128861540Y-99860486D01*
X128715486Y-100006540D01*
X128715483Y-100006544D01*
X128600728Y-100178285D01*
X128600721Y-100178298D01*
X128521679Y-100369124D01*
X128521676Y-100369136D01*
X128481380Y-100571715D01*
X128481380Y-100778284D01*
X128521676Y-100980863D01*
X128521679Y-100980875D01*
X128600721Y-101171701D01*
X128600728Y-101171714D01*
X128715483Y-101343455D01*
X128715486Y-101343459D01*
X128861540Y-101489513D01*
X128861544Y-101489516D01*
X129033285Y-101604271D01*
X129033289Y-101604273D01*
X129033292Y-101604275D01*
X129163236Y-101658099D01*
X129217636Y-101701937D01*
X129239701Y-101768231D01*
X129239780Y-101772658D01*
X129239780Y-122626000D01*
X129220095Y-122693039D01*
X129167291Y-122738794D01*
X129115780Y-122750000D01*
X127424220Y-122750000D01*
X127357181Y-122730315D01*
X127311426Y-122677511D01*
X127300220Y-122626000D01*
X127300220Y-101764374D01*
X127319905Y-101697335D01*
X127372709Y-101651580D01*
X127376768Y-101649813D01*
X127486708Y-101604275D01*
X127658456Y-101489516D01*
X127804516Y-101343456D01*
X127919275Y-101171708D01*
X127998322Y-100980871D01*
X128038620Y-100778280D01*
X128038620Y-100571720D01*
X128038620Y-100571717D01*
X128038619Y-100571715D01*
X127998323Y-100369136D01*
X127998322Y-100369129D01*
X127947803Y-100247164D01*
X127919278Y-100178298D01*
X127919271Y-100178285D01*
X127804516Y-100006544D01*
X127804513Y-100006540D01*
X127658459Y-99860486D01*
X127658455Y-99860483D01*
X127486714Y-99745728D01*
X127486701Y-99745721D01*
X127295875Y-99666679D01*
X127295863Y-99666676D01*
X127093283Y-99626380D01*
X127093280Y-99626380D01*
X126886720Y-99626380D01*
X126886717Y-99626380D01*
X126684136Y-99666676D01*
X126684124Y-99666679D01*
X126493298Y-99745721D01*
X126493285Y-99745728D01*
X126321544Y-99860483D01*
X126321540Y-99860486D01*
X126175486Y-100006540D01*
X126175483Y-100006544D01*
X126060728Y-100178285D01*
X126060721Y-100178298D01*
X125981679Y-100369124D01*
X125981676Y-100369136D01*
X125941380Y-100571715D01*
X125941380Y-100778284D01*
X125981676Y-100980863D01*
X125981679Y-100980875D01*
X126060721Y-101171701D01*
X126060728Y-101171714D01*
X126175483Y-101343455D01*
X126175486Y-101343459D01*
X126321540Y-101489513D01*
X126321544Y-101489516D01*
X126493285Y-101604271D01*
X126493289Y-101604273D01*
X126493292Y-101604275D01*
X126623236Y-101658099D01*
X126677636Y-101701937D01*
X126699701Y-101768231D01*
X126699780Y-101772658D01*
X126699780Y-122626000D01*
X126680095Y-122693039D01*
X126627291Y-122738794D01*
X126575780Y-122750000D01*
X124884220Y-122750000D01*
X124817181Y-122730315D01*
X124771426Y-122677511D01*
X124760220Y-122626000D01*
X124760220Y-101764374D01*
X124779905Y-101697335D01*
X124832709Y-101651580D01*
X124836768Y-101649813D01*
X124946708Y-101604275D01*
X125118456Y-101489516D01*
X125264516Y-101343456D01*
X125379275Y-101171708D01*
X125458322Y-100980871D01*
X125498620Y-100778280D01*
X125498620Y-100571720D01*
X125498620Y-100571717D01*
X125498619Y-100571715D01*
X125458323Y-100369136D01*
X125458322Y-100369129D01*
X125407803Y-100247164D01*
X125379278Y-100178298D01*
X125379271Y-100178285D01*
X125264516Y-100006544D01*
X125264513Y-100006540D01*
X125118459Y-99860486D01*
X125118455Y-99860483D01*
X124946714Y-99745728D01*
X124946701Y-99745721D01*
X124755875Y-99666679D01*
X124755863Y-99666676D01*
X124553283Y-99626380D01*
X124553280Y-99626380D01*
X124346720Y-99626380D01*
X124346717Y-99626380D01*
X124144136Y-99666676D01*
X124144124Y-99666679D01*
X123953298Y-99745721D01*
X123953285Y-99745728D01*
X123781544Y-99860483D01*
X123781540Y-99860486D01*
X123635486Y-100006540D01*
X123635483Y-100006544D01*
X123520728Y-100178285D01*
X123520721Y-100178298D01*
X123441679Y-100369124D01*
X123441676Y-100369136D01*
X123401380Y-100571715D01*
X123401380Y-100778284D01*
X123441676Y-100980863D01*
X123441679Y-100980875D01*
X123520721Y-101171701D01*
X123520728Y-101171714D01*
X123635483Y-101343455D01*
X123635486Y-101343459D01*
X123781540Y-101489513D01*
X123781544Y-101489516D01*
X123953285Y-101604271D01*
X123953289Y-101604273D01*
X123953292Y-101604275D01*
X124083236Y-101658099D01*
X124137636Y-101701937D01*
X124159701Y-101768231D01*
X124159780Y-101772658D01*
X124159780Y-122626000D01*
X124140095Y-122693039D01*
X124087291Y-122738794D01*
X124035780Y-122750000D01*
X122344220Y-122750000D01*
X122277181Y-122730315D01*
X122231426Y-122677511D01*
X122220220Y-122626000D01*
X122220220Y-101764374D01*
X122239905Y-101697335D01*
X122292709Y-101651580D01*
X122296768Y-101649813D01*
X122406708Y-101604275D01*
X122578456Y-101489516D01*
X122724516Y-101343456D01*
X122839275Y-101171708D01*
X122918322Y-100980871D01*
X122958620Y-100778280D01*
X122958620Y-100571720D01*
X122958620Y-100571717D01*
X122958619Y-100571715D01*
X122918323Y-100369136D01*
X122918322Y-100369129D01*
X122867803Y-100247164D01*
X122839278Y-100178298D01*
X122839271Y-100178285D01*
X122724516Y-100006544D01*
X122724513Y-100006540D01*
X122578459Y-99860486D01*
X122578455Y-99860483D01*
X122406714Y-99745728D01*
X122406701Y-99745721D01*
X122215875Y-99666679D01*
X122215863Y-99666676D01*
X122013283Y-99626380D01*
X122013280Y-99626380D01*
X121806720Y-99626380D01*
X121806717Y-99626380D01*
X121604136Y-99666676D01*
X121604124Y-99666679D01*
X121413298Y-99745721D01*
X121413285Y-99745728D01*
X121241544Y-99860483D01*
X121241540Y-99860486D01*
X121095486Y-100006540D01*
X121095483Y-100006544D01*
X120980728Y-100178285D01*
X120980721Y-100178298D01*
X120901679Y-100369124D01*
X120901676Y-100369136D01*
X120861380Y-100571715D01*
X120861380Y-100778284D01*
X120901676Y-100980863D01*
X120901679Y-100980875D01*
X120980721Y-101171701D01*
X120980728Y-101171714D01*
X121095483Y-101343455D01*
X121095486Y-101343459D01*
X121241540Y-101489513D01*
X121241544Y-101489516D01*
X121413285Y-101604271D01*
X121413289Y-101604273D01*
X121413292Y-101604275D01*
X121543236Y-101658099D01*
X121597636Y-101701937D01*
X121619701Y-101768231D01*
X121619780Y-101772658D01*
X121619780Y-122626000D01*
X121600095Y-122693039D01*
X121547291Y-122738794D01*
X121495780Y-122750000D01*
X119804220Y-122750000D01*
X119737181Y-122730315D01*
X119691426Y-122677511D01*
X119680220Y-122626000D01*
X119680220Y-101764374D01*
X119699905Y-101697335D01*
X119752709Y-101651580D01*
X119756768Y-101649813D01*
X119866708Y-101604275D01*
X120038456Y-101489516D01*
X120184516Y-101343456D01*
X120299275Y-101171708D01*
X120378322Y-100980871D01*
X120418620Y-100778280D01*
X120418620Y-100571720D01*
X120418620Y-100571717D01*
X120418619Y-100571715D01*
X120378323Y-100369136D01*
X120378322Y-100369129D01*
X120327803Y-100247164D01*
X120299278Y-100178298D01*
X120299271Y-100178285D01*
X120184516Y-100006544D01*
X120184513Y-100006540D01*
X120038459Y-99860486D01*
X120038455Y-99860483D01*
X119866714Y-99745728D01*
X119866701Y-99745721D01*
X119675875Y-99666679D01*
X119675863Y-99666676D01*
X119473283Y-99626380D01*
X119473280Y-99626380D01*
X119266720Y-99626380D01*
X119266717Y-99626380D01*
X119064136Y-99666676D01*
X119064124Y-99666679D01*
X118873298Y-99745721D01*
X118873285Y-99745728D01*
X118701544Y-99860483D01*
X118701540Y-99860486D01*
X118555486Y-100006540D01*
X118555483Y-100006544D01*
X118440728Y-100178285D01*
X118440721Y-100178298D01*
X118361679Y-100369124D01*
X118361676Y-100369136D01*
X118321380Y-100571715D01*
X118321380Y-100778284D01*
X118361676Y-100980863D01*
X118361679Y-100980875D01*
X118440721Y-101171701D01*
X118440728Y-101171714D01*
X118555483Y-101343455D01*
X118555486Y-101343459D01*
X118701540Y-101489513D01*
X118701544Y-101489516D01*
X118873285Y-101604271D01*
X118873289Y-101604273D01*
X118873292Y-101604275D01*
X119003236Y-101658099D01*
X119057636Y-101701937D01*
X119079701Y-101768231D01*
X119079780Y-101772658D01*
X119079780Y-122626000D01*
X119060095Y-122693039D01*
X119007291Y-122738794D01*
X118955780Y-122750000D01*
X117264220Y-122750000D01*
X117197181Y-122730315D01*
X117151426Y-122677511D01*
X117140220Y-122626000D01*
X117140220Y-101764374D01*
X117159905Y-101697335D01*
X117212709Y-101651580D01*
X117216768Y-101649813D01*
X117326708Y-101604275D01*
X117498456Y-101489516D01*
X117644516Y-101343456D01*
X117759275Y-101171708D01*
X117838322Y-100980871D01*
X117878620Y-100778280D01*
X117878620Y-100571720D01*
X117878620Y-100571717D01*
X117878619Y-100571715D01*
X117838323Y-100369136D01*
X117838322Y-100369129D01*
X117787803Y-100247164D01*
X117759278Y-100178298D01*
X117759271Y-100178285D01*
X117644516Y-100006544D01*
X117644513Y-100006540D01*
X117498459Y-99860486D01*
X117498455Y-99860483D01*
X117326714Y-99745728D01*
X117326701Y-99745721D01*
X117135875Y-99666679D01*
X117135863Y-99666676D01*
X116933283Y-99626380D01*
X116933280Y-99626380D01*
X116726720Y-99626380D01*
X116726717Y-99626380D01*
X116524136Y-99666676D01*
X116524124Y-99666679D01*
X116333298Y-99745721D01*
X116333285Y-99745728D01*
X116161544Y-99860483D01*
X116161540Y-99860486D01*
X116015486Y-100006540D01*
X116015483Y-100006544D01*
X115900728Y-100178285D01*
X115900721Y-100178298D01*
X115821679Y-100369124D01*
X115821676Y-100369136D01*
X115781380Y-100571715D01*
X115781380Y-100778284D01*
X115821676Y-100980863D01*
X115821679Y-100980875D01*
X115900721Y-101171701D01*
X115900728Y-101171714D01*
X116015483Y-101343455D01*
X116015486Y-101343459D01*
X116161540Y-101489513D01*
X116161544Y-101489516D01*
X116333285Y-101604271D01*
X116333289Y-101604273D01*
X116333292Y-101604275D01*
X116463236Y-101658099D01*
X116517636Y-101701937D01*
X116539701Y-101768231D01*
X116539780Y-101772658D01*
X116539780Y-122626000D01*
X116520095Y-122693039D01*
X116467291Y-122738794D01*
X116415780Y-122750000D01*
X114724220Y-122750000D01*
X114657181Y-122730315D01*
X114611426Y-122677511D01*
X114600220Y-122626000D01*
X114600220Y-101764374D01*
X114619905Y-101697335D01*
X114672709Y-101651580D01*
X114676768Y-101649813D01*
X114786708Y-101604275D01*
X114958456Y-101489516D01*
X115104516Y-101343456D01*
X115219275Y-101171708D01*
X115298322Y-100980871D01*
X115338620Y-100778280D01*
X115338620Y-100571720D01*
X115338620Y-100571717D01*
X115338619Y-100571715D01*
X115298323Y-100369136D01*
X115298322Y-100369129D01*
X115247803Y-100247164D01*
X115219278Y-100178298D01*
X115219271Y-100178285D01*
X115104516Y-100006544D01*
X115104513Y-100006540D01*
X114958459Y-99860486D01*
X114958455Y-99860483D01*
X114786714Y-99745728D01*
X114786701Y-99745721D01*
X114595875Y-99666679D01*
X114595863Y-99666676D01*
X114393283Y-99626380D01*
X114393280Y-99626380D01*
X114186720Y-99626380D01*
X114186717Y-99626380D01*
X113984136Y-99666676D01*
X113984124Y-99666679D01*
X113793298Y-99745721D01*
X113793285Y-99745728D01*
X113621544Y-99860483D01*
X113621540Y-99860486D01*
X113475486Y-100006540D01*
X113475483Y-100006544D01*
X113360728Y-100178285D01*
X113360721Y-100178298D01*
X113281679Y-100369124D01*
X113281676Y-100369136D01*
X113241380Y-100571715D01*
X113241380Y-100778284D01*
X113281676Y-100980863D01*
X113281679Y-100980875D01*
X113360721Y-101171701D01*
X113360728Y-101171714D01*
X113475483Y-101343455D01*
X113475486Y-101343459D01*
X113621540Y-101489513D01*
X113621544Y-101489516D01*
X113793285Y-101604271D01*
X113793289Y-101604273D01*
X113793292Y-101604275D01*
X113923236Y-101658099D01*
X113977636Y-101701937D01*
X113999701Y-101768231D01*
X113999780Y-101772658D01*
X113999780Y-122626000D01*
X113980095Y-122693039D01*
X113927291Y-122738794D01*
X113875780Y-122750000D01*
X104364500Y-122750000D01*
X104297461Y-122730315D01*
X104251706Y-122677511D01*
X104240500Y-122626000D01*
X104240500Y-104730010D01*
X104240499Y-104730007D01*
X104225200Y-104693071D01*
X104196928Y-104664799D01*
X104159992Y-104649500D01*
X104159991Y-104649500D01*
X92614500Y-104649500D01*
X92547461Y-104629815D01*
X92501706Y-104577011D01*
X92490500Y-104525500D01*
X92490500Y-98023444D01*
X95031380Y-98023444D01*
X95031380Y-98326555D01*
X95065315Y-98627735D01*
X95065317Y-98627751D01*
X95132762Y-98923250D01*
X95132766Y-98923262D01*
X95232869Y-99209337D01*
X95232878Y-99209359D01*
X95364379Y-99482424D01*
X95407243Y-99550641D01*
X95525643Y-99739074D01*
X95624476Y-99863007D01*
X95700325Y-99958119D01*
X95714625Y-99976050D01*
X95928950Y-100190375D01*
X96165926Y-100379357D01*
X96366868Y-100505617D01*
X96422575Y-100540620D01*
X96695640Y-100672121D01*
X96695649Y-100672124D01*
X96695656Y-100672128D01*
X96695662Y-100672130D01*
X96981737Y-100772233D01*
X96981749Y-100772237D01*
X97277252Y-100839683D01*
X97578445Y-100873619D01*
X97578446Y-100873620D01*
X97578449Y-100873620D01*
X97881554Y-100873620D01*
X97881554Y-100873619D01*
X98182748Y-100839683D01*
X98478251Y-100772237D01*
X98764344Y-100672128D01*
X98837019Y-100637130D01*
X99037424Y-100540620D01*
X99037424Y-100540619D01*
X99037430Y-100540617D01*
X99294074Y-100379357D01*
X99531050Y-100190375D01*
X99745375Y-99976050D01*
X99934357Y-99739074D01*
X100095617Y-99482430D01*
X100125862Y-99419626D01*
X100227121Y-99209359D01*
X100227122Y-99209355D01*
X100227128Y-99209344D01*
X100327237Y-98923251D01*
X100394683Y-98627748D01*
X100428620Y-98326551D01*
X100428620Y-98023449D01*
X100394683Y-97722252D01*
X100327237Y-97426749D01*
X100227128Y-97140656D01*
X100227124Y-97140649D01*
X100227121Y-97140640D01*
X100095620Y-96867575D01*
X100091866Y-96861601D01*
X99934357Y-96610926D01*
X99745375Y-96373950D01*
X99531050Y-96159625D01*
X99294074Y-95970643D01*
X99037430Y-95809383D01*
X99037431Y-95809383D01*
X99037424Y-95809379D01*
X98764355Y-95677876D01*
X98764341Y-95677870D01*
X98478262Y-95577766D01*
X98478250Y-95577762D01*
X98182751Y-95510317D01*
X98182735Y-95510315D01*
X97881555Y-95476380D01*
X97881551Y-95476380D01*
X97578449Y-95476380D01*
X97578444Y-95476380D01*
X97277264Y-95510315D01*
X97277248Y-95510317D01*
X96981749Y-95577762D01*
X96981737Y-95577766D01*
X96695662Y-95677869D01*
X96695640Y-95677878D01*
X96422575Y-95809379D01*
X96165927Y-95970642D01*
X95928950Y-96159624D01*
X95714624Y-96373950D01*
X95525642Y-96610927D01*
X95364379Y-96867575D01*
X95232878Y-97140640D01*
X95232869Y-97140662D01*
X95132766Y-97426737D01*
X95132762Y-97426749D01*
X95065317Y-97722248D01*
X95065315Y-97722264D01*
X95031380Y-98023444D01*
X92490500Y-98023444D01*
X92490500Y-84879169D01*
X137856380Y-84879169D01*
X137856380Y-85120830D01*
X137856381Y-85120846D01*
X137887560Y-85357678D01*
X137887925Y-85360444D01*
X137936646Y-85542275D01*
X137950476Y-85593886D01*
X137950480Y-85593899D01*
X138042954Y-85817153D01*
X138042959Y-85817162D01*
X138163797Y-86026458D01*
X138163802Y-86026464D01*
X138163803Y-86026466D01*
X138310917Y-86218190D01*
X138310923Y-86218197D01*
X138481802Y-86389076D01*
X138481809Y-86389082D01*
X138618328Y-86493836D01*
X138673542Y-86536203D01*
X138882838Y-86657041D01*
X138882841Y-86657042D01*
X138882846Y-86657045D01*
X139106100Y-86749519D01*
X139106105Y-86749520D01*
X139106116Y-86749525D01*
X139339556Y-86812075D01*
X139579163Y-86843620D01*
X139579170Y-86843620D01*
X139820830Y-86843620D01*
X139820837Y-86843620D01*
X140060444Y-86812075D01*
X140293884Y-86749525D01*
X140293896Y-86749519D01*
X140293899Y-86749519D01*
X140517153Y-86657045D01*
X140517154Y-86657043D01*
X140517162Y-86657041D01*
X140726458Y-86536203D01*
X140918192Y-86389081D01*
X141089081Y-86218192D01*
X141236203Y-86026458D01*
X141357041Y-85817162D01*
X141388626Y-85740910D01*
X141449519Y-85593899D01*
X141449519Y-85593896D01*
X141449525Y-85593884D01*
X141512075Y-85360444D01*
X141543620Y-85120837D01*
X141543620Y-84879163D01*
X141518228Y-84686289D01*
X144017261Y-84686289D01*
X144017262Y-84686290D01*
X144023471Y-84690801D01*
X144177742Y-84769408D01*
X144342415Y-84822914D01*
X144513429Y-84850000D01*
X144686571Y-84850000D01*
X144857584Y-84822914D01*
X145022257Y-84769408D01*
X145176525Y-84690803D01*
X145182736Y-84686289D01*
X145182737Y-84686289D01*
X144600001Y-84103553D01*
X144600000Y-84103553D01*
X144017261Y-84686289D01*
X141518228Y-84686289D01*
X141512075Y-84639556D01*
X141449525Y-84406116D01*
X141449520Y-84406105D01*
X141449519Y-84406100D01*
X141357045Y-84182846D01*
X141357040Y-84182837D01*
X141350933Y-84172259D01*
X141236203Y-83973542D01*
X141089081Y-83781808D01*
X141089076Y-83781802D01*
X140970702Y-83663428D01*
X143500000Y-83663428D01*
X143500000Y-83836571D01*
X143527085Y-84007584D01*
X143580592Y-84172259D01*
X143659196Y-84326525D01*
X143663709Y-84332736D01*
X143663709Y-84332737D01*
X144246446Y-83750000D01*
X144246446Y-83749999D01*
X144200369Y-83703922D01*
X144250000Y-83703922D01*
X144250000Y-83796078D01*
X144273852Y-83885095D01*
X144319930Y-83964905D01*
X144385095Y-84030070D01*
X144464905Y-84076148D01*
X144553922Y-84100000D01*
X144646078Y-84100000D01*
X144735095Y-84076148D01*
X144814905Y-84030070D01*
X144880070Y-83964905D01*
X144926148Y-83885095D01*
X144950000Y-83796078D01*
X144950000Y-83703922D01*
X144926148Y-83614905D01*
X144880070Y-83535095D01*
X144814905Y-83469930D01*
X144735095Y-83423852D01*
X144646078Y-83400000D01*
X144553922Y-83400000D01*
X144464905Y-83423852D01*
X144385095Y-83469930D01*
X144319930Y-83535095D01*
X144273852Y-83614905D01*
X144250000Y-83703922D01*
X144200369Y-83703922D01*
X143663709Y-83167261D01*
X143663708Y-83167261D01*
X143659203Y-83173463D01*
X143659193Y-83173480D01*
X143580592Y-83327740D01*
X143527085Y-83492415D01*
X143500000Y-83663428D01*
X140970702Y-83663428D01*
X140918197Y-83610923D01*
X140918190Y-83610917D01*
X140726466Y-83463803D01*
X140726464Y-83463802D01*
X140726458Y-83463797D01*
X140517162Y-83342959D01*
X140517153Y-83342954D01*
X140293899Y-83250480D01*
X140293886Y-83250476D01*
X140293887Y-83250476D01*
X140293884Y-83250475D01*
X140060444Y-83187925D01*
X140060443Y-83187924D01*
X140060440Y-83187924D01*
X139820846Y-83156381D01*
X139820843Y-83156380D01*
X139820837Y-83156380D01*
X139579163Y-83156380D01*
X139579157Y-83156380D01*
X139579153Y-83156381D01*
X139339559Y-83187924D01*
X139322213Y-83192572D01*
X139106116Y-83250475D01*
X139106114Y-83250475D01*
X139106113Y-83250476D01*
X139106100Y-83250480D01*
X138882846Y-83342954D01*
X138882837Y-83342959D01*
X138673542Y-83463797D01*
X138673533Y-83463803D01*
X138481809Y-83610917D01*
X138481802Y-83610923D01*
X138310923Y-83781802D01*
X138310917Y-83781809D01*
X138163803Y-83973533D01*
X138163797Y-83973542D01*
X138042959Y-84182837D01*
X138042954Y-84182846D01*
X137950480Y-84406100D01*
X137950476Y-84406113D01*
X137950475Y-84406116D01*
X137920515Y-84517929D01*
X137887924Y-84639559D01*
X137856381Y-84879153D01*
X137856380Y-84879169D01*
X92490500Y-84879169D01*
X92490500Y-82813708D01*
X144017261Y-82813708D01*
X144017261Y-82813709D01*
X144600000Y-83396446D01*
X144600001Y-83396446D01*
X145182737Y-82813709D01*
X145176525Y-82809196D01*
X145022259Y-82730592D01*
X144857584Y-82677085D01*
X144686571Y-82650000D01*
X144513429Y-82650000D01*
X144342415Y-82677085D01*
X144177740Y-82730592D01*
X144023480Y-82809193D01*
X144023463Y-82809203D01*
X144017261Y-82813708D01*
X92490500Y-82813708D01*
X92490500Y-80224500D01*
X92510185Y-80157461D01*
X92562989Y-80111706D01*
X92614500Y-80100500D01*
X199665500Y-80100500D01*
X199732539Y-80120185D01*
G37*
G04 #@! TD.AperFunction*
G04 #@! TA.AperFunction,Conductor*
G36*
X159145423Y-101276487D02*
G01*
X159167322Y-101301309D01*
X159195483Y-101343456D01*
X159341540Y-101489513D01*
X159341544Y-101489516D01*
X159513285Y-101604271D01*
X159513289Y-101604273D01*
X159513292Y-101604275D01*
X159643236Y-101658099D01*
X159697636Y-101701937D01*
X159719701Y-101768231D01*
X159719780Y-101772658D01*
X159719780Y-122626000D01*
X159700095Y-122693039D01*
X159647291Y-122738794D01*
X159595780Y-122750000D01*
X149182437Y-122750000D01*
X149115398Y-122730315D01*
X149069643Y-122677511D01*
X149059699Y-122608353D01*
X149088724Y-122544797D01*
X149094756Y-122538319D01*
X149695663Y-121937411D01*
X158814130Y-112818943D01*
X158814135Y-112818940D01*
X158824338Y-112808736D01*
X158824340Y-112808736D01*
X158880236Y-112752840D01*
X158919761Y-112684381D01*
X158925243Y-112663921D01*
X158940221Y-112608024D01*
X158940221Y-112528975D01*
X158940220Y-112528971D01*
X158940220Y-101370200D01*
X158959905Y-101303161D01*
X159012709Y-101257406D01*
X159081867Y-101247462D01*
X159145423Y-101276487D01*
G37*
G04 #@! TD.AperFunction*
G04 #@! TA.AperFunction,Conductor*
G36*
X166398686Y-98244905D02*
G01*
X166419328Y-98261539D01*
X167577415Y-99419626D01*
X167610900Y-99480949D01*
X167605916Y-99550641D01*
X167564044Y-99606574D01*
X167513926Y-99628924D01*
X167324134Y-99666676D01*
X167324124Y-99666679D01*
X167133298Y-99745721D01*
X167133285Y-99745728D01*
X166961544Y-99860483D01*
X166961540Y-99860486D01*
X166815486Y-100006540D01*
X166815483Y-100006544D01*
X166700728Y-100178285D01*
X166700721Y-100178298D01*
X166621679Y-100369124D01*
X166621676Y-100369136D01*
X166581380Y-100571715D01*
X166581380Y-100778284D01*
X166621676Y-100980863D01*
X166621679Y-100980875D01*
X166700721Y-101171701D01*
X166700728Y-101171714D01*
X166815483Y-101343455D01*
X166815486Y-101343459D01*
X166961540Y-101489513D01*
X166961544Y-101489516D01*
X167133285Y-101604271D01*
X167133289Y-101604273D01*
X167133292Y-101604275D01*
X167263236Y-101658099D01*
X167317636Y-101701937D01*
X167339701Y-101768231D01*
X167339780Y-101772658D01*
X167339780Y-122626000D01*
X167320095Y-122693039D01*
X167267291Y-122738794D01*
X167215780Y-122750000D01*
X165524220Y-122750000D01*
X165457181Y-122730315D01*
X165411426Y-122677511D01*
X165400220Y-122626000D01*
X165400220Y-101764374D01*
X165419905Y-101697335D01*
X165472709Y-101651580D01*
X165476768Y-101649813D01*
X165586708Y-101604275D01*
X165758456Y-101489516D01*
X165904516Y-101343456D01*
X166019275Y-101171708D01*
X166098322Y-100980871D01*
X166138620Y-100778280D01*
X166138620Y-100571720D01*
X166138620Y-100571717D01*
X166138619Y-100571715D01*
X166098323Y-100369136D01*
X166098322Y-100369129D01*
X166047803Y-100247164D01*
X166019278Y-100178298D01*
X166019271Y-100178285D01*
X165904516Y-100006544D01*
X165904513Y-100006540D01*
X165758459Y-99860486D01*
X165758455Y-99860483D01*
X165586714Y-99745728D01*
X165586701Y-99745721D01*
X165395875Y-99666679D01*
X165395863Y-99666676D01*
X165193283Y-99626380D01*
X165193280Y-99626380D01*
X164986720Y-99626380D01*
X164986717Y-99626380D01*
X164784136Y-99666676D01*
X164784124Y-99666679D01*
X164593298Y-99745721D01*
X164593285Y-99745728D01*
X164421544Y-99860483D01*
X164421540Y-99860486D01*
X164275486Y-100006540D01*
X164275483Y-100006544D01*
X164160728Y-100178285D01*
X164160721Y-100178298D01*
X164081679Y-100369124D01*
X164081676Y-100369136D01*
X164041380Y-100571715D01*
X164041380Y-100778284D01*
X164081676Y-100980863D01*
X164081679Y-100980875D01*
X164160721Y-101171701D01*
X164160728Y-101171714D01*
X164275483Y-101343455D01*
X164275486Y-101343459D01*
X164421540Y-101489513D01*
X164421544Y-101489516D01*
X164593285Y-101604271D01*
X164593289Y-101604273D01*
X164593292Y-101604275D01*
X164723236Y-101658099D01*
X164777636Y-101701937D01*
X164799701Y-101768231D01*
X164799780Y-101772658D01*
X164799780Y-122626000D01*
X164780095Y-122693039D01*
X164727291Y-122738794D01*
X164675780Y-122750000D01*
X162984220Y-122750000D01*
X162917181Y-122730315D01*
X162871426Y-122677511D01*
X162860220Y-122626000D01*
X162860220Y-101764374D01*
X162879905Y-101697335D01*
X162932709Y-101651580D01*
X162936768Y-101649813D01*
X163046708Y-101604275D01*
X163218456Y-101489516D01*
X163364516Y-101343456D01*
X163479275Y-101171708D01*
X163558322Y-100980871D01*
X163598620Y-100778280D01*
X163598620Y-100571720D01*
X163598620Y-100571717D01*
X163598619Y-100571715D01*
X163558323Y-100369136D01*
X163558322Y-100369129D01*
X163507803Y-100247164D01*
X163479278Y-100178298D01*
X163479271Y-100178285D01*
X163364516Y-100006544D01*
X163364513Y-100006540D01*
X163218459Y-99860486D01*
X163218455Y-99860483D01*
X163046714Y-99745728D01*
X163046701Y-99745721D01*
X162855875Y-99666679D01*
X162855863Y-99666676D01*
X162653283Y-99626380D01*
X162653280Y-99626380D01*
X162446720Y-99626380D01*
X162446717Y-99626380D01*
X162244136Y-99666676D01*
X162244124Y-99666679D01*
X162053298Y-99745721D01*
X162053285Y-99745728D01*
X161881544Y-99860483D01*
X161881540Y-99860486D01*
X161735486Y-100006540D01*
X161735483Y-100006544D01*
X161620728Y-100178285D01*
X161620721Y-100178298D01*
X161541679Y-100369124D01*
X161541676Y-100369136D01*
X161501380Y-100571715D01*
X161501380Y-100778284D01*
X161541676Y-100980863D01*
X161541679Y-100980875D01*
X161620721Y-101171701D01*
X161620728Y-101171714D01*
X161735483Y-101343455D01*
X161735486Y-101343459D01*
X161881540Y-101489513D01*
X161881544Y-101489516D01*
X162053285Y-101604271D01*
X162053289Y-101604273D01*
X162053292Y-101604275D01*
X162183236Y-101658099D01*
X162237636Y-101701937D01*
X162259701Y-101768231D01*
X162259780Y-101772658D01*
X162259780Y-122626000D01*
X162240095Y-122693039D01*
X162187291Y-122738794D01*
X162135780Y-122750000D01*
X160444220Y-122750000D01*
X160377181Y-122730315D01*
X160331426Y-122677511D01*
X160320220Y-122626000D01*
X160320220Y-101764374D01*
X160339905Y-101697335D01*
X160392709Y-101651580D01*
X160396768Y-101649813D01*
X160506708Y-101604275D01*
X160678456Y-101489516D01*
X160824516Y-101343456D01*
X160939275Y-101171708D01*
X161018322Y-100980871D01*
X161058620Y-100778280D01*
X161058620Y-100571720D01*
X161058620Y-100571717D01*
X161058619Y-100571715D01*
X161018323Y-100369136D01*
X161018322Y-100369129D01*
X160967803Y-100247164D01*
X160939278Y-100178298D01*
X160939271Y-100178285D01*
X160824516Y-100006544D01*
X160824513Y-100006540D01*
X160678459Y-99860486D01*
X160678455Y-99860483D01*
X160506714Y-99745728D01*
X160506701Y-99745721D01*
X160315875Y-99666679D01*
X160315863Y-99666676D01*
X160113283Y-99626380D01*
X160113280Y-99626380D01*
X159912556Y-99626380D01*
X159845517Y-99606695D01*
X159799762Y-99553891D01*
X159789818Y-99484733D01*
X159818843Y-99421177D01*
X159824875Y-99414699D01*
X160316313Y-98923262D01*
X160978036Y-98261539D01*
X161039359Y-98228054D01*
X161065717Y-98225220D01*
X166331647Y-98225220D01*
X166398686Y-98244905D01*
G37*
G04 #@! TD.AperFunction*
G04 #@! TA.AperFunction,Conductor*
G36*
X173748642Y-101262985D02*
G01*
X173785362Y-101322428D01*
X173789780Y-101355234D01*
X173789780Y-103459282D01*
X173770095Y-103526321D01*
X173753461Y-103546963D01*
X172479765Y-104820658D01*
X172479761Y-104820663D01*
X172462536Y-104850499D01*
X172462536Y-104850500D01*
X172440239Y-104889119D01*
X172419779Y-104965476D01*
X172419779Y-104965478D01*
X172419779Y-105054513D01*
X172419780Y-105054526D01*
X172419780Y-122626000D01*
X172400095Y-122693039D01*
X172347291Y-122738794D01*
X172295780Y-122750000D01*
X168064220Y-122750000D01*
X167997181Y-122730315D01*
X167951426Y-122677511D01*
X167940220Y-122626000D01*
X167940220Y-101764374D01*
X167959905Y-101697335D01*
X168012709Y-101651580D01*
X168016768Y-101649813D01*
X168126708Y-101604275D01*
X168296889Y-101490562D01*
X168363566Y-101469685D01*
X168430946Y-101488169D01*
X168477637Y-101540148D01*
X168489780Y-101593665D01*
X168489780Y-102552863D01*
X168489779Y-102552881D01*
X168489779Y-102560476D01*
X168489779Y-102639524D01*
X168508600Y-102709764D01*
X168510239Y-102715881D01*
X168549764Y-102784340D01*
X168549766Y-102784342D01*
X168612725Y-102847301D01*
X168612731Y-102847306D01*
X168899762Y-103134337D01*
X168899764Y-103134340D01*
X168955660Y-103190236D01*
X169024119Y-103229761D01*
X169044579Y-103235243D01*
X169100476Y-103250221D01*
X169100478Y-103250221D01*
X169187121Y-103250221D01*
X169187137Y-103250220D01*
X172417864Y-103250220D01*
X172417880Y-103250221D01*
X172425476Y-103250221D01*
X172504521Y-103250221D01*
X172504524Y-103250221D01*
X172580881Y-103229761D01*
X172649340Y-103190236D01*
X172705236Y-103134340D01*
X172705236Y-103134338D01*
X172715439Y-103124136D01*
X172715443Y-103124130D01*
X172884130Y-102955444D01*
X172884135Y-102955440D01*
X172894338Y-102945236D01*
X172894340Y-102945236D01*
X172950236Y-102889340D01*
X172989761Y-102820881D01*
X173010220Y-102744525D01*
X173010220Y-101768516D01*
X173029905Y-101701477D01*
X173082709Y-101655722D01*
X173086692Y-101653986D01*
X173206708Y-101604275D01*
X173378456Y-101489516D01*
X173524516Y-101343456D01*
X173560500Y-101289602D01*
X173562678Y-101286343D01*
X173616290Y-101241538D01*
X173685615Y-101232831D01*
X173748642Y-101262985D01*
G37*
G04 #@! TD.AperFunction*
G04 #@! TA.AperFunction,Conductor*
G36*
X174583111Y-101490563D02*
G01*
X174748591Y-101601135D01*
X174748595Y-101601136D01*
X174753292Y-101604275D01*
X174883811Y-101658337D01*
X174884091Y-101658456D01*
X174910714Y-101680242D01*
X174937636Y-101701937D01*
X174937789Y-101702398D01*
X174938164Y-101702705D01*
X174948801Y-101735482D01*
X174959701Y-101768231D01*
X174959716Y-101769118D01*
X174959731Y-101769162D01*
X174959718Y-101769209D01*
X174959780Y-101772658D01*
X174959780Y-122626000D01*
X174940095Y-122693039D01*
X174887291Y-122738794D01*
X174835780Y-122750000D01*
X173144220Y-122750000D01*
X173077181Y-122730315D01*
X173031426Y-122677511D01*
X173020220Y-122626000D01*
X173020220Y-105180716D01*
X173039905Y-105113677D01*
X173056534Y-105093040D01*
X174264130Y-103885443D01*
X174264135Y-103885440D01*
X174274338Y-103875236D01*
X174274340Y-103875236D01*
X174330236Y-103819340D01*
X174369761Y-103750881D01*
X174375243Y-103730421D01*
X174390221Y-103674524D01*
X174390221Y-103595475D01*
X174390220Y-103595471D01*
X174390220Y-101593665D01*
X174409905Y-101526626D01*
X174462709Y-101480871D01*
X174531867Y-101470927D01*
X174583111Y-101490563D01*
G37*
G04 #@! TD.AperFunction*
G04 #@! TA.AperFunction,Conductor*
G36*
X181888686Y-98494905D02*
G01*
X181909328Y-98511539D01*
X182817415Y-99419626D01*
X182850900Y-99480949D01*
X182845916Y-99550641D01*
X182804044Y-99606574D01*
X182753926Y-99628924D01*
X182564134Y-99666676D01*
X182564124Y-99666679D01*
X182373298Y-99745721D01*
X182373285Y-99745728D01*
X182201544Y-99860483D01*
X182201540Y-99860486D01*
X182055486Y-100006540D01*
X182055483Y-100006544D01*
X181940728Y-100178285D01*
X181940721Y-100178298D01*
X181861679Y-100369124D01*
X181861676Y-100369136D01*
X181821380Y-100571715D01*
X181821380Y-100778284D01*
X181861676Y-100980863D01*
X181861679Y-100980875D01*
X181940721Y-101171701D01*
X181940728Y-101171714D01*
X182055483Y-101343455D01*
X182055486Y-101343459D01*
X182201540Y-101489513D01*
X182201544Y-101489516D01*
X182373285Y-101604271D01*
X182373289Y-101604273D01*
X182373292Y-101604275D01*
X182503236Y-101658099D01*
X182557636Y-101701937D01*
X182579701Y-101768231D01*
X182579780Y-101772658D01*
X182579780Y-122626000D01*
X182560095Y-122693039D01*
X182507291Y-122738794D01*
X182455780Y-122750000D01*
X180764220Y-122750000D01*
X180697181Y-122730315D01*
X180651426Y-122677511D01*
X180640220Y-122626000D01*
X180640220Y-101764374D01*
X180659905Y-101697335D01*
X180712709Y-101651580D01*
X180716768Y-101649813D01*
X180826708Y-101604275D01*
X180998456Y-101489516D01*
X181144516Y-101343456D01*
X181259275Y-101171708D01*
X181338322Y-100980871D01*
X181378620Y-100778280D01*
X181378620Y-100571720D01*
X181378620Y-100571717D01*
X181378619Y-100571715D01*
X181338323Y-100369136D01*
X181338322Y-100369129D01*
X181287803Y-100247164D01*
X181259278Y-100178298D01*
X181259271Y-100178285D01*
X181144516Y-100006544D01*
X181144513Y-100006540D01*
X180998459Y-99860486D01*
X180998455Y-99860483D01*
X180826714Y-99745728D01*
X180826701Y-99745721D01*
X180635875Y-99666679D01*
X180635863Y-99666676D01*
X180433283Y-99626380D01*
X180433280Y-99626380D01*
X180226720Y-99626380D01*
X180226717Y-99626380D01*
X180024136Y-99666676D01*
X180024124Y-99666679D01*
X179833298Y-99745721D01*
X179833285Y-99745728D01*
X179661544Y-99860483D01*
X179661540Y-99860486D01*
X179515486Y-100006540D01*
X179515483Y-100006544D01*
X179400728Y-100178285D01*
X179400721Y-100178298D01*
X179321679Y-100369124D01*
X179321676Y-100369136D01*
X179281380Y-100571715D01*
X179281380Y-100778284D01*
X179321676Y-100980863D01*
X179321679Y-100980875D01*
X179400721Y-101171701D01*
X179400728Y-101171714D01*
X179515483Y-101343455D01*
X179515486Y-101343459D01*
X179661540Y-101489513D01*
X179661544Y-101489516D01*
X179833285Y-101604271D01*
X179833289Y-101604273D01*
X179833292Y-101604275D01*
X179963236Y-101658099D01*
X180017636Y-101701937D01*
X180039701Y-101768231D01*
X180039780Y-101772658D01*
X180039780Y-122626000D01*
X180020095Y-122693039D01*
X179967291Y-122738794D01*
X179915780Y-122750000D01*
X175684220Y-122750000D01*
X175617181Y-122730315D01*
X175571426Y-122677511D01*
X175560220Y-122626000D01*
X175560220Y-101764374D01*
X175579905Y-101697335D01*
X175632709Y-101651580D01*
X175636768Y-101649813D01*
X175746708Y-101604275D01*
X175918456Y-101489516D01*
X176064516Y-101343456D01*
X176179275Y-101171708D01*
X176258322Y-100980871D01*
X176298620Y-100778280D01*
X176298620Y-100571720D01*
X176298620Y-100571717D01*
X176298619Y-100571715D01*
X176741380Y-100571715D01*
X176741380Y-100778284D01*
X176781676Y-100980863D01*
X176781679Y-100980875D01*
X176860721Y-101171701D01*
X176860728Y-101171714D01*
X176975483Y-101343455D01*
X176975486Y-101343459D01*
X177121540Y-101489513D01*
X177121544Y-101489516D01*
X177293285Y-101604271D01*
X177293298Y-101604278D01*
X177484124Y-101683320D01*
X177484129Y-101683322D01*
X177686715Y-101723619D01*
X177686718Y-101723620D01*
X177686720Y-101723620D01*
X177893282Y-101723620D01*
X177893283Y-101723619D01*
X178095871Y-101683322D01*
X178286708Y-101604275D01*
X178458456Y-101489516D01*
X178604516Y-101343456D01*
X178719275Y-101171708D01*
X178798322Y-100980871D01*
X178838620Y-100778280D01*
X178838620Y-100571720D01*
X178838620Y-100571717D01*
X178838619Y-100571715D01*
X178798323Y-100369136D01*
X178798322Y-100369129D01*
X178747803Y-100247164D01*
X178719278Y-100178298D01*
X178719271Y-100178285D01*
X178604516Y-100006544D01*
X178604513Y-100006540D01*
X178458459Y-99860486D01*
X178458455Y-99860483D01*
X178286714Y-99745728D01*
X178286701Y-99745721D01*
X178095875Y-99666679D01*
X178095863Y-99666676D01*
X177893283Y-99626380D01*
X177893280Y-99626380D01*
X177686720Y-99626380D01*
X177686717Y-99626380D01*
X177484136Y-99666676D01*
X177484124Y-99666679D01*
X177293298Y-99745721D01*
X177293285Y-99745728D01*
X177121544Y-99860483D01*
X177121540Y-99860486D01*
X176975486Y-100006540D01*
X176975483Y-100006544D01*
X176860728Y-100178285D01*
X176860721Y-100178298D01*
X176781679Y-100369124D01*
X176781676Y-100369136D01*
X176741380Y-100571715D01*
X176298619Y-100571715D01*
X176258323Y-100369136D01*
X176258322Y-100369129D01*
X176207803Y-100247164D01*
X176179278Y-100178298D01*
X176179271Y-100178285D01*
X176064516Y-100006544D01*
X176064513Y-100006540D01*
X175918459Y-99860486D01*
X175918455Y-99860483D01*
X175746714Y-99745728D01*
X175746701Y-99745721D01*
X175555875Y-99666679D01*
X175555863Y-99666676D01*
X175353283Y-99626380D01*
X175353280Y-99626380D01*
X175146720Y-99626380D01*
X175146717Y-99626380D01*
X174944136Y-99666676D01*
X174944124Y-99666679D01*
X174753298Y-99745721D01*
X174753285Y-99745728D01*
X174583111Y-99859436D01*
X174516433Y-99880314D01*
X174449053Y-99861830D01*
X174402363Y-99809851D01*
X174390220Y-99756334D01*
X174390220Y-98608367D01*
X174409905Y-98541328D01*
X174462709Y-98495573D01*
X174531867Y-98485629D01*
X174595423Y-98514654D01*
X174601901Y-98520686D01*
X174699701Y-98618486D01*
X174826079Y-98691451D01*
X174967036Y-98729220D01*
X174967038Y-98729220D01*
X175112962Y-98729220D01*
X175112964Y-98729220D01*
X175253921Y-98691451D01*
X175380299Y-98618486D01*
X175483486Y-98515299D01*
X175483486Y-98515298D01*
X175487246Y-98511539D01*
X175548569Y-98478054D01*
X175574927Y-98475220D01*
X181821647Y-98475220D01*
X181888686Y-98494905D01*
G37*
G04 #@! TD.AperFunction*
G04 #@! TA.AperFunction,Conductor*
G36*
X183661666Y-101494370D02*
G01*
X183708357Y-101546349D01*
X183720500Y-101599866D01*
X183720500Y-104903583D01*
X183720499Y-104903601D01*
X183720499Y-104911196D01*
X183720499Y-104990244D01*
X183740959Y-105066601D01*
X183780484Y-105135060D01*
X183780486Y-105135062D01*
X183843445Y-105198021D01*
X183843451Y-105198026D01*
X185083461Y-106438036D01*
X185116946Y-106499359D01*
X185119780Y-106525717D01*
X185119780Y-122626000D01*
X185100095Y-122693039D01*
X185047291Y-122738794D01*
X184995780Y-122750000D01*
X183304220Y-122750000D01*
X183237181Y-122730315D01*
X183191426Y-122677511D01*
X183180220Y-122626000D01*
X183180220Y-101764374D01*
X183199905Y-101697335D01*
X183252709Y-101651580D01*
X183256768Y-101649813D01*
X183366708Y-101604275D01*
X183371407Y-101601135D01*
X183527609Y-101496764D01*
X183594286Y-101475886D01*
X183661666Y-101494370D01*
G37*
G04 #@! TD.AperFunction*
G04 #@! TA.AperFunction,Conductor*
G36*
X179261322Y-92494905D02*
G01*
X179281964Y-92511539D01*
X181884478Y-95114054D01*
X181917963Y-95175377D01*
X181912979Y-95245069D01*
X181911359Y-95249187D01*
X181861678Y-95369129D01*
X181861677Y-95369132D01*
X181861677Y-95369133D01*
X181861676Y-95369136D01*
X181821380Y-95571715D01*
X181821380Y-95778284D01*
X181861676Y-95980863D01*
X181861679Y-95980875D01*
X181940721Y-96171701D01*
X181940728Y-96171714D01*
X182055483Y-96343455D01*
X182055486Y-96343459D01*
X182201540Y-96489513D01*
X182201544Y-96489516D01*
X182373285Y-96604271D01*
X182373298Y-96604278D01*
X182564124Y-96683320D01*
X182564129Y-96683322D01*
X182766715Y-96723619D01*
X182766718Y-96723620D01*
X182766720Y-96723620D01*
X182973282Y-96723620D01*
X182973283Y-96723619D01*
X183175871Y-96683322D01*
X183366708Y-96604275D01*
X183538456Y-96489516D01*
X183684516Y-96343456D01*
X183731958Y-96272455D01*
X183785570Y-96227650D01*
X183854895Y-96218943D01*
X183917923Y-96249098D01*
X183954642Y-96308541D01*
X183959060Y-96341346D01*
X183959060Y-99412758D01*
X183939375Y-99479797D01*
X183886571Y-99525552D01*
X183817413Y-99535496D01*
X183753857Y-99506471D01*
X183747379Y-99500439D01*
X182244670Y-97997731D01*
X182244668Y-97997728D01*
X182181706Y-97934766D01*
X182181704Y-97934764D01*
X182113245Y-97895239D01*
X182036888Y-97874779D01*
X181957840Y-97874779D01*
X181950244Y-97874779D01*
X181950228Y-97874780D01*
X175574927Y-97874780D01*
X175507888Y-97855095D01*
X175487246Y-97838461D01*
X175380301Y-97731516D01*
X175380299Y-97731514D01*
X175317110Y-97695031D01*
X175253922Y-97658549D01*
X175127892Y-97624780D01*
X175112964Y-97620780D01*
X174967036Y-97620780D01*
X174826077Y-97658549D01*
X174699701Y-97731514D01*
X174699698Y-97731516D01*
X174601901Y-97829314D01*
X174540578Y-97862799D01*
X174470886Y-97857815D01*
X174414953Y-97815943D01*
X174390536Y-97750479D01*
X174390220Y-97741633D01*
X174390220Y-96593665D01*
X174409905Y-96526626D01*
X174462709Y-96480871D01*
X174531867Y-96470927D01*
X174583111Y-96490563D01*
X174746693Y-96599866D01*
X174753292Y-96604275D01*
X174753294Y-96604276D01*
X174753298Y-96604278D01*
X174944124Y-96683320D01*
X174944129Y-96683322D01*
X175146715Y-96723619D01*
X175146718Y-96723620D01*
X175146720Y-96723620D01*
X175353282Y-96723620D01*
X175353283Y-96723619D01*
X175555871Y-96683322D01*
X175746708Y-96604275D01*
X175918456Y-96489516D01*
X176064516Y-96343456D01*
X176179275Y-96171708D01*
X176258322Y-95980871D01*
X176298620Y-95778280D01*
X176298620Y-95571720D01*
X176298620Y-95571717D01*
X176298619Y-95571715D01*
X176741380Y-95571715D01*
X176741380Y-95778284D01*
X176781676Y-95980863D01*
X176781679Y-95980875D01*
X176860721Y-96171701D01*
X176860728Y-96171714D01*
X176975483Y-96343455D01*
X176975486Y-96343459D01*
X177121540Y-96489513D01*
X177121544Y-96489516D01*
X177293285Y-96604271D01*
X177293298Y-96604278D01*
X177484124Y-96683320D01*
X177484129Y-96683322D01*
X177686715Y-96723619D01*
X177686718Y-96723620D01*
X177686720Y-96723620D01*
X177893282Y-96723620D01*
X177893283Y-96723619D01*
X178095871Y-96683322D01*
X178286708Y-96604275D01*
X178458456Y-96489516D01*
X178604516Y-96343456D01*
X178719275Y-96171708D01*
X178798322Y-95980871D01*
X178838620Y-95778280D01*
X178838620Y-95571720D01*
X178838620Y-95571717D01*
X178838619Y-95571715D01*
X179281380Y-95571715D01*
X179281380Y-95778284D01*
X179321676Y-95980863D01*
X179321679Y-95980875D01*
X179400721Y-96171701D01*
X179400728Y-96171714D01*
X179515483Y-96343455D01*
X179515486Y-96343459D01*
X179661540Y-96489513D01*
X179661544Y-96489516D01*
X179833285Y-96604271D01*
X179833298Y-96604278D01*
X180024124Y-96683320D01*
X180024129Y-96683322D01*
X180226715Y-96723619D01*
X180226718Y-96723620D01*
X180226720Y-96723620D01*
X180433282Y-96723620D01*
X180433283Y-96723619D01*
X180635871Y-96683322D01*
X180826708Y-96604275D01*
X180998456Y-96489516D01*
X181144516Y-96343456D01*
X181259275Y-96171708D01*
X181338322Y-95980871D01*
X181378620Y-95778280D01*
X181378620Y-95571720D01*
X181378620Y-95571717D01*
X181378619Y-95571715D01*
X181360775Y-95482007D01*
X181338322Y-95369129D01*
X181338320Y-95369124D01*
X181259278Y-95178298D01*
X181259271Y-95178285D01*
X181144516Y-95006544D01*
X181144513Y-95006540D01*
X180998459Y-94860486D01*
X180998455Y-94860483D01*
X180826714Y-94745728D01*
X180826701Y-94745721D01*
X180635875Y-94666679D01*
X180635863Y-94666676D01*
X180433283Y-94626380D01*
X180433280Y-94626380D01*
X180226720Y-94626380D01*
X180226717Y-94626380D01*
X180024136Y-94666676D01*
X180024124Y-94666679D01*
X179833298Y-94745721D01*
X179833285Y-94745728D01*
X179661544Y-94860483D01*
X179661540Y-94860486D01*
X179515486Y-95006540D01*
X179515483Y-95006544D01*
X179400728Y-95178285D01*
X179400721Y-95178298D01*
X179321679Y-95369124D01*
X179321676Y-95369136D01*
X179281380Y-95571715D01*
X178838619Y-95571715D01*
X178820775Y-95482007D01*
X178798322Y-95369129D01*
X178798320Y-95369124D01*
X178719278Y-95178298D01*
X178719271Y-95178285D01*
X178604516Y-95006544D01*
X178604513Y-95006540D01*
X178458459Y-94860486D01*
X178458455Y-94860483D01*
X178286714Y-94745728D01*
X178286701Y-94745721D01*
X178095875Y-94666679D01*
X178095863Y-94666676D01*
X177893283Y-94626380D01*
X177893280Y-94626380D01*
X177686720Y-94626380D01*
X177686717Y-94626380D01*
X177484136Y-94666676D01*
X177484124Y-94666679D01*
X177293298Y-94745721D01*
X177293285Y-94745728D01*
X177121544Y-94860483D01*
X177121540Y-94860486D01*
X176975486Y-95006540D01*
X176975483Y-95006544D01*
X176860728Y-95178285D01*
X176860721Y-95178298D01*
X176781679Y-95369124D01*
X176781676Y-95369136D01*
X176741380Y-95571715D01*
X176298619Y-95571715D01*
X176280775Y-95482007D01*
X176258322Y-95369129D01*
X176258320Y-95369124D01*
X176179278Y-95178298D01*
X176179271Y-95178285D01*
X176064516Y-95006544D01*
X176064513Y-95006540D01*
X175918459Y-94860486D01*
X175918455Y-94860483D01*
X175746714Y-94745728D01*
X175746701Y-94745721D01*
X175555875Y-94666679D01*
X175555863Y-94666676D01*
X175353283Y-94626380D01*
X175353280Y-94626380D01*
X175146720Y-94626380D01*
X175146717Y-94626380D01*
X174944136Y-94666676D01*
X174944124Y-94666679D01*
X174753298Y-94745721D01*
X174753285Y-94745728D01*
X174581544Y-94860483D01*
X174581540Y-94860486D01*
X174435486Y-95006540D01*
X174382440Y-95085929D01*
X174328827Y-95130733D01*
X174259502Y-95139440D01*
X174196475Y-95109285D01*
X174191657Y-95104718D01*
X171773840Y-92686901D01*
X171740355Y-92625578D01*
X171745339Y-92555886D01*
X171787211Y-92499953D01*
X171852675Y-92475536D01*
X171861521Y-92475220D01*
X179194283Y-92475220D01*
X179261322Y-92494905D01*
G37*
G04 #@! TD.AperFunction*
G04 #@! TA.AperFunction,Conductor*
G36*
X142492882Y-87719905D02*
G01*
X142538637Y-87772709D01*
X142548581Y-87841867D01*
X142519556Y-87905423D01*
X142513524Y-87911901D01*
X140205662Y-90219762D01*
X140149766Y-90275657D01*
X140149764Y-90275660D01*
X140110239Y-90344119D01*
X140089779Y-90420476D01*
X140089779Y-90420478D01*
X140089779Y-90509513D01*
X140089780Y-90509526D01*
X140089780Y-91877863D01*
X140089779Y-91877881D01*
X140089779Y-91964523D01*
X140103692Y-92016449D01*
X140110238Y-92040880D01*
X140110239Y-92040881D01*
X140149764Y-92109340D01*
X140149766Y-92109342D01*
X140203523Y-92163099D01*
X140237008Y-92224422D01*
X140232024Y-92294114D01*
X140190152Y-92350047D01*
X140124688Y-92374464D01*
X140115842Y-92374780D01*
X112687137Y-92374780D01*
X112687121Y-92374779D01*
X112679525Y-92374779D01*
X112600476Y-92374779D01*
X112524119Y-92395239D01*
X112524117Y-92395239D01*
X112524117Y-92395240D01*
X112455660Y-92434764D01*
X112455657Y-92434766D01*
X110359046Y-94531377D01*
X110359044Y-94531380D01*
X110319519Y-94599839D01*
X110299059Y-94676196D01*
X110299059Y-94676198D01*
X110299059Y-94765233D01*
X110299060Y-94765246D01*
X110299060Y-95008653D01*
X110279375Y-95075692D01*
X110226571Y-95121447D01*
X110157413Y-95131391D01*
X110093857Y-95102366D01*
X110071958Y-95077545D01*
X110024513Y-95006540D01*
X109878459Y-94860486D01*
X109878455Y-94860483D01*
X109715329Y-94751485D01*
X109670524Y-94697873D01*
X109660220Y-94648383D01*
X109660220Y-94203636D01*
X109679905Y-94136597D01*
X109696539Y-94115955D01*
X116075955Y-87736539D01*
X116137278Y-87703054D01*
X116163636Y-87700220D01*
X142425843Y-87700220D01*
X142492882Y-87719905D01*
G37*
G04 #@! TD.AperFunction*
G04 #@! TA.AperFunction,Conductor*
G36*
X146152252Y-86922755D02*
G01*
X146160555Y-86922904D01*
X146192389Y-86938135D01*
X146221712Y-86957728D01*
X146221714Y-86957728D01*
X146221718Y-86957731D01*
X146367046Y-87017927D01*
X146367051Y-87017929D01*
X146367055Y-87017929D01*
X146367056Y-87017930D01*
X146521340Y-87048620D01*
X146521343Y-87048620D01*
X146678659Y-87048620D01*
X146815494Y-87021401D01*
X146832949Y-87017929D01*
X146834456Y-87017304D01*
X146835308Y-87017212D01*
X146838776Y-87016161D01*
X146838975Y-87016818D01*
X146903921Y-87009826D01*
X146966405Y-87041092D01*
X146969603Y-87044178D01*
X151355423Y-91429998D01*
X151355433Y-91430009D01*
X151359763Y-91434339D01*
X151359764Y-91434340D01*
X151415660Y-91490236D01*
X151484119Y-91529761D01*
X151560476Y-91550221D01*
X151560479Y-91550221D01*
X151647121Y-91550221D01*
X151647137Y-91550220D01*
X182074283Y-91550220D01*
X182141322Y-91569905D01*
X182161964Y-91586539D01*
X183922741Y-93347316D01*
X183956226Y-93408639D01*
X183959060Y-93434997D01*
X183959060Y-95008653D01*
X183939375Y-95075692D01*
X183886571Y-95121447D01*
X183817413Y-95131391D01*
X183753857Y-95102366D01*
X183731958Y-95077545D01*
X183684513Y-95006540D01*
X183538459Y-94860486D01*
X183538455Y-94860483D01*
X183366714Y-94745728D01*
X183366701Y-94745721D01*
X183175875Y-94666679D01*
X183175863Y-94666676D01*
X182973283Y-94626380D01*
X182973280Y-94626380D01*
X182766720Y-94626380D01*
X182766717Y-94626380D01*
X182564136Y-94666676D01*
X182564133Y-94666677D01*
X182564132Y-94666677D01*
X182564129Y-94666678D01*
X182509085Y-94689478D01*
X182444187Y-94716359D01*
X182374717Y-94723827D01*
X182312238Y-94692551D01*
X182309054Y-94689478D01*
X179617306Y-91997731D01*
X179617304Y-91997728D01*
X179554342Y-91934766D01*
X179554340Y-91934764D01*
X179485881Y-91895239D01*
X179409524Y-91874779D01*
X179330476Y-91874779D01*
X179322880Y-91874779D01*
X179322864Y-91874780D01*
X141884949Y-91874780D01*
X141817910Y-91855095D01*
X141772155Y-91802291D01*
X141762211Y-91733133D01*
X141765174Y-91718687D01*
X141766451Y-91713921D01*
X141804220Y-91572964D01*
X141804220Y-91427036D01*
X141804220Y-91421716D01*
X141823905Y-91354677D01*
X141840539Y-91334035D01*
X142954812Y-90219762D01*
X145873410Y-87301164D01*
X145873415Y-87301160D01*
X145883618Y-87290956D01*
X145883620Y-87290956D01*
X145939516Y-87235060D01*
X145979041Y-87166601D01*
X145999500Y-87090245D01*
X145999500Y-87041238D01*
X146002363Y-87031486D01*
X146001097Y-87021401D01*
X146012041Y-86998526D01*
X146019185Y-86974199D01*
X146026865Y-86967543D01*
X146031253Y-86958374D01*
X146052827Y-86945047D01*
X146071989Y-86928444D01*
X146082049Y-86926997D01*
X146090697Y-86921656D01*
X146116048Y-86922108D01*
X146141147Y-86918500D01*
X146152252Y-86922755D01*
G37*
G04 #@! TD.AperFunction*
M02*
