M48
; DRILL file {KiCad 9.0.5} date 2025-10-21T18:02:57+0100
; FORMAT={-:-/ absolute / inch / decimal}
; #@! TF.CreationDate,2025-10-21T18:02:57+01:00
; #@! TF.GenerationSoftware,Kicad,Pcbnew,9.0.5
; #@! TF.FileFunction,Plated,1,2,PTH
FMAT,2
INCH
; #@! TA.AperFunction,Plated,PTH,ViaDrill
T1C0.0120
; #@! TA.AperFunction,Plated,PTH,ComponentDrill
T2C0.0276
; #@! TA.AperFunction,Plated,PTH,ComponentDrill
T3C0.0394
; #@! TA.AperFunction,Plated,PTH,ComponentDrill
T4C0.0863
; #@! TA.AperFunction,Plated,PTH,ComponentDrill
T5C0.1059
%
G90
G05
T1
X4.252Y-4.7835
X4.2575Y-4.0817
X4.3504Y-4.7835
X4.3559Y-4.0817
X4.4488Y-4.7835
X4.4543Y-4.0817
X4.5571Y-4.7835
X4.5626Y-4.0817
X4.6063Y-3.4941
X4.6063Y-3.6024
X4.6555Y-4.7835
X4.661Y-4.0817
X4.7539Y-4.7835
X4.7594Y-4.0817
X4.8524Y-4.7835
X4.8579Y-4.0817
X4.9508Y-4.7835
X4.9563Y-4.0817
X5.0492Y-4.7835
X5.0547Y-4.0817
X5.1531Y-4.0817
X5.1575Y-4.7835
X5.2461Y-4.7835
X5.2516Y-4.0817
X5.3445Y-4.7835
X5.35Y-4.0817
X5.4429Y-4.7835
X5.4583Y-4.0817
X5.5512Y-4.7835
X5.5567Y-4.0817
X5.5606Y-3.6998
X5.561Y-3.6024
X5.6354Y-3.2352
X5.6354Y-3.3533
X5.6453Y-4.0817
X5.6496Y-4.7835
X5.748Y-4.7835
X5.7535Y-4.0817
X5.7874Y-3.4843
X5.8465Y-4.7835
X5.852Y-4.0817
X5.9307Y-3.3533
X5.9307Y-3.4419
X5.9449Y-4.7835
X5.9504Y-4.0817
X6.0531Y-4.7835
X6.0587Y-4.0817
X6.1472Y-4.0817
X6.1516Y-4.7835
X6.25Y-4.7835
X6.2697Y-4.4587
X6.2722Y-4.0827
X6.3484Y-4.7835
X6.3583Y-3.7106
X6.3638Y-4.0817
X6.3933Y-3.8848
X6.4469Y-4.7835
X6.4622Y-4.0817
X6.5016Y-3.8848
X6.5453Y-4.7835
X6.5606Y-4.0817
X6.6364Y-4.0807
X6.6472Y-4.7825
X6.6719Y-4.0148
X6.7486Y-4.0246
X6.7496Y-4.0807
X6.7496Y-4.7825
X6.7969Y-3.8652
X6.8165Y-3.8258
X6.8165Y-3.9045
X6.8264Y-4.0394
X6.8461Y-4.7815
X6.8657Y-3.688
X6.8677Y-4.1112
X6.8913Y-3.8652
X6.9179Y-3.8947
X6.9189Y-3.8317
X6.9543Y-4.0817
X6.9543Y-4.7805
X6.974Y-3.8947
X6.9839Y-3.8356
X7.0429Y-4.0817
X7.0528Y-4.7805
X7.0823Y-3.8947
X7.0921Y-3.8356
X7.1413Y-4.0817
X7.1512Y-4.7805
X7.1709Y-3.9144
X7.2004Y-3.8455
X7.2441Y-4.1929
X7.2539Y-4.7835
T2
X5.6929Y-3.2972
X5.6929Y-3.3957
X5.7717Y-3.2972
X5.7717Y-3.3957
X5.8504Y-3.2972
X5.8504Y-3.3957
T3
X4.1996Y-3.7667
X4.1996Y-3.9636
X4.2996Y-3.7667
X4.2996Y-3.9636
X4.3996Y-3.7667
X4.3996Y-3.9636
X4.4996Y-3.7667
X4.4996Y-3.9636
X4.5996Y-3.7667
X4.5996Y-3.9636
X4.6996Y-3.7667
X4.6996Y-3.9636
X4.7996Y-3.7667
X4.7996Y-3.9636
X4.8996Y-3.7667
X4.8996Y-3.9636
X4.9996Y-3.7667
X4.9996Y-3.9636
X5.0996Y-3.7667
X5.0996Y-3.9636
X5.1996Y-3.7667
X5.1996Y-3.9636
X5.2996Y-3.7667
X5.2996Y-3.9636
X5.3996Y-3.7667
X5.3996Y-3.9636
X5.4996Y-3.7667
X5.4996Y-3.9636
X5.5996Y-3.7667
X5.5996Y-3.9636
X5.6996Y-3.7667
X5.6996Y-3.9636
X5.7996Y-3.7667
X5.7996Y-3.9636
X5.8996Y-3.7667
X5.8996Y-3.9636
X5.9996Y-3.7667
X5.9996Y-3.9636
X6.0996Y-3.7667
X6.0996Y-3.9636
X6.1996Y-3.7667
X6.1996Y-3.9636
X6.2996Y-3.7667
X6.2996Y-3.9636
X6.3996Y-3.7667
X6.3996Y-3.9636
X6.4996Y-3.7667
X6.4996Y-3.9636
X6.5996Y-3.7667
X6.5996Y-3.9636
X6.6996Y-3.7667
X6.6996Y-3.9636
X6.7996Y-3.7667
X6.7996Y-3.9636
X6.8996Y-3.7667
X6.8996Y-3.9636
X6.9996Y-3.7667
X6.9996Y-3.9636
X7.0996Y-3.7667
X7.0996Y-3.9636
X7.1996Y-3.7667
X7.1996Y-3.9636
X7.2996Y-3.7667
X7.2996Y-3.9636
T4
X5.5Y-3.3465
X6.0433Y-3.3465
T5
X3.8476Y-3.8652
X7.6494Y-3.8638
M30
